{"glyphs":{"0":{"ha":561,"x_min":-6,"x_max":569,"o":"m 117 253 q 134 294 117 276 q 176 311 151 311 q 214 301 199 311 q 229 275 229 290 q 211 236 229 253 q 168 219 193 219 q 132 229 147 219 q 117 253 117 239 m 8 319 q 75 111 8 194 q 238 28 142 28 q 443 106 358 28 q 528 300 528 183 q 442 492 528 413 q 235 572 356 572 q 74 511 140 572 q 8 319 8 450 m -6 306 q 67 519 -6 453 q 249 586 140 586 q 475 499 381 586 q 569 286 569 411 q 477 72 569 157 q 251 -14 385 -14 q 68 78 142 -14 q -6 306 -6 171 z "},"1":{"ha":392,"x_min":-7,"x_max":394,"o":"m 22 344 q 121 408 64 389 q 106 206 107 265 q 117 67 106 147 q 256 57 174 57 q 324 76 294 57 q 353 132 353 94 q 340 250 353 168 q 328 347 328 332 q 339 501 328 399 q 350 633 350 603 q 243 635 290 633 q 132 610 196 635 q 25 546 68 585 q 8 444 8 507 q 22 344 8 382 m 26 279 l 10 321 q -7 435 -7 364 q 14 554 -7 504 q 133 624 64 600 q 257 649 201 649 q 364 647 300 647 l 392 647 l 392 619 q 381 483 392 585 q 369 333 369 382 q 382 239 369 324 q 394 118 394 154 q 359 44 394 72 q 269 15 324 15 q 126 25 185 15 l 106 29 q 103 40 104 33 q 103 50 103 46 q 92 190 92 140 q 103 351 92 239 q 57 313 83 340 q 42 295 54 308 q 26 279 29 282 z "},"2":{"ha":561,"x_min":-17,"x_max":575,"o":"m 4 149 q -4 90 -4 124 q 15 29 -4 40 q 194 25 96 25 q 429 36 336 25 q 496 89 483 43 q 531 300 521 181 l 522 300 q 294 258 474 258 q 437 382 396 329 q 478 508 478 435 q 418 626 478 578 q 274 675 358 675 q 54 640 171 675 l 63 456 q 138 488 114 488 q 176 470 161 488 q 192 426 192 453 q 121 292 192 368 q 92 260 113 282 q 63 230 71 239 q 41 205 54 221 q 19 176 28 189 q 4 149 11 163 m -8 144 q 9 175 0 161 q 33 206 18 189 q 55 233 47 224 q 85 265 63 242 q 114 296 107 288 q 178 413 178 367 q 151 446 178 446 q 51 392 128 446 l 38 650 q 285 692 175 692 q 449 634 379 692 q 519 494 519 576 q 490 378 519 428 q 396 275 461 328 q 525 314 490 282 l 575 314 q 536 68 564 169 q 446 -6 519 4 q 208 -17 350 -17 q 15 -8 31 -17 q -17 79 -17 13 q -8 144 -17 115 z "},"3":{"ha":479,"x_min":-12,"x_max":490,"o":"m 3 35 q 210 -10 122 -10 q 376 48 304 -10 q 449 185 449 106 q 283 365 449 326 q 392 544 392 433 q 340 634 392 601 q 221 667 289 667 q 10 611 114 667 q 49 401 28 538 q 147 442 89 442 q 183 415 183 442 q 159 383 183 396 q 100 369 135 369 l 101 281 q 153 231 153 268 q 138 199 153 213 q 103 186 124 186 q 11 226 78 186 l 3 35 m -12 1 l 0 261 q 117 200 97 200 q 139 217 139 200 q 108 240 139 232 q 88 244 100 240 l 88 267 q 85 338 86 314 q 85 369 85 363 q 81 365 83 368 q 69 352 78 361 q 44 328 60 343 q -8 615 18 511 q 232 681 111 681 q 372 641 310 681 q 433 531 433 601 q 358 361 433 428 q 490 171 490 306 q 411 15 490 81 q 224 -51 332 -51 q -12 1 121 -51 z "},"4":{"ha":597,"x_min":-3,"x_max":614,"o":"m 11 156 q 171 149 72 156 q 303 140 269 142 q 310 -4 301 78 q 447 -21 407 -21 q 522 54 522 -21 q 522 110 522 69 q 521 169 521 150 q 561 201 556 183 q 569 340 579 257 q 522 322 556 333 q 542 517 528 411 q 418 518 465 517 q 356 428 386 493 q 314 297 325 364 q 226 304 261 297 q 268 385 226 306 q 325 499 310 464 q 360 597 340 533 q 381 708 381 661 q 249 719 315 719 q 183 700 211 719 q 151 644 156 681 q 130 526 144 575 q 78 399 115 478 q 24 274 42 319 q 11 156 11 201 m -3 114 q 11 267 -3 182 q 66 394 31 315 q 116 519 101 472 q 138 633 131 567 q 263 733 147 733 q 422 718 324 733 q 347 435 422 594 q 419 533 383 506 q 504 532 453 533 q 588 531 556 531 l 567 350 q 606 369 571 351 q 614 275 614 325 q 601 178 614 211 q 564 139 593 154 l 564 40 q 538 -35 564 -8 q 461 -62 511 -62 q 299 -42 397 -62 q 289 100 289 36 q -3 114 143 113 z "},"5":{"ha":549,"x_min":3,"x_max":556,"o":"m 21 694 q 17 551 17 624 q 31 293 17 413 q 213 349 124 349 q 293 322 261 349 q 325 263 325 296 q 201 181 325 181 q 26 242 110 181 q 47 3 26 100 q 256 -43 171 -43 q 437 26 360 -43 q 514 190 514 96 q 434 388 514 315 q 238 460 354 460 q 174 451 206 460 q 174 477 174 458 q 175 513 175 496 q 340 531 257 531 q 464 496 410 531 q 457 669 486 586 q 410 710 446 701 q 314 719 374 719 q 160 706 257 718 q 21 694 64 694 m 7 710 q 174 722 79 711 q 328 733 268 732 q 378 732 360 733 q 426 725 397 731 q 472 704 454 719 q 497 665 489 689 q 515 560 515 615 q 496 438 515 513 q 354 489 428 489 q 217 475 283 489 l 217 472 q 251 474 228 474 q 467 393 379 474 q 556 176 556 313 q 470 -7 556 71 q 269 -85 385 -85 q 38 -32 175 -85 q 13 228 13 83 l 13 283 l 17 279 q 3 525 3 346 q 7 710 3 613 z "},"6":{"ha":628,"x_min":15,"x_max":656,"o":"m 29 314 q 114 85 29 181 q 357 -10 199 -10 q 536 56 471 -10 q 601 213 601 122 q 540 350 601 286 q 379 414 478 414 q 228 375 306 414 q 372 494 243 494 q 522 464 457 494 q 600 686 542 532 l 594 686 q 531 644 578 644 q 448 655 511 644 q 346 665 385 665 q 115 560 201 665 q 29 314 29 454 m 260 222 q 278 260 260 244 q 318 276 296 276 q 383 256 357 276 q 410 208 410 236 q 391 162 410 181 q 344 143 372 143 q 285 167 310 143 q 260 222 260 190 m 15 300 q 106 567 15 454 q 360 679 197 679 q 463 669 397 679 q 544 658 529 658 q 572 665 565 658 q 590 700 578 671 l 656 700 q 554 411 582 511 q 386 453 471 453 q 286 410 314 453 q 393 428 340 428 q 573 356 503 428 q 643 199 643 283 q 570 23 643 97 q 371 -51 497 -51 q 110 50 204 -51 q 15 300 15 151 z "},"7":{"ha":503,"x_min":-4,"x_max":518,"o":"m 28 481 q 160 513 78 513 q 256 503 213 513 q 146 237 204 400 q 88 -15 88 74 q 242 -26 153 -26 q 307 -7 279 -26 q 339 49 335 13 q 464 533 361 276 q 476 693 476 607 q 326 708 418 693 q 181 725 235 724 q 35 675 54 725 q 13 565 13 617 q 28 481 13 524 m 21 674 q 185 740 46 740 q 335 724 242 740 q 518 707 429 707 q 504 513 518 597 q 381 32 403 254 q 339 -42 375 -17 q 256 -68 303 -68 q 74 -53 172 -68 q 228 468 74 133 q 174 471 206 471 q 28 425 88 471 q -4 554 -4 501 q 21 674 -4 610 z "},"8":{"ha":607,"x_min":3,"x_max":618,"o":"m 157 211 q 213 310 157 251 q 272 276 249 300 q 296 222 296 253 q 272 175 296 194 q 213 156 247 156 q 173 172 189 156 q 157 211 157 189 m 269 483 q 290 517 269 503 q 338 532 310 532 q 358 523 349 532 q 367 501 367 514 q 343 453 367 476 q 297 421 319 429 q 275 447 281 436 q 269 483 269 458 m 17 147 q 98 24 17 75 q 293 -26 179 -26 q 494 40 411 -26 q 576 200 576 106 q 521 322 576 272 q 389 392 465 371 q 494 549 494 472 q 442 649 494 607 q 314 690 389 690 q 142 633 208 690 q 74 486 76 575 q 154 375 74 415 q 59 276 101 342 q 17 147 17 210 m 3 133 q 37 256 3 194 q 119 360 71 317 q 60 472 60 408 q 135 641 64 578 q 328 704 206 704 q 474 656 413 704 q 536 535 536 607 q 458 388 536 463 q 572 308 526 358 q 618 186 618 257 q 526 6 618 79 q 307 -68 433 -68 q 94 -11 185 -68 q 3 133 3 46 z "},"9":{"ha":629,"x_min":-1,"x_max":625,"o":"m 13 453 q 86 288 13 357 q 294 218 160 218 q 369 231 332 218 q 240 158 331 158 q 74 197 147 158 q 51 40 51 124 q 271 -10 156 -10 q 498 98 413 -10 q 583 347 583 206 q 500 579 583 483 q 257 675 417 675 q 78 609 143 675 q 13 453 13 543 m 204 388 q 223 433 204 414 q 269 451 242 451 q 329 428 304 451 q 354 372 354 404 q 337 335 354 350 q 297 319 319 319 q 231 340 258 319 q 204 388 204 360 m -1 439 q 69 617 -1 544 q 271 689 140 689 q 533 585 442 689 q 625 335 625 482 q 532 66 625 183 q 285 -51 439 -51 q 38 8 164 -51 q 71 224 38 121 q 164 183 128 194 q 254 172 200 172 q 292 178 269 172 q 76 260 153 183 q -1 439 -1 336 z "}," ":{"ha":319,"x_min":0,"x_max":0,"o":""},"!":{"ha":310,"x_min":-28,"x_max":322,"o":"m 25 47 q 67 157 25 121 q 169 193 108 193 q 258 160 225 193 q 292 75 292 128 q 245 -28 292 13 q 133 -69 199 -69 q 57 -35 89 -69 q 25 47 25 0 m -28 758 l -26 764 q 228 797 133 797 q 295 770 268 797 q 322 700 322 743 q 303 505 322 654 q 268 274 285 356 q 192 203 256 203 q 86 189 131 203 l 50 178 l 50 215 q 54 357 50 239 q 58 513 58 475 q 43 624 58 574 q 13 700 28 675 q -28 758 -3 725 m 42 58 q 66 -4 42 22 q 122 -31 90 -31 q 215 2 176 -31 q 253 86 253 35 q 228 151 253 126 q 158 176 204 176 q 76 144 111 176 q 42 58 42 113 m 6 749 q 75 524 75 660 q 71 367 75 485 q 67 226 67 249 q 181 242 119 242 q 231 290 221 242 q 265 520 246 371 q 283 711 283 669 q 265 760 283 742 q 217 778 246 778 q 6 749 135 778 z "},"\"":{"ha":479,"x_min":-3,"x_max":503,"o":"m 247 832 q 283 761 247 785 q 304 767 294 767 q 328 740 328 767 q 309 678 328 715 q 269 621 290 642 q 304 614 286 614 q 358 624 331 614 q 397 644 385 633 q 441 739 421 682 q 461 844 461 796 q 364 950 461 950 q 282 918 317 950 q 247 832 247 886 m -3 742 q 38 849 -3 811 q 142 888 79 888 q 236 850 203 888 q 284 934 246 904 q 378 964 322 964 q 472 927 440 964 q 503 831 503 890 q 432 613 503 722 q 318 572 386 572 q 235 599 275 572 q 313 724 307 664 q 294 715 304 724 q 267 738 278 726 q 196 536 260 639 q 82 496 150 496 q -1 522 39 496 q 76 647 71 588 q 58 639 68 647 q -3 742 -3 674 m 11 756 q 47 685 11 708 q 68 690 58 690 q 92 664 92 690 q 73 602 92 639 q 33 544 54 565 q 68 538 50 538 q 122 547 94 538 q 161 568 149 557 q 205 663 185 606 q 225 768 225 719 q 128 874 225 874 q 46 842 81 874 q 11 756 11 810 z "},"#":{"ha":593,"x_min":-10,"x_max":614,"o":"m 4 197 q 21 139 4 161 q 103 150 47 144 q 119 -58 103 14 q 244 -72 172 -72 q 232 156 232 74 l 317 157 q 317 142 317 157 q 331 -72 317 -10 q 456 -86 383 -86 q 446 139 446 11 q 446 161 446 139 q 551 175 496 164 q 565 299 565 228 q 517 295 557 299 q 449 290 476 292 q 451 335 450 306 q 451 382 451 365 q 558 394 501 383 q 572 518 572 447 q 451 511 529 514 q 436 706 449 661 q 363 725 411 725 q 303 711 322 725 q 322 508 321 618 l 239 507 q 225 708 239 664 q 151 739 190 739 q 92 722 114 739 q 108 503 108 635 q 31 492 49 497 q 11 417 11 467 q 25 358 11 378 q 107 369 54 364 l 104 282 q 35 272 67 281 q 4 197 4 238 m 233 285 l 238 376 l 322 379 l 319 286 l 233 285 m -10 183 q 32 282 -10 233 q 92 293 57 290 l 93 325 l 28 314 q 3 354 8 338 q -3 403 -3 371 q 28 501 -3 460 q 94 514 49 510 q 75 719 93 632 q 165 753 117 753 q 264 710 221 753 q 281 521 281 629 q 294 522 283 521 q 307 522 306 522 q 290 692 301 632 l 286 708 q 376 739 324 739 q 428 731 403 739 q 463 717 454 722 q 475 708 472 711 q 493 526 490 671 q 614 535 542 528 l 614 504 q 607 416 614 464 q 594 357 600 368 q 493 342 575 347 q 492 323 493 335 q 492 306 492 311 q 533 309 506 307 q 583 313 561 311 q 607 315 606 315 l 607 285 q 588 138 607 208 q 488 121 568 128 q 500 -128 488 22 q 321 -110 400 -125 q 303 114 303 -29 l 274 114 q 277 23 274 74 q 285 -69 281 -28 q 289 -114 289 -111 q 110 -96 182 -114 q 89 106 89 4 l 24 94 q -10 183 -10 136 m 276 299 l 306 300 l 307 336 l 278 336 l 276 299 z "},"$":{"ha":464,"x_min":-3,"x_max":471,"o":"m 13 82 q 75 67 35 78 q 133 53 115 57 q 147 -128 136 -75 q 272 -142 200 -142 q 263 51 264 -37 q 382 121 335 68 q 429 240 429 174 q 399 329 429 290 q 318 383 368 368 q 242 417 250 404 q 239 426 239 422 q 258 439 239 439 q 331 429 299 439 q 397 653 349 563 q 268 674 310 668 q 253 847 265 806 q 179 878 218 878 q 119 861 142 878 q 139 674 138 772 q 60 629 92 661 q 29 558 29 597 q 88 422 29 485 q 147 286 147 358 q 131 241 147 260 q 90 222 114 222 q 68 227 79 222 q 43 241 57 232 q 21 254 29 250 l 13 82 m -3 46 l 10 285 q 47 266 31 275 q 72 252 64 257 q 85 244 79 247 q 94 239 92 240 q 98 237 96 238 q 104 236 100 236 q 124 247 115 236 q 133 272 133 257 q 81 389 133 331 q 15 544 15 460 q 44 624 15 586 q 124 681 72 661 q 119 753 122 719 q 113 805 115 788 q 106 839 110 822 q 103 858 103 856 l 117 868 q 193 892 149 892 q 292 849 242 892 q 310 685 307 803 q 417 667 351 679 l 454 660 l 436 626 q 393 515 410 578 q 372 423 376 453 q 368 385 368 393 q 443 319 415 361 q 471 226 471 278 q 427 101 471 160 q 304 17 383 43 q 317 -183 307 -92 q 138 -165 206 -183 q 119 17 121 -104 q 68 30 97 22 q -3 46 39 38 z "},"%":{"ha":826,"x_min":-14,"x_max":856,"o":"m 110 532 q 133 525 117 525 q 147 538 147 525 q 128 544 140 544 q 110 532 113 544 m 540 82 q 560 75 547 75 q 578 88 575 75 q 554 94 571 94 q 540 82 540 94 m -14 572 q 52 722 -14 671 q 232 772 118 772 q 372 700 321 772 l 368 696 q 411 556 411 654 q 361 443 396 486 q 483 549 481 546 q 557 635 525 590 l 576 661 l 600 639 q 707 521 668 571 q 639 400 701 463 q 521 292 628 389 q 608 314 560 314 q 782 260 708 314 q 856 124 856 206 q 788 -22 856 33 q 610 -76 721 -76 q 482 -19 526 -76 q 478 -13 481 -17 q 472 -7 475 -10 l 471 -4 l 474 0 q 431 139 431 42 l 431 144 q 460 236 431 193 q 411 190 421 200 q 310 32 310 89 q 246 60 264 50 q 203 96 228 71 q 146 190 172 126 l 146 196 q 265 360 146 240 q 284 376 269 364 q 307 397 299 389 q 236 379 274 379 q 61 435 136 379 q -14 572 -14 490 m 0 586 q 65 471 0 518 q 219 424 129 424 q 315 465 274 424 q 369 569 357 506 q 318 700 369 675 l 325 711 q 218 758 289 758 q 60 713 121 758 q 0 586 0 667 m 68 542 q 81 574 68 561 q 114 586 94 586 q 147 576 133 586 q 161 553 161 567 q 149 523 161 535 q 119 511 138 511 q 83 521 99 511 q 68 542 68 531 m 444 153 q 496 22 444 47 l 489 11 q 596 -35 524 -35 q 753 11 693 -35 q 814 138 814 57 q 749 253 814 206 q 594 300 685 300 q 499 258 540 300 q 444 153 457 217 m 499 94 q 510 124 499 113 q 540 136 522 136 q 576 126 561 136 q 592 106 592 117 q 578 74 592 86 q 546 61 565 61 q 513 71 526 61 q 499 94 499 81 m 160 210 q 208 131 183 156 q 276 85 236 103 q 378 224 286 132 q 492 329 403 249 q 606 433 582 410 q 664 526 656 483 q 565 632 626 571 q 489 543 528 582 q 377 444 471 525 q 269 350 283 364 q 160 210 160 240 z "},"&":{"ha":892,"x_min":-8,"x_max":917,"o":"m -8 351 q 66 541 -8 458 q 253 624 140 624 q 360 610 300 624 q 458 596 419 596 q 503 614 478 596 q 536 657 528 632 q 542 674 536 657 l 608 674 q 594 636 603 657 q 563 565 589 624 q 529 475 538 507 q 519 438 525 460 q 531 442 526 438 q 626 465 563 465 q 658 464 646 465 q 643 543 653 507 q 641 551 643 544 q 638 563 639 558 q 636 569 636 568 q 724 585 685 585 q 774 581 754 585 q 804 456 792 550 q 888 500 849 461 q 917 379 917 444 q 896 271 917 322 q 790 238 864 239 q 651 17 753 104 q 403 -69 549 -69 q 110 47 228 -69 q -8 351 -8 163 m 6 365 q 115 79 6 186 q 389 -28 225 -28 q 628 60 532 -28 q 756 281 725 147 q 769 279 763 279 q 858 301 836 279 q 875 393 875 342 q 863 468 875 433 q 765 440 825 440 q 755 514 763 468 q 742 568 747 560 q 710 571 719 571 q 656 564 681 571 q 675 447 669 517 q 656 449 668 447 q 633 451 643 450 q 613 451 622 451 q 532 433 557 451 q 503 283 519 375 q 600 293 556 293 q 667 289 629 293 q 581 135 644 194 q 417 75 517 75 q 296 107 351 75 q 211 193 240 139 q 253 233 214 219 q 344 247 292 247 q 344 283 344 272 q 341 308 343 294 q 333 326 339 321 q 317 331 326 331 q 251 327 292 331 q 188 324 211 324 q 229 384 197 360 q 303 408 261 408 q 456 353 381 408 q 489 497 474 443 q 523 588 499 532 q 554 660 547 643 l 547 660 q 506 606 538 629 q 444 582 474 582 q 342 596 401 582 q 239 610 282 610 q 75 534 144 610 q 6 365 6 458 m 250 340 q 331 344 285 344 q 376 319 367 344 q 386 233 386 294 l 386 206 l 358 206 q 256 181 281 206 q 431 89 314 89 q 644 250 589 89 q 614 251 629 251 q 542 245 594 251 q 475 236 489 239 l 485 293 q 453 317 465 308 q 317 367 386 367 q 250 340 275 367 z "},"'":{"ha":254,"x_min":-3,"x_max":267,"o":"m 11 756 q 47 685 11 708 q 68 690 58 690 q 92 664 92 690 q 73 602 92 639 q 33 544 54 565 q 68 538 50 538 q 122 547 94 538 q 161 568 149 557 q 205 663 185 606 q 225 768 225 719 q 128 874 225 874 q 46 842 81 874 q 11 756 11 810 m -3 742 q 38 849 -3 811 q 142 888 79 888 q 235 851 204 888 q 267 754 267 814 q 196 536 267 646 q 82 496 150 496 q -1 522 39 496 q 76 647 71 588 q 58 639 68 647 q -3 742 -3 674 z "},"(":{"ha":382,"x_min":-12,"x_max":414,"o":"m 1 404 q 78 65 1 192 q 272 -61 156 -61 q 357 -40 321 -61 l 349 176 q 313 153 338 164 q 271 142 289 142 q 216 163 242 142 q 190 213 190 185 q 222 297 190 257 q 292 336 253 336 q 336 325 314 336 l 371 797 q 113 681 224 797 q 1 404 1 565 m -12 390 q 105 692 -12 572 q 385 811 222 811 l 414 811 q 375 267 414 740 q 306 294 324 294 q 256 264 281 294 q 232 199 232 233 q 249 169 232 182 q 285 156 267 156 q 388 236 328 156 l 399 -69 q 286 -103 346 -103 q 71 33 154 -103 q -12 390 -12 169 z "},")":{"ha":382,"x_min":-11,"x_max":413,"o":"m 4 764 l 22 379 q 67 390 44 390 q 143 352 115 390 q 171 263 171 314 q 150 185 171 219 q 100 151 129 151 q 22 185 50 151 l 10 -78 q 99 -101 51 -101 q 293 24 215 -101 q 371 363 371 150 q 260 644 371 525 q 4 764 150 764 m -11 778 l 18 778 q 295 649 178 778 q 413 349 413 521 q 328 -8 413 128 q 113 -143 244 -143 q 43 -131 79 -143 q -6 -107 7 -119 l 13 243 l 58 189 q 114 165 78 165 q 143 190 129 165 q 157 249 157 214 q 136 319 157 290 q 81 349 115 349 q 50 342 64 349 l 11 321 l -11 778 z "},"*":{"ha":489,"x_min":-4,"x_max":517,"o":"m 10 338 q 121 336 65 353 l 135 332 q 78 271 103 306 q 68 239 68 257 q 94 186 68 206 q 203 136 135 154 q 236 240 203 192 l 244 253 q 285 181 265 207 q 333 157 301 157 q 371 169 354 157 q 451 258 408 199 q 363 322 401 274 l 354 333 q 435 349 401 338 q 475 406 475 363 q 471 425 475 414 q 413 532 454 479 q 325 467 383 489 l 311 461 q 321 544 321 510 q 301 585 321 568 q 258 603 282 603 q 142 579 213 603 q 175 475 174 538 l 175 461 q 100 496 129 486 q 83 499 89 499 q 48 487 64 499 q 25 456 32 475 q 10 338 10 407 m -4 288 l -4 324 q 11 451 -4 400 q 44 496 21 479 q 97 513 68 513 q 157 494 115 513 q 133 549 151 525 l 108 581 l 146 593 q 271 618 217 618 q 334 593 306 618 q 363 531 363 568 q 361 493 363 506 q 401 536 378 503 l 424 568 l 449 535 q 511 421 490 482 q 517 392 517 404 q 501 341 517 364 q 457 308 485 318 q 424 299 446 304 q 474 271 450 278 l 511 260 l 488 228 q 401 133 443 167 q 347 115 378 115 q 276 150 300 115 q 257 181 267 164 q 244 122 244 150 l 244 86 l 210 96 q 92 150 136 117 q 54 225 54 178 q 69 274 54 253 q 93 303 76 283 q 31 297 61 307 l -4 288 z "},"+":{"ha":540,"x_min":-6,"x_max":567,"o":"m -6 175 l -6 204 q 1 389 -6 299 l 3 401 q 142 438 39 438 q 94 539 132 486 l 96 557 q 208 585 203 583 q 321 593 256 593 q 383 565 358 590 q 408 500 408 539 q 406 428 408 469 l 407 428 q 508 456 467 428 l 538 474 q 544 458 539 471 q 550 442 549 446 q 567 333 567 397 q 540 196 567 261 q 408 157 503 158 q 417 107 417 115 q 394 51 417 72 q 339 31 371 31 q 271 33 313 31 q 201 35 229 35 q 149 31 172 35 l 121 26 l 118 54 q 121 78 118 58 q 128 128 124 97 q 135 181 132 158 q 24 176 57 181 q 9 176 21 176 q -6 175 -3 175 m 11 215 q 126 219 74 219 q 140 219 129 219 q 160 218 150 218 l 136 69 q 192 74 163 74 q 263 72 222 74 q 328 69 303 69 q 364 83 350 69 q 378 118 378 96 q 371 157 378 126 q 360 208 363 194 l 399 208 q 506 235 482 211 q 528 344 528 290 q 513 443 528 404 q 404 411 467 414 l 364 411 q 365 420 364 414 q 365 429 365 426 q 369 511 369 464 q 351 560 369 542 q 303 578 332 578 q 122 549 251 578 q 164 438 156 508 l 165 419 q 140 420 153 419 q 125 421 128 421 q 18 397 51 421 q 11 215 11 311 z "},",":{"ha":254,"x_min":-3,"x_max":267,"o":"m 11 61 q 47 -10 11 14 q 68 -4 58 -4 q 92 -31 92 -4 q 73 -92 92 -56 q 33 -150 54 -129 q 68 -157 50 -157 q 122 -147 94 -157 q 161 -126 149 -137 q 205 -32 185 -89 q 225 74 225 25 q 128 179 225 179 q 46 147 81 179 q 11 61 11 115 m -3 47 q 38 155 -3 117 q 142 193 79 193 q 235 156 204 193 q 267 60 267 119 q 196 -158 267 -49 q 82 -199 150 -199 q -1 -172 39 -199 q 76 -47 71 -107 q 58 -56 68 -47 q -3 47 -3 -21 z "},"-":{"ha":485,"x_min":-6,"x_max":511,"o":"m -6 161 l -6 190 q 3 401 -6 326 q 136 438 39 438 q 244 433 171 438 q 351 428 318 428 q 383 430 368 428 q 406 434 397 432 q 429 443 415 436 q 447 452 443 450 q 465 463 450 454 q 482 474 481 472 q 488 458 483 471 q 494 442 493 446 q 511 333 511 397 q 485 194 511 260 q 339 156 446 156 q 238 161 317 156 q 135 167 158 167 q 24 163 57 167 q 9 162 21 163 q -6 161 -3 161 m 11 201 q 124 206 74 206 q 228 200 149 206 q 328 194 308 194 q 450 221 424 194 q 472 344 472 276 q 457 443 472 404 q 340 411 407 411 q 231 416 304 411 q 125 421 158 421 q 18 397 51 421 q 11 201 11 311 z "},".":{"ha":242,"x_min":-3,"x_max":264,"o":"m -3 47 q 39 157 -3 121 q 142 193 81 193 q 231 160 197 193 q 264 75 264 128 q 217 -28 264 13 q 106 -69 171 -69 q 29 -35 61 -69 q -3 47 -3 0 m 14 58 q 38 -4 14 22 q 94 -31 63 -31 q 187 2 149 -31 q 225 86 225 35 q 201 151 225 126 q 131 176 176 176 q 49 144 83 176 q 14 58 14 113 z "},"/":{"ha":543,"x_min":-14,"x_max":569,"o":"m 3 186 q 121 58 54 125 q 197 147 158 108 q 310 247 215 165 q 418 342 404 328 q 528 481 528 451 q 465 575 503 538 q 390 628 431 610 q 289 489 381 581 q 174 383 264 464 q 61 279 85 303 q 3 186 11 229 m -14 164 l -11 176 q 56 289 1 235 q 169 394 81 314 q 282 497 258 474 q 375 621 351 567 q 383 654 383 640 q 500 581 453 628 q 569 474 542 539 l 569 467 q 451 307 569 425 q 342 211 436 292 q 231 114 247 131 q 139 1 181 64 q -6 154 40 100 l -14 164 z "},":":{"ha":242,"x_min":-3,"x_max":264,"o":"m -3 103 q 39 213 -3 176 q 142 249 81 249 q 231 216 197 249 q 264 131 264 183 q 217 27 264 68 q 106 -14 171 -14 q 29 21 61 -14 q -3 103 -3 56 m 14 114 q 38 51 14 78 q 94 25 63 25 q 187 58 149 25 q 225 142 225 90 q 201 207 225 182 q 131 232 176 232 q 49 200 83 232 q 14 114 14 168 m -3 478 q 39 588 -3 551 q 142 624 81 624 q 231 591 197 624 q 264 506 264 558 q 217 402 264 443 q 106 361 171 361 q 29 396 61 361 q -3 478 -3 431 m 14 489 q 38 426 14 453 q 94 400 63 400 q 187 433 149 400 q 225 517 225 465 q 201 582 225 557 q 131 607 176 607 q 49 575 83 607 q 14 489 14 543 z "},";":{"ha":242,"x_min":-3,"x_max":267,"o":"m -3 478 q 39 588 -3 551 q 142 624 81 624 q 231 591 197 624 q 264 506 264 558 q 217 402 264 443 q 106 361 171 361 q 29 396 61 361 q -3 478 -3 431 m 14 489 q 38 426 14 453 q 94 400 63 400 q 187 433 149 400 q 225 517 225 465 q 201 582 225 557 q 131 607 176 607 q 49 575 83 607 q 14 489 14 543 m 11 61 q 47 -10 11 14 q 68 -4 58 -4 q 92 -31 92 -4 q 73 -92 92 -56 q 33 -150 54 -129 q 68 -157 50 -157 q 122 -147 94 -157 q 161 -126 149 -137 q 205 -32 185 -89 q 225 74 225 25 q 128 179 225 179 q 46 147 81 179 q 11 61 11 115 m -3 47 q 38 155 -3 117 q 142 193 79 193 q 235 156 204 193 q 267 60 267 119 q 196 -158 267 -49 q 82 -199 150 -199 q -1 -172 39 -199 q 76 -47 71 -107 q 58 -56 68 -47 q -3 47 -3 -21 z "},"<":{"ha":497,"x_min":-28,"x_max":538,"o":"m 1 363 q 94 243 42 322 q 185 125 147 164 q 311 53 257 53 q 398 95 344 53 q 483 213 451 138 q 395 257 449 219 q 301 356 342 294 q 483 515 425 435 q 399 615 443 571 q 319 658 356 658 q 281 642 297 658 q 1 363 153 500 m -28 357 q 17 397 -17 367 q 60 435 50 426 q 96 469 69 444 q 137 508 122 493 q 175 547 151 522 q 222 596 199 571 q 272 651 244 621 q 331 676 297 676 q 433 624 381 676 q 533 504 483 574 q 455 413 493 449 q 357 338 417 378 q 385 305 371 319 q 414 279 400 290 q 441 259 428 268 q 466 244 454 250 q 488 235 478 239 q 508 228 499 231 q 522 225 517 226 q 533 222 528 224 l 538 222 q 459 93 504 143 q 383 28 414 43 q 326 14 351 14 q 181 94 261 14 q 88 215 143 135 q -6 333 33 294 q -18 346 -12 340 q -25 354 -24 351 l -28 357 z "},"=":{"ha":485,"x_min":-4,"x_max":513,"o":"m 11 115 q 124 126 67 126 q 228 119 149 126 q 328 111 308 111 q 450 138 424 111 q 469 254 469 200 q 465 310 469 283 q 340 283 424 283 q 231 290 304 283 q 125 296 158 296 q 24 269 60 296 q 11 115 11 192 m 10 340 q 140 349 72 349 q 237 342 165 349 q 328 335 308 335 q 447 367 415 335 q 471 471 471 425 q 457 540 471 503 q 340 508 407 508 q 224 513 304 508 q 110 518 143 518 q 18 494 42 518 q 10 340 10 390 m -4 294 l -4 326 q 6 493 -4 376 q 51 524 26 517 q 124 532 75 532 q 240 527 158 532 q 354 522 321 522 q 456 550 414 522 q 485 568 471 557 q 513 457 513 506 q 485 338 513 406 l 478 328 l 500 342 q 511 239 511 290 q 489 108 511 179 q 342 69 450 69 q 239 77 318 69 q 138 85 160 85 q 31 74 79 85 q -3 68 3 68 l -3 101 q 11 271 -3 160 q 76 303 44 296 q 28 299 38 300 q 12 296 25 297 q -4 294 -1 294 z "},">":{"ha":497,"x_min":-28,"x_max":538,"o":"m 1 196 q 86 96 42 140 q 164 53 129 53 q 203 69 186 53 q 483 349 324 204 q 390 468 443 389 q 299 586 336 547 q 172 658 226 658 q 86 616 139 658 q 1 499 33 574 q 92 453 36 492 q 188 353 147 414 q 1 196 68 288 m -28 468 l -15 499 q 78 627 18 579 q 183 675 138 675 q 333 590 249 675 q 424 472 372 549 q 538 333 475 396 q 499 298 526 324 q 461 263 471 272 q 428 233 451 254 q 394 200 406 211 q 361 168 382 189 q 324 129 340 147 q 284 87 307 111 q 238 36 261 63 q 178 11 213 11 q 79 63 131 11 q -22 185 25 117 l -10 203 q 160 349 56 292 q -28 468 79 450 z "},"?":{"ha":407,"x_min":-12,"x_max":438,"o":"m -12 768 q 208 800 126 800 q 376 752 315 800 q 438 614 438 704 q 331 471 438 536 q 326 464 326 469 q 341 469 329 465 q 356 475 353 474 q 379 362 375 400 q 383 215 383 324 q 233 190 311 199 q 300 151 275 182 q 325 75 325 121 q 278 -28 325 13 q 167 -69 232 -69 q 90 -35 122 -69 q 58 47 58 0 q 88 138 58 100 q 161 188 117 175 q 38 227 74 190 q 3 310 3 264 q 69 439 3 378 q 122 532 122 486 q 114 557 122 547 q 94 567 106 567 q 69 563 82 567 q 47 553 56 558 q 24 540 39 549 q 0 528 8 532 q -12 768 -12 711 m 75 58 q 99 -4 75 22 q 156 -31 124 -31 q 248 2 210 -31 q 286 86 286 35 q 262 151 286 126 q 192 176 238 176 q 110 144 144 176 q 75 58 75 113 m 6 754 l 14 583 q 83 606 58 606 q 124 587 107 606 q 140 542 140 568 q 81 429 140 483 q 51 401 61 411 q 31 368 42 390 q 21 321 21 346 q 160 225 21 225 q 344 250 217 225 q 326 449 344 382 q 274 439 297 439 q 251 451 251 439 q 306 506 251 474 q 399 625 399 564 q 346 742 399 703 q 197 782 293 782 q 147 779 174 782 q 103 773 119 776 q 53 763 86 769 q 6 754 21 757 z "},"@":{"ha":715,"x_min":-12,"x_max":747,"o":"m 1 307 q 98 49 1 157 q 371 -58 194 -58 q 563 10 493 -58 q 564 26 564 21 q 560 40 564 33 q 392 -3 471 -3 q 192 71 269 -3 q 114 276 114 144 q 188 460 114 390 q 382 529 261 529 q 527 480 472 529 q 582 349 582 431 q 554 192 582 257 q 471 128 526 128 q 438 135 456 128 l 493 375 q 519 460 506 431 l 499 460 q 444 429 469 429 q 399 439 435 429 q 335 449 364 449 q 223 388 275 449 q 171 267 171 328 q 223 124 171 178 q 350 71 275 71 q 433 94 397 71 q 508 74 463 74 q 642 158 578 74 q 706 344 706 242 q 613 598 706 497 q 379 699 519 699 q 103 581 204 699 q 1 307 1 464 m 300 249 q 322 299 300 278 q 375 319 344 319 q 392 318 381 319 q 385 230 389 289 q 378 142 381 171 q 300 249 300 167 m 485 142 q 543 197 518 142 q 568 335 568 251 q 550 411 568 381 q 535 356 540 376 q 510 248 529 333 q 485 142 490 163 m -12 293 q 13 449 -12 375 q 88 583 39 524 q 216 678 138 643 q 393 713 294 713 q 647 604 546 713 q 747 331 747 496 q 701 163 747 242 q 590 50 656 85 q 606 13 606 40 q 601 -18 606 7 q 385 -100 519 -100 q 92 15 196 -100 q -12 293 -12 131 m 156 278 l 158 274 q 226 403 168 343 q 349 463 283 463 q 417 453 381 463 q 458 443 454 443 q 492 465 469 443 q 396 488 450 488 q 226 431 290 488 q 156 278 161 374 m 200 106 q 406 11 265 11 q 517 32 461 11 q 447 49 479 35 q 364 29 408 29 q 203 107 264 29 l 200 106 m 342 235 q 367 172 342 193 q 375 276 369 196 q 342 235 342 268 z "},"A":{"ha":842,"x_min":-14,"x_max":853,"o":"m 264 313 q 277 360 264 339 q 313 385 290 381 l 404 244 l 399 242 q 371 261 381 258 q 327 269 353 265 q 291 275 301 272 q 272 286 281 278 q 264 313 264 294 m 3 51 q 33 6 3 25 q 108 -14 64 -14 q 189 3 156 -14 q 222 42 222 19 q 232 188 222 144 q 408 166 365 183 q 483 72 450 149 q 504 3 503 22 q 610 -9 539 0 q 731 -18 681 -18 q 788 6 763 -18 q 814 51 814 31 q 783 164 814 100 q 716 276 751 228 q 615 406 681 324 q 519 531 550 489 q 474 639 479 588 q 347 640 392 650 q 247 586 303 629 q 139 190 247 381 q 63 122 124 164 q 3 51 3 79 m 303 301 q 303 296 303 299 l 304 293 q 349 285 311 289 q 338 301 346 289 q 322 324 329 314 q 314 338 315 335 q 303 301 303 322 m -14 40 q 14 103 -14 72 q 75 150 31 119 q 124 196 110 171 q 229 575 229 381 l 229 593 q 315 647 278 631 q 413 663 353 663 q 510 651 432 663 l 513 631 q 553 536 519 582 q 653 406 585 492 q 756 272 721 319 q 822 159 790 225 q 853 40 853 93 q 819 -24 853 8 q 742 -57 785 -57 q 617 -47 689 -57 q 514 -36 553 -39 l 490 -35 q 488 -11 490 -35 q 469 51 485 11 q 409 129 442 115 q 265 147 376 143 q 261 31 261 125 q 219 -29 261 -6 q 119 -53 178 -53 q 26 -26 65 -53 q -14 40 -14 0 z "},"B":{"ha":654,"x_min":-19,"x_max":676,"o":"m 269 229 q 292 228 278 228 q 347 267 347 228 q 297 317 347 306 q 269 229 283 258 m -19 -62 l -1 -6 q 47 324 47 171 q 29 646 47 476 l 26 672 l 53 679 q 135 714 78 685 q 258 767 193 743 q 386 790 324 790 q 533 739 472 790 q 594 593 594 688 q 525 429 594 488 q 633 351 590 401 q 676 231 676 300 q 576 22 676 96 q 338 -51 476 -51 q 228 -35 292 -51 q 144 -18 164 -18 q 90 -23 117 -18 q 54 -31 64 -28 q 14 -48 44 -35 q -19 -62 -17 -61 m 219 226 q 247 290 232 244 q 261 360 261 335 q 333 338 303 360 q 364 278 364 315 q 281 211 364 211 q 219 226 243 211 m 257 538 q 303 558 288 558 q 331 529 331 558 q 307 481 331 504 q 261 449 283 457 q 257 538 257 519 m 17 -1 q 133 21 69 21 q 224 4 161 21 q 326 -12 288 -12 q 547 53 457 -12 q 638 242 638 119 q 583 363 638 314 q 453 433 528 413 q 531 502 507 465 q 556 604 556 539 q 503 730 556 686 q 375 774 451 774 q 256 749 318 774 q 138 696 194 725 q 47 661 81 667 q 67 335 67 479 q 17 -1 67 175 z "},"C":{"ha":582,"x_min":-8,"x_max":604,"o":"m 8 340 q 88 146 8 219 q 282 72 167 72 q 536 175 424 72 q 508 214 524 201 q 413 156 471 178 q 301 133 356 133 q 214 159 247 133 q 181 239 181 185 q 215 316 181 285 q 297 347 249 347 q 450 292 375 347 q 493 472 469 389 q 527 563 503 507 q 558 635 551 618 l 553 635 q 511 581 543 604 q 450 557 479 557 q 347 571 407 557 q 244 585 288 585 q 79 509 150 585 q 8 340 8 433 m -8 331 q 64 525 -8 447 q 253 603 136 603 q 361 588 300 603 q 461 574 422 574 q 504 591 479 574 q 538 633 529 608 q 542 644 539 636 l 543 651 l 604 651 q 531 453 551 529 q 481 233 500 349 q 454 253 479 235 q 414 280 429 271 q 369 299 399 289 q 308 308 339 308 q 245 285 271 308 q 219 228 219 261 q 313 150 219 150 q 415 171 363 150 q 500 224 467 192 q 518 240 514 238 l 536 225 q 560 200 550 213 q 581 157 572 181 q 293 33 457 33 q 79 115 167 33 q -8 331 -8 197 z "},"D":{"ha":689,"x_min":3,"x_max":708,"o":"m 226 240 q 240 313 226 279 q 298 294 276 313 q 319 246 319 276 q 292 199 319 219 q 232 176 265 179 q 226 240 226 221 m 21 535 q 26 353 21 497 q 31 136 31 210 q 26 21 31 67 q 136 29 85 29 q 235 17 169 29 q 360 6 301 6 q 581 104 493 6 q 669 350 669 203 q 591 540 669 461 q 401 619 513 619 q 217 590 331 619 q 33 553 104 561 q 21 535 21 550 m 265 229 q 267 199 265 214 q 303 235 303 214 q 271 271 303 264 q 265 229 265 246 m 3 524 q 10 557 3 546 q 40 571 18 568 q 223 609 110 581 q 413 638 336 638 q 622 550 535 638 q 708 339 708 463 q 613 74 708 182 q 371 -33 517 -33 q 244 -22 310 -33 q 147 -10 178 -10 q 42 -18 97 -10 l 7 -22 l 10 11 q 14 125 14 78 q 8 341 14 197 q 3 524 3 485 z "},"E":{"ha":493,"x_min":-3,"x_max":504,"o":"m -3 600 q 43 643 -3 643 q 208 622 131 622 q 288 624 249 622 q 356 626 328 625 q 405 629 383 628 q 438 632 426 631 q 451 633 450 633 q 503 506 503 574 q 471 356 503 436 q 445 376 465 360 q 406 398 425 392 q 356 404 388 404 q 339 403 347 404 q 364 315 364 369 q 360 246 364 282 l 351 238 q 436 286 396 250 q 449 299 439 289 q 463 311 460 308 l 479 278 q 504 157 504 224 q 486 22 504 76 q 215 10 324 10 q 32 15 114 10 q 17 16 29 15 q 3 17 6 17 l 6 46 q 17 134 10 83 q 29 224 25 185 q 33 308 33 264 q -3 600 33 461 m 19 596 q 50 336 50 469 q 45 228 50 281 q 32 122 40 175 q 22 54 24 68 q 204 49 104 49 q 454 60 321 49 q 465 168 465 99 q 443 276 465 231 q 292 217 376 217 q 186 232 236 217 q 196 267 186 244 q 251 251 232 251 q 322 271 297 251 q 325 326 325 313 q 306 397 325 371 q 207 382 246 382 q 203 421 203 397 q 344 443 293 443 q 444 413 400 443 q 464 517 464 474 q 429 615 464 575 q 197 606 300 606 q 101 613 151 606 q 43 619 50 619 q 19 596 19 619 z "},"F":{"ha":542,"x_min":-3,"x_max":571,"o":"m 17 89 q 48 81 31 85 q 83 76 65 78 q 139 69 100 74 q 215 60 178 65 q 232 225 229 149 q 390 236 357 228 q 415 372 415 332 q 404 383 415 383 q 332 376 382 383 q 265 368 282 368 q 240 375 253 368 q 228 392 228 382 q 239 468 228 443 q 292 481 260 481 q 385 461 326 481 q 458 442 444 442 q 497 456 482 444 q 513 483 513 468 l 531 599 q 449 677 514 658 q 275 696 385 696 q 25 644 158 696 q 36 357 36 522 q 17 89 36 206 m -3 58 q 19 346 19 172 q 8 631 19 510 q 7 642 8 633 q 6 651 6 650 q 286 713 149 713 q 377 709 340 713 q 458 695 414 706 q 531 660 503 685 q 569 596 558 635 l 571 589 q 561 531 568 576 q 551 469 554 485 q 524 422 549 438 q 472 404 500 407 l 471 403 l 469 403 q 391 422 450 403 q 303 442 332 442 q 272 438 285 442 q 267 388 267 415 q 276 385 269 385 q 341 392 293 385 q 415 400 389 400 q 443 389 432 400 q 454 361 454 378 q 428 217 454 317 q 424 201 428 217 q 408 197 419 200 q 271 186 365 186 q 253 44 265 122 q 251 31 253 42 q 249 18 250 21 l 222 22 q 146 32 185 28 q 88 38 107 36 q 51 44 69 40 q 19 51 33 47 l -3 58 z "},"G":{"ha":667,"x_min":-17,"x_max":674,"o":"m 0 372 q 67 153 0 246 q 250 60 133 60 q 389 83 336 60 q 364 22 372 53 q 499 31 422 31 q 539 28 511 31 q 578 26 567 26 q 615 49 601 26 q 633 108 631 74 q 635 203 635 143 q 619 408 635 301 q 469 353 551 353 q 403 367 444 353 q 336 381 361 381 q 320 375 326 381 q 312 358 314 369 q 309 337 310 346 q 308 310 308 328 q 349 301 332 308 q 367 283 367 293 q 333 242 367 261 q 258 222 300 222 q 182 258 208 222 q 156 358 156 294 q 193 425 156 400 q 278 450 231 450 q 362 431 317 450 q 438 411 407 411 q 484 430 468 411 q 511 483 500 449 q 538 572 526 531 q 561 665 549 614 q 583 753 574 717 q 535 688 561 710 q 469 667 508 667 q 355 687 422 667 q 251 707 288 707 q 69 606 138 707 q 0 372 0 504 m 194 347 q 269 239 194 239 q 344 265 321 239 q 318 271 328 271 l 292 272 q 291 296 292 278 q 290 318 290 314 q 311 385 290 367 q 347 397 325 397 q 353 397 349 397 l 357 396 q 289 411 321 411 q 222 392 250 411 q 194 347 194 372 m -17 361 q 56 619 -17 514 q 263 724 128 724 q 374 703 307 724 q 481 683 442 683 q 575 769 531 683 l 626 750 q 547 464 557 493 q 449 372 517 374 q 481 369 458 369 q 519 374 500 369 q 553 384 539 379 q 585 401 567 389 q 610 417 603 413 q 633 436 617 422 l 650 449 q 674 192 674 288 q 671 96 674 165 q 650 22 668 53 q 589 -12 628 -12 q 549 -10 576 -12 q 510 -8 521 -8 q 379 -17 433 -8 l 335 -24 l 350 28 q 261 21 311 21 q 56 124 129 21 q -17 361 -17 226 z "},"H":{"ha":649,"x_min":3,"x_max":669,"o":"m 22 53 q 59 44 39 47 q 127 37 79 42 q 221 25 175 32 q 238 181 236 115 q 393 185 388 185 q 377 125 390 164 q 364 67 364 86 q 379 31 364 44 q 417 18 394 18 q 597 1 504 18 q 588 112 597 10 q 578 272 578 214 q 625 617 578 443 q 458 647 531 647 q 411 629 429 647 q 393 581 393 611 l 393 333 q 331 326 374 332 q 271 319 288 319 q 246 326 258 319 q 233 343 233 333 q 276 640 233 403 q 26 589 160 640 q 42 308 42 471 q 22 53 42 169 m 3 24 q 25 297 25 142 q 20 453 25 382 q 10 560 15 524 q 6 599 6 597 q 40 610 13 601 q 83 624 68 619 q 126 638 97 629 q 178 650 156 646 q 230 658 200 654 q 288 661 260 661 l 321 661 q 315 624 321 651 q 272 338 274 397 q 282 336 276 336 q 332 342 293 336 q 376 347 371 347 q 376 456 376 382 q 375 572 375 531 q 400 640 375 614 q 467 665 425 665 q 538 659 501 665 q 598 647 575 653 q 644 633 621 640 q 669 624 667 625 q 667 610 669 621 q 663 597 664 600 q 617 261 617 432 q 626 103 617 206 q 636 -10 636 1 l 636 -43 q 428 -21 525 -21 q 371 1 394 -21 q 347 56 347 22 q 368 143 347 76 q 276 142 336 142 q 258 10 275 114 q 257 -4 258 7 q 254 -18 256 -15 q 142 -3 233 -12 q 3 24 51 6 z "},"I":{"ha":310,"x_min":-17,"x_max":306,"o":"m 11 535 q 58 310 58 475 q 50 217 58 278 q 33 106 42 156 q 25 56 25 57 q 81 60 51 60 q 151 58 111 60 q 217 56 192 56 q 253 69 239 56 q 267 104 267 82 q 253 169 267 110 q 239 243 239 228 q 249 360 239 283 q 258 497 258 436 q 240 546 258 528 q 192 564 221 564 q 11 535 140 564 m 47 683 q 69 626 47 650 q 122 601 92 601 q 211 632 175 601 q 247 711 247 663 q 158 782 247 782 q 80 755 113 782 q 47 683 47 728 m -17 525 l -15 543 q 97 569 79 567 q 49 610 68 582 q 31 672 31 639 q 71 763 31 728 q 169 799 111 799 q 256 771 226 799 q 286 700 286 743 q 210 579 286 617 q 272 551 247 576 q 297 486 297 525 q 288 347 297 424 q 278 232 278 269 q 292 166 278 224 q 306 93 306 108 q 283 38 306 58 q 228 17 260 17 q 160 19 201 17 q 90 21 118 21 q 38 17 61 21 l 10 13 l 7 40 q 24 156 7 51 q 42 299 42 260 q 33 410 42 365 q 14 476 24 456 q -17 525 4 496 z "},"J":{"ha":471,"x_min":-7,"x_max":501,"o":"m 11 582 q 28 481 11 525 q 144 513 78 513 q 231 503 178 513 q 214 244 214 403 q 193 203 214 219 q 147 188 172 188 q 50 219 114 188 l 42 26 q 103 13 65 22 q 172 -3 140 3 q 233 -10 203 -10 q 392 47 326 -10 q 458 185 458 104 q 450 354 458 238 q 442 506 442 471 q 457 717 442 635 q 313 731 421 717 q 156 746 206 746 q 39 706 68 746 q 11 582 11 669 m -7 571 q 26 713 -7 668 q 167 764 64 764 q 326 749 218 764 q 468 733 433 733 l 501 733 q 481 494 481 629 q 489 345 481 463 q 497 174 497 228 q 422 16 497 81 q 244 -49 347 -49 q 182 -43 211 -49 q 113 -28 153 -37 q 47 -12 74 -18 l 24 -7 l 36 253 l 75 233 q 158 204 131 204 q 185 213 174 204 q 197 233 197 221 q 210 469 197 376 q 156 474 181 474 q 22 431 78 474 q -7 571 -7 500 z "},"K":{"ha":583,"x_min":-18,"x_max":606,"o":"m 8 668 q 64 379 64 546 q 56 278 64 325 q 33 174 47 232 q 11 76 18 117 q 131 44 68 44 q 222 92 201 44 l 219 265 q 283 202 229 254 q 364 108 338 150 q 411 -22 411 38 q 450 2 415 -19 q 505 38 485 24 q 546 76 525 53 q 567 117 567 99 q 544 174 567 147 q 369 360 489 243 q 519 461 463 401 q 567 569 567 510 q 525 637 567 611 q 447 663 483 663 q 378 618 417 663 q 324 555 349 586 q 269 483 300 524 q 217 415 238 442 q 225 463 225 443 q 226 542 225 469 q 225 621 226 614 q 203 660 225 647 q 111 676 168 676 q 8 668 69 676 m -18 681 q 122 694 79 694 q 263 610 261 694 q 264 499 264 554 q 365 625 322 576 q 458 681 414 681 q 554 647 503 681 q 606 558 606 614 q 593 491 606 518 q 550 431 581 464 q 428 340 499 375 q 576 181 518 253 q 606 106 606 144 q 596 68 606 86 q 563 30 586 50 q 520 -3 540 10 q 459 -43 500 -17 q 394 -86 418 -69 l 394 -33 q 351 82 394 17 q 261 185 328 118 l 261 75 l 260 72 q 257 65 258 68 q 252 56 256 61 q 244 44 249 50 q 233 33 239 39 q 217 23 226 28 q 198 14 208 18 q 173 8 188 10 q 142 6 158 6 q -12 51 69 6 q 13 169 -3 110 q 37 272 29 229 q 44 368 44 314 q -18 681 44 542 z "},"L":{"ha":489,"x_min":3,"x_max":517,"o":"m 19 657 q 32 540 19 626 q 44 388 44 454 q 33 179 44 272 q 22 58 22 86 q 168 44 81 58 q 310 29 256 31 q 456 79 436 29 q 478 222 478 138 q 463 315 478 276 q 346 283 413 283 q 260 293 303 283 q 267 368 264 335 q 270 435 269 401 q 271 488 271 469 q 269 544 271 506 q 266 594 267 583 q 261 656 265 606 q 256 722 257 707 q 117 732 199 732 q 49 713 78 732 q 19 657 19 694 m 3 649 q 36 724 3 697 q 125 750 69 750 q 293 736 208 750 l 294 714 q 308 515 307 564 q 301 307 310 467 q 357 301 343 301 q 395 305 378 301 q 427 315 413 308 q 451 327 442 322 q 471 341 460 332 q 485 351 482 350 q 500 314 486 349 q 517 211 517 267 q 493 58 517 122 q 321 -10 468 -10 q 176 6 263 -8 q 33 19 89 19 l 6 19 l 6 47 q 17 172 6 81 q 28 376 28 263 q 15 528 28 443 q 3 649 3 614 z "},"M":{"ha":833,"x_min":-12,"x_max":867,"o":"m 4 90 q 19 60 4 76 q 67 31 35 43 q 211 24 117 21 l 310 263 q 411 81 339 163 q 536 244 501 149 q 585 94 549 200 q 628 -21 621 -11 q 685 19 649 4 q 752 38 722 33 q 805 56 782 42 q 828 100 828 71 q 804 217 819 146 q 747 433 789 289 q 668 628 704 576 q 510 624 553 628 l 411 431 q 400 426 404 417 q 350 528 388 446 q 293 622 313 610 l 197 619 q 144 604 149 619 q 67 343 129 563 q 4 90 4 124 m -12 79 q 46 321 -12 114 q 128 601 104 528 q 133 617 132 614 q 154 628 135 619 q 208 636 174 636 q 268 637 244 636 q 301 638 292 638 q 313 639 310 639 q 342 613 329 629 q 362 580 354 596 q 385 528 369 564 q 414 467 401 493 q 501 640 492 619 q 694 644 560 644 q 782 442 739 581 q 846 196 825 303 l 867 89 q 842 28 867 50 q 786 2 818 7 q 717 -15 754 -3 q 661 -50 679 -28 l 639 -78 l 617 -49 q 542 158 606 -35 q 418 32 504 99 q 321 174 353 107 l 242 -14 l 224 -15 q 69 -7 133 -18 q 9 31 31 7 q -12 79 -12 54 z "},"N":{"ha":731,"x_min":-4,"x_max":747,"o":"m 18 56 q 113 28 60 28 q 193 47 158 28 q 215 244 215 132 q 208 325 215 286 q 381 169 293 294 q 482 -58 469 43 q 572 -67 510 -67 q 650 -46 606 -67 q 687 166 672 -6 q 706 489 701 338 l 708 639 q 701 817 708 719 q 694 826 700 818 q 685 837 688 833 q 674 847 682 840 q 661 858 667 854 q 647 867 656 861 q 628 875 638 872 q 608 880 619 878 q 583 882 596 882 q 496 869 571 882 q 533 649 529 810 q 506 294 538 488 q 67 643 315 643 q 24 621 24 643 q 40 478 24 563 q 57 333 57 394 q 18 56 57 219 m -4 32 l 0 51 q 39 322 39 211 q 22 465 39 379 q 6 610 6 550 q 20 649 6 638 q 76 661 35 661 q 500 365 313 661 q 519 586 515 493 q 510 738 522 679 q 492 818 499 797 q 469 875 486 839 q 596 899 532 899 q 623 897 610 899 q 648 890 636 894 q 669 881 660 885 q 688 869 679 876 q 703 857 697 863 q 717 844 710 851 q 726 833 724 836 q 733 822 729 829 l 739 817 q 747 628 747 704 q 744 450 747 567 q 725 152 742 333 q 682 -79 708 -29 q 583 -106 621 -106 q 468 -90 517 -106 q 385 119 456 19 q 253 264 315 219 q 253 249 253 258 q 254 233 254 239 q 228 17 254 114 q 124 -11 176 -11 q 14 19 64 -11 l -4 32 z "},"O":{"ha":517,"x_min":-11,"x_max":536,"o":"m 100 183 q 113 217 100 203 q 146 231 126 231 q 179 222 165 231 q 193 200 193 214 q 181 169 193 182 q 151 156 169 156 q 115 164 131 156 q 100 183 100 172 m 6 264 q 82 83 6 122 l 65 75 q 126 31 86 47 q 207 14 167 14 q 417 76 336 14 q 497 244 497 138 q 411 397 497 333 q 204 461 325 461 q 77 405 132 461 q 6 264 22 349 m 139 178 q 163 172 150 172 q 176 186 176 172 q 157 192 171 192 q 139 178 142 192 m -11 253 l -11 256 l -11 258 q 69 419 8 360 q 215 478 129 478 q 441 408 346 478 q 536 233 536 338 q 449 46 536 117 q 218 -25 363 -25 q 127 -6 174 -25 q 54 47 81 13 q 32 76 33 75 l 39 79 q -11 253 -11 136 z "},"P":{"ha":679,"x_min":-6,"x_max":706,"o":"m 240 389 q 251 451 240 422 q 299 444 276 451 q 322 418 322 436 q 299 375 322 393 q 243 357 275 357 q 240 389 240 376 m 11 53 q 115 -3 11 -3 q 222 22 175 -3 q 251 168 251 81 q 246 285 251 222 q 371 272 296 272 q 574 345 482 272 q 667 544 667 418 q 597 691 667 633 q 426 749 526 749 q 241 701 358 749 q 44 644 124 654 q 32 626 32 642 q 41 483 32 569 q 50 332 50 396 q 40 216 50 282 q 21 103 31 150 q 11 53 11 57 m 279 378 q 306 403 304 389 q 282 410 294 408 q 279 378 279 397 m -6 42 q 4 95 -6 47 q 24 208 14 143 q 33 321 33 272 q 24 469 33 382 q 15 615 15 556 q 47 661 15 656 q 245 719 126 671 q 438 767 364 767 q 626 701 547 767 q 706 533 706 635 q 604 314 706 394 q 382 233 503 233 q 288 239 325 233 q 290 157 290 206 q 258 -1 290 63 l 254 -10 q 126 -42 201 -42 q 24 -17 53 -42 q -6 42 -6 8 z "},"Q":{"ha":485,"x_min":-15,"x_max":526,"o":"m 17 56 q 153 -49 46 4 q 333 -103 261 -103 q 421 -48 389 -103 q 482 140 453 7 l 478 142 q 430 72 454 94 q 367 49 406 49 q 278 67 338 49 q 173 101 219 86 q 81 108 126 117 q 17 56 35 100 m 97 361 q 109 389 97 378 q 136 400 121 400 q 165 392 153 400 q 176 375 176 385 q 166 349 176 360 q 142 339 156 339 q 110 346 124 339 q 97 361 97 353 m 3 403 q 79 222 3 261 l 63 214 q 175 178 89 178 q 383 234 300 178 q 467 383 467 290 q 389 528 467 469 q 188 586 311 586 q 69 534 121 586 q 3 403 18 482 m -4 44 l 1 57 q 76 124 24 111 q 178 121 128 136 q 290 85 229 106 q 378 65 351 65 q 425 83 407 65 q 464 143 443 100 l 475 164 l 526 147 q 524 135 526 144 q 521 124 522 126 q 453 -77 490 -12 q 344 -142 417 -142 q 150 -84 264 -142 q 4 31 36 -26 l -4 44 m -15 396 q 57 544 3 488 q 199 601 111 601 q 419 536 332 601 q 506 372 506 471 q 415 203 506 268 q 186 139 325 139 q 51 186 86 139 q 29 215 50 188 q 33 216 31 215 q 36 218 35 217 q -15 396 -15 278 z "},"R":{"ha":664,"x_min":-21,"x_max":701,"o":"m 253 475 q 324 468 296 475 q 353 450 353 461 q 341 422 353 432 q 312 406 329 411 q 269 396 294 400 q 260 394 263 394 l 253 475 m 0 19 q 235 -3 107 -3 q 269 13 257 -3 q 281 50 281 28 q 263 317 281 196 q 361 198 338 263 q 385 -14 385 133 q 471 -42 422 -42 q 603 26 550 -42 q 661 175 656 94 q 575 193 603 175 q 538 257 547 211 q 493 344 526 311 q 406 376 460 376 q 544 453 492 400 q 596 579 596 507 q 545 678 596 636 q 424 721 494 721 q 288 684 369 721 q 151 647 206 647 q 113 649 131 647 q 72 654 94 651 q 33 658 50 657 q 42 555 36 617 q 51 444 47 493 q 54 340 54 396 q 46 235 54 285 q 22 124 38 185 q 0 19 7 64 m -21 -14 l -17 13 q 6 119 -8 58 q 29 228 21 181 q 38 329 38 275 q 34 432 38 383 q 25 542 31 481 q 17 646 19 603 q 15 663 17 650 q 14 678 14 675 q 31 676 17 678 q 47 675 44 675 q 100 669 63 674 q 163 664 138 664 q 293 701 210 664 q 435 738 376 738 q 575 687 515 738 q 635 568 635 636 q 501 369 635 442 q 576 251 560 332 q 602 205 583 218 q 672 192 621 192 l 701 192 q 701 178 701 190 q 700 163 700 165 q 633 -4 693 72 q 482 -81 574 -81 q 379 -47 424 -81 q 374 -43 378 -47 q 368 -39 369 -39 l 368 -25 q 356 143 368 88 q 311 238 344 199 q 319 39 319 158 q 300 -17 319 7 q 246 -42 281 -42 q 6 -19 117 -42 l -21 -14 z "},"S":{"ha":451,"x_min":0,"x_max":474,"o":"m 18 26 q 79 13 42 22 q 148 -3 117 3 q 210 -10 179 -10 q 369 47 303 -10 q 435 185 435 104 q 404 274 435 235 q 324 328 374 313 q 247 361 256 349 q 244 371 244 367 q 264 383 244 383 q 336 374 304 383 q 403 597 354 507 q 192 625 261 625 q 82 589 129 625 q 35 503 35 553 q 93 367 35 429 q 153 231 153 303 q 136 185 153 204 q 96 167 119 167 q 74 172 85 167 q 49 185 63 176 q 26 199 35 194 l 18 26 m 0 -7 l 10 189 q 11 210 10 193 q 13 232 13 228 l 51 213 q 74 199 61 207 q 94 188 86 192 q 107 183 101 183 q 127 194 118 183 q 136 219 136 204 q 83 336 136 278 q 18 492 18 407 q 73 603 18 564 q 203 642 128 642 q 419 614 276 642 q 439 609 424 613 q 457 606 454 606 q 449 589 456 601 q 439 574 442 576 q 375 358 390 483 q 373 346 375 357 q 371 332 371 335 q 446 267 418 308 q 474 174 474 225 q 399 16 474 81 q 221 -49 324 -49 q 158 -43 188 -49 q 90 -28 129 -37 q 24 -12 50 -18 l 0 -7 z "},"T":{"ha":700,"x_min":-11,"x_max":736,"o":"m 7 553 q 24 460 7 503 q 139 492 74 492 q 226 482 183 492 q 210 249 210 382 q 213 168 210 210 q 222 78 217 126 q 231 -3 228 29 q 369 -12 288 -12 q 438 6 408 -12 q 467 63 467 25 q 455 183 467 96 q 440 333 443 271 q 438 416 440 356 q 435 506 436 476 q 508 497 454 504 q 593 489 561 489 q 672 531 661 489 q 697 708 697 626 q 671 735 697 735 q 590 726 646 735 q 497 717 533 717 q 334 731 439 717 q 176 746 229 744 q 31 694 50 746 q 7 553 7 632 m -11 542 q 11 699 -11 640 q 188 768 38 768 q 349 750 246 767 q 508 733 453 733 q 596 742 540 733 q 682 751 651 751 q 719 738 704 751 q 736 697 736 722 q 710 514 736 624 q 604 450 693 450 q 474 464 571 450 q 477 388 475 436 q 479 322 479 339 q 494 176 482 263 q 506 51 506 89 q 467 -26 506 0 q 381 -51 428 -51 q 215 -37 285 -51 l 214 -17 q 206 63 211 13 q 197 155 200 113 q 193 238 193 197 q 206 449 193 361 q 150 453 176 453 q 50 426 89 453 l 21 407 l 8 439 q -11 542 -11 490 z "},"U":{"ha":467,"x_min":-4,"x_max":489,"o":"m 17 561 q 33 506 19 546 q 47 447 47 467 q 40 363 47 432 q 32 247 32 294 q 85 133 32 179 q 226 86 138 86 q 389 192 328 86 q 450 469 450 299 q 433 575 450 531 q 394 619 417 619 q 350 589 358 619 q 369 542 353 576 q 386 486 386 507 q 365 410 386 442 q 314 379 344 379 q 271 435 289 379 q 253 569 253 490 q 215 595 253 585 q 122 606 176 606 q 17 561 39 606 m -4 561 l 1 569 q 133 622 38 622 q 243 607 194 622 q 292 558 292 592 q 299 473 292 511 q 313 418 306 435 q 326 396 321 401 q 356 421 342 399 q 369 475 369 443 q 354 522 369 490 q 335 569 339 553 q 334 572 335 571 q 332 576 333 574 q 335 585 335 582 q 361 622 340 608 q 406 636 382 636 q 467 585 444 636 q 489 458 489 533 q 419 160 489 272 q 238 47 350 47 q 77 101 139 47 q 15 236 15 156 q 23 355 15 286 q 31 435 31 424 q 17 491 31 449 q 0 546 3 533 l -4 561 z "},"V":{"ha":472,"x_min":-11,"x_max":504,"o":"m 7 311 q 32 190 7 278 q 69 72 57 101 q 137 -26 92 15 q 238 -67 182 -67 q 339 76 289 -28 q 421 279 389 182 q 458 421 453 376 l 465 465 q 435 517 465 517 q 347 507 385 517 q 283 456 297 494 q 215 236 229 303 l 161 393 q 89 372 124 386 q 22 338 38 351 q 7 311 7 325 m -11 303 q 11 347 -11 326 q 69 381 33 368 q 134 402 106 394 q 190 414 163 410 l 222 318 l 267 453 q 350 524 285 508 q 446 533 392 533 q 488 511 472 533 q 504 454 504 489 q 497 398 504 440 q 457 256 489 356 q 375 53 425 157 q 258 -106 319 -58 q 128 -57 178 -106 q 54 51 78 -8 l 47 72 q 31 124 40 94 q 11 188 21 154 q -5 253 1 221 q -11 303 -11 285 z "},"W":{"ha":626,"x_min":-6,"x_max":657,"o":"m 11 311 q 75 72 11 253 q 88 37 83 47 q 106 15 93 26 q 136 4 118 4 l 175 6 q 228 35 208 8 q 274 104 238 49 q 277 106 275 107 q 281 101 279 104 l 318 -3 q 400 -7 361 -7 q 492 76 451 -7 q 563 244 539 175 q 601 376 583 304 q 618 465 618 447 q 588 517 618 517 q 494 504 542 517 q 431 453 444 492 q 367 328 406 379 q 358 356 363 339 q 351 381 354 374 q 344 398 349 389 q 335 410 340 407 q 324 415 331 414 l 303 414 q 277 391 288 414 q 253 337 267 368 q 221 289 240 306 l 175 396 q 96 374 132 389 q 11 311 11 339 m -6 300 q 15 351 -6 335 q 96 390 35 367 q 201 415 144 410 q 240 335 229 360 q 253 365 244 343 q 267 397 261 386 q 284 419 272 408 q 313 431 296 429 l 336 432 q 388 385 375 425 q 415 450 404 418 q 446 501 428 488 q 500 522 464 514 q 599 533 539 533 q 641 511 625 533 q 657 454 657 489 q 638 353 657 431 q 600 224 618 276 q 528 53 568 138 q 411 -46 481 -46 q 308 -40 381 -46 q 306 -32 308 -39 q 303 -24 303 -25 q 282 36 285 31 q 276 26 279 32 q 268 15 272 21 q 263 7 264 10 q 188 -33 235 -31 l 149 -35 q 101 -19 121 -36 q 74 14 81 -1 q 60 53 67 29 q -6 300 -6 257 z "},"X":{"ha":717,"x_min":-12,"x_max":747,"o":"m 4 43 q 57 -9 4 22 q 157 -40 110 -40 q 203 1 178 -40 q 321 219 275 135 q 467 60 376 150 q 564 -4 528 -4 q 654 53 600 -4 q 708 140 708 110 q 676 188 708 158 q 596 259 644 218 q 522 335 547 300 q 488 360 506 354 q 519 396 503 369 q 610 524 556 449 q 685 628 664 599 q 461 757 533 757 q 404 714 425 742 q 365 659 382 685 q 325 598 347 633 q 289 540 303 563 q 219 611 254 567 q 182 693 183 656 q 109 628 158 668 q 33 560 60 588 q 6 513 6 532 q 28 469 6 494 q 154 339 50 443 q 92 223 133 299 q 27 101 50 147 q 4 43 4 56 m -12 32 q 3 82 -12 49 q 63 195 19 115 q 132 324 107 275 q 18 440 51 401 q -11 501 -11 475 q 8 556 -11 528 q 49 605 26 585 q 122 667 71 625 q 203 736 172 708 q 208 703 203 725 q 236 642 214 682 q 293 569 258 601 q 393 719 372 692 q 458 771 424 757 l 465 774 l 472 774 q 573 738 510 774 q 674 671 636 701 q 733 621 713 640 l 719 600 q 640 490 692 560 q 554 369 589 419 q 542 354 553 368 q 547 349 543 353 q 556 340 554 343 q 633 263 582 304 q 715 189 683 221 q 747 129 747 157 q 685 22 747 88 q 575 -43 624 -43 q 457 29 529 -43 q 338 158 388 99 l 238 -24 q 168 -79 207 -79 q 49 -42 111 -79 q -12 32 -12 -4 z "},"Y":{"ha":590,"x_min":-14,"x_max":626,"o":"m 3 556 q 21 506 3 525 q 93 424 71 450 q 150 336 115 397 q 185 231 185 275 q 181 8 185 75 q 328 -3 238 -3 q 385 28 363 -3 q 408 101 408 58 q 404 208 408 143 q 400 314 400 272 q 425 367 400 336 q 468 416 433 376 q 515 472 503 456 q 549 517 528 488 q 579 570 571 547 q 588 614 588 593 q 572 645 588 632 q 533 658 556 658 q 439 635 478 658 q 465 560 465 606 q 388 392 465 488 q 347 481 364 447 q 301 565 331 515 q 237 639 271 614 q 167 664 203 664 q 51 632 99 664 q 3 556 3 600 m -14 544 q 42 647 -14 613 q 178 681 97 681 q 257 655 219 681 q 325 583 294 629 q 371 507 356 536 q 406 435 386 478 q 449 549 449 494 q 429 606 449 582 q 407 631 415 619 q 436 647 407 631 q 544 675 483 675 q 601 655 576 675 q 626 603 626 635 q 622 570 626 588 q 612 539 617 553 q 594 505 607 525 q 574 474 581 485 q 548 442 567 464 q 523 412 529 419 q 496 381 517 404 q 472 354 475 357 q 463 344 468 350 q 457 338 458 339 q 439 303 439 314 q 443 199 439 264 q 447 90 447 133 q 417 -2 447 38 q 339 -42 386 -42 q 186 -31 246 -42 q 160 -25 169 -25 l 161 -1 q 165 219 165 64 q 11 476 165 307 q -14 544 -14 506 z "},"Z":{"ha":575,"x_min":-24,"x_max":572,"o":"m -4 110 q 15 71 -4 75 q 194 67 96 67 q 429 78 336 67 q 496 131 483 85 q 531 342 521 222 l 522 342 q 294 300 474 300 q 399 438 329 356 q 506 581 468 521 q 529 676 529 618 q 503 701 529 697 q 285 721 397 721 q 101 704 189 721 q 82 682 88 703 q 51 435 51 556 q 204 482 129 482 q 226 481 219 482 q 152 378 197 438 q 73 271 107 319 q 8 163 39 222 q -4 110 -4 139 m -24 96 q -7 164 -24 133 q 49 260 21 218 q 123 361 78 303 q 183 440 168 419 q 76 400 122 429 q 54 387 72 397 q 35 375 36 376 l 35 424 q 65 676 35 547 q 107 722 72 717 q 296 738 189 738 q 519 718 411 738 q 568 665 568 710 q 540 554 568 599 q 440 419 503 494 q 358 318 378 344 q 515 354 478 322 q 519 358 517 356 q 522 363 521 361 l 572 358 q 571 342 572 356 q 569 328 569 329 q 533 113 560 214 q 443 39 517 49 q 206 28 347 28 q 18 32 56 28 q -24 96 -24 43 z "},"[":{"ha":479,"x_min":-11,"x_max":510,"o":"m 6 850 q 18 536 6 819 q 31 186 31 253 q 19 -22 31 69 q 8 -143 8 -114 q 154 -157 67 -143 q 296 -172 242 -171 q 442 -122 422 -172 q 460 -40 460 -76 q 457 -12 460 -26 q 451 10 454 1 q 442 32 449 18 q 435 51 436 46 q 318 19 385 19 q 225 29 268 19 q 231 646 244 228 q 287 637 240 644 q 364 629 333 629 q 443 671 433 629 q 468 835 468 767 q 442 861 468 861 q 337 853 417 861 q 221 846 257 846 q 54 853 65 853 q 6 850 29 853 m -11 863 q 63 868 29 868 q 102 867 79 868 q 163 863 125 865 q 235 860 200 861 q 349 867 268 860 q 456 875 429 875 q 494 859 479 875 q 510 821 510 843 q 483 651 510 760 q 449 606 476 625 q 378 588 421 588 q 274 600 342 588 q 269 39 285 226 q 332 33 319 33 q 433 61 392 33 q 463 81 453 75 q 476 47 467 69 q 488 16 485 24 q 494 -7 490 8 q 500 -32 499 -22 q 501 -54 501 -42 q 482 -146 501 -94 q 310 -214 456 -214 q 165 -199 251 -212 q 22 -185 78 -185 l -7 -185 l -7 -157 q 4 -33 -7 -124 q 15 172 15 58 q 3 520 15 236 q -10 836 -10 804 l -11 863 z "},"\\":{"ha":543,"x_min":-19,"x_max":568,"o":"m 1 500 q 60 407 10 457 q 173 303 83 383 q 288 197 263 222 q 389 58 379 106 q 464 113 426 75 q 526 206 503 151 q 417 346 526 236 q 308 440 403 360 q 196 539 214 521 q 119 628 157 578 q 1 500 53 561 m -19 497 q 133 660 39 565 l 156 631 q 231 544 183 592 q 341 448 247 529 q 450 351 435 367 q 568 192 568 233 l 568 186 q 556 162 565 181 q 543 135 547 143 q 526 110 539 126 q 499 78 514 93 q 414 18 460 39 l 383 6 l 375 38 q 282 164 365 81 q 167 268 257 188 q 54 374 78 349 q -14 479 3 425 l -19 497 z "},"]":{"ha":481,"x_min":-12,"x_max":507,"o":"m 3 843 q 19 649 3 725 q 113 638 61 638 q 239 654 169 638 q 246 38 225 246 q 146 29 196 29 q 36 43 86 29 q 21 -49 21 0 q 28 -117 21 -82 q 175 -162 53 -162 q 312 -156 222 -161 q 463 -150 401 -150 q 451 -22 463 -122 q 440 194 440 78 q 453 544 440 261 q 465 858 465 828 q 375 864 422 864 q 250 860 332 864 q 134 865 214 860 q 29 869 54 869 q 3 843 3 869 m -12 833 q 3 871 -12 857 q 42 885 18 885 q 150 880 69 885 q 264 875 231 875 q 413 881 375 881 q 507 874 450 881 l 507 844 q 494 528 507 813 q 482 181 482 244 q 493 -32 482 67 q 504 -164 504 -131 l 504 -192 l 476 -192 q 327 -197 415 -192 q 189 -204 239 -203 q 15 -140 46 -204 q 6 -53 6 -94 q 21 40 6 -3 l 31 64 q 160 43 78 43 q 229 47 179 43 q 225 606 214 236 q 126 596 171 596 q 28 608 78 596 q 19 610 26 608 q 10 613 11 611 l 7 629 q -12 833 -12 721 z "},"_":{"ha":485,"x_min":-6,"x_max":511,"o":"m -6 -256 l -6 -226 q 3 -15 -6 -90 q 136 21 39 21 q 244 16 171 21 q 351 11 318 11 q 383 13 368 11 q 406 17 397 15 q 429 26 415 19 q 447 35 443 33 q 465 47 450 38 q 482 57 481 56 q 488 42 483 54 q 494 25 493 29 q 511 -83 511 -19 q 485 -222 511 -157 q 339 -261 446 -261 q 238 -256 317 -261 q 135 -250 158 -250 q 24 -254 57 -250 q 9 -255 21 -254 q -6 -256 -3 -256 m 11 -215 q 124 -211 74 -211 q 228 -217 149 -211 q 328 -222 308 -222 q 450 -196 424 -222 q 472 -72 472 -140 q 457 26 472 -12 q 340 -6 407 -6 q 231 -1 304 -6 q 125 4 158 4 q 18 -19 51 4 q 11 -215 11 -106 z "},"a":{"ha":842,"x_min":-14,"x_max":853,"o":"m 264 313 q 277 360 264 339 q 313 385 290 381 l 404 244 l 399 242 q 371 261 381 258 q 327 269 353 265 q 291 275 301 272 q 272 286 281 278 q 264 313 264 294 m 3 51 q 33 6 3 25 q 108 -14 64 -14 q 189 3 156 -14 q 222 42 222 19 q 232 188 222 144 q 408 166 365 183 q 483 72 450 149 q 504 3 503 22 q 610 -9 539 0 q 731 -18 681 -18 q 788 6 763 -18 q 814 51 814 31 q 783 164 814 100 q 716 276 751 228 q 615 406 681 324 q 519 531 550 489 q 474 639 479 588 q 347 640 392 650 q 247 586 303 629 q 139 190 247 381 q 63 122 124 164 q 3 51 3 79 m 303 301 q 303 296 303 299 l 304 293 q 349 285 311 289 q 338 301 346 289 q 322 324 329 314 q 314 338 315 335 q 303 301 303 322 m -14 40 q 14 103 -14 72 q 75 150 31 119 q 124 196 110 171 q 229 575 229 381 l 229 593 q 315 647 278 631 q 413 663 353 663 q 510 651 432 663 l 513 631 q 553 536 519 582 q 653 406 585 492 q 756 272 721 319 q 822 159 790 225 q 853 40 853 93 q 819 -24 853 8 q 742 -57 785 -57 q 617 -47 689 -57 q 514 -36 553 -39 l 490 -35 q 488 -11 490 -35 q 469 51 485 11 q 409 129 442 115 q 265 147 376 143 q 261 31 261 125 q 219 -29 261 -6 q 119 -53 178 -53 q 26 -26 65 -53 q -14 40 -14 0 z "},"b":{"ha":654,"x_min":-19,"x_max":676,"o":"m 269 229 q 292 228 278 228 q 347 267 347 228 q 297 317 347 306 q 269 229 283 258 m -19 -62 l -1 -6 q 47 324 47 171 q 29 646 47 476 l 26 672 l 53 679 q 135 714 78 685 q 258 767 193 743 q 386 790 324 790 q 533 739 472 790 q 594 593 594 688 q 525 429 594 488 q 633 351 590 401 q 676 231 676 300 q 576 22 676 96 q 338 -51 476 -51 q 228 -35 292 -51 q 144 -18 164 -18 q 90 -23 117 -18 q 54 -31 64 -28 q 14 -48 44 -35 q -19 -62 -17 -61 m 219 226 q 247 290 232 244 q 261 360 261 335 q 333 338 303 360 q 364 278 364 315 q 281 211 364 211 q 219 226 243 211 m 257 538 q 303 558 288 558 q 331 529 331 558 q 307 481 331 504 q 261 449 283 457 q 257 538 257 519 m 17 -1 q 133 21 69 21 q 224 4 161 21 q 326 -12 288 -12 q 547 53 457 -12 q 638 242 638 119 q 583 363 638 314 q 453 433 528 413 q 531 502 507 465 q 556 604 556 539 q 503 730 556 686 q 375 774 451 774 q 256 749 318 774 q 138 696 194 725 q 47 661 81 667 q 67 335 67 479 q 17 -1 67 175 z "},"c":{"ha":582,"x_min":-8,"x_max":604,"o":"m 8 340 q 88 146 8 219 q 282 72 167 72 q 536 175 424 72 q 508 214 524 201 q 413 156 471 178 q 301 133 356 133 q 214 159 247 133 q 181 239 181 185 q 215 316 181 285 q 297 347 249 347 q 450 292 375 347 q 493 472 469 389 q 527 563 503 507 q 558 635 551 618 l 553 635 q 511 581 543 604 q 450 557 479 557 q 347 571 407 557 q 244 585 288 585 q 79 509 150 585 q 8 340 8 433 m -8 331 q 64 525 -8 447 q 253 603 136 603 q 361 588 300 603 q 461 574 422 574 q 504 591 479 574 q 538 633 529 608 q 542 644 539 636 l 543 651 l 604 651 q 531 453 551 529 q 481 233 500 349 q 454 253 479 235 q 414 280 429 271 q 369 299 399 289 q 308 308 339 308 q 245 285 271 308 q 219 228 219 261 q 313 150 219 150 q 415 171 363 150 q 500 224 467 192 q 518 240 514 238 l 536 225 q 560 200 550 213 q 581 157 572 181 q 293 33 457 33 q 79 115 167 33 q -8 331 -8 197 z "},"d":{"ha":689,"x_min":3,"x_max":708,"o":"m 226 240 q 240 313 226 279 q 298 294 276 313 q 319 246 319 276 q 292 199 319 219 q 232 176 265 179 q 226 240 226 221 m 21 535 q 26 353 21 497 q 31 136 31 210 q 26 21 31 67 q 136 29 85 29 q 235 17 169 29 q 360 6 301 6 q 581 104 493 6 q 669 350 669 203 q 591 540 669 461 q 401 619 513 619 q 217 590 331 619 q 33 553 104 561 q 21 535 21 550 m 265 229 q 267 199 265 214 q 303 235 303 214 q 271 271 303 264 q 265 229 265 246 m 3 524 q 10 557 3 546 q 40 571 18 568 q 223 609 110 581 q 413 638 336 638 q 622 550 535 638 q 708 339 708 463 q 613 74 708 182 q 371 -33 517 -33 q 244 -22 310 -33 q 147 -10 178 -10 q 42 -18 97 -10 l 7 -22 l 10 11 q 14 125 14 78 q 8 341 14 197 q 3 524 3 485 z "},"e":{"ha":493,"x_min":-3,"x_max":504,"o":"m -3 600 q 43 643 -3 643 q 208 622 131 622 q 288 624 249 622 q 356 626 328 625 q 405 629 383 628 q 438 632 426 631 q 451 633 450 633 q 503 506 503 574 q 471 356 503 436 q 445 376 465 360 q 406 398 425 392 q 356 404 388 404 q 339 403 347 404 q 364 315 364 369 q 360 246 364 282 l 351 238 q 436 286 396 250 q 449 299 439 289 q 463 311 460 308 l 479 278 q 504 157 504 224 q 486 22 504 76 q 215 10 324 10 q 32 15 114 10 q 17 16 29 15 q 3 17 6 17 l 6 46 q 17 134 10 83 q 29 224 25 185 q 33 308 33 264 q -3 600 33 461 m 19 596 q 50 336 50 469 q 45 228 50 281 q 32 122 40 175 q 22 54 24 68 q 204 49 104 49 q 454 60 321 49 q 465 168 465 99 q 443 276 465 231 q 292 217 376 217 q 186 232 236 217 q 196 267 186 244 q 251 251 232 251 q 322 271 297 251 q 325 326 325 313 q 306 397 325 371 q 207 382 246 382 q 203 421 203 397 q 344 443 293 443 q 444 413 400 443 q 464 517 464 474 q 429 615 464 575 q 197 606 300 606 q 101 613 151 606 q 43 619 50 619 q 19 596 19 619 z "},"f":{"ha":542,"x_min":-3,"x_max":571,"o":"m 17 89 q 48 81 31 85 q 83 76 65 78 q 139 69 100 74 q 215 60 178 65 q 232 225 229 149 q 390 236 357 228 q 415 372 415 332 q 404 383 415 383 q 332 376 382 383 q 265 368 282 368 q 240 375 253 368 q 228 392 228 382 q 239 468 228 443 q 292 481 260 481 q 385 461 326 481 q 458 442 444 442 q 497 456 482 444 q 513 483 513 468 l 531 599 q 449 677 514 658 q 275 696 385 696 q 25 644 158 696 q 36 357 36 522 q 17 89 36 206 m -3 58 q 19 346 19 172 q 8 631 19 510 q 7 642 8 633 q 6 651 6 650 q 286 713 149 713 q 377 709 340 713 q 458 695 414 706 q 531 660 503 685 q 569 596 558 635 l 571 589 q 561 531 568 576 q 551 469 554 485 q 524 422 549 438 q 472 404 500 407 l 471 403 l 469 403 q 391 422 450 403 q 303 442 332 442 q 272 438 285 442 q 267 388 267 415 q 276 385 269 385 q 341 392 293 385 q 415 400 389 400 q 443 389 432 400 q 454 361 454 378 q 428 217 454 317 q 424 201 428 217 q 408 197 419 200 q 271 186 365 186 q 253 44 265 122 q 251 31 253 42 q 249 18 250 21 l 222 22 q 146 32 185 28 q 88 38 107 36 q 51 44 69 40 q 19 51 33 47 l -3 58 z "},"g":{"ha":667,"x_min":-17,"x_max":674,"o":"m 0 372 q 67 153 0 246 q 250 60 133 60 q 389 83 336 60 q 364 22 372 53 q 499 31 422 31 q 539 28 511 31 q 578 26 567 26 q 615 49 601 26 q 633 108 631 74 q 635 203 635 143 q 619 408 635 301 q 469 353 551 353 q 403 367 444 353 q 336 381 361 381 q 320 375 326 381 q 312 358 314 369 q 309 337 310 346 q 308 310 308 328 q 349 301 332 308 q 367 283 367 293 q 333 242 367 261 q 258 222 300 222 q 182 258 208 222 q 156 358 156 294 q 193 425 156 400 q 278 450 231 450 q 362 431 317 450 q 438 411 407 411 q 484 430 468 411 q 511 483 500 449 q 538 572 526 531 q 561 665 549 614 q 583 753 574 717 q 535 688 561 710 q 469 667 508 667 q 355 687 422 667 q 251 707 288 707 q 69 606 138 707 q 0 372 0 504 m 194 347 q 269 239 194 239 q 344 265 321 239 q 318 271 328 271 l 292 272 q 291 296 292 278 q 290 318 290 314 q 311 385 290 367 q 347 397 325 397 q 353 397 349 397 l 357 396 q 289 411 321 411 q 222 392 250 411 q 194 347 194 372 m -17 361 q 56 619 -17 514 q 263 724 128 724 q 374 703 307 724 q 481 683 442 683 q 575 769 531 683 l 626 750 q 547 464 557 493 q 449 372 517 374 q 481 369 458 369 q 519 374 500 369 q 553 384 539 379 q 585 401 567 389 q 610 417 603 413 q 633 436 617 422 l 650 449 q 674 192 674 288 q 671 96 674 165 q 650 22 668 53 q 589 -12 628 -12 q 549 -10 576 -12 q 510 -8 521 -8 q 379 -17 433 -8 l 335 -24 l 350 28 q 261 21 311 21 q 56 124 129 21 q -17 361 -17 226 z "},"h":{"ha":649,"x_min":3,"x_max":669,"o":"m 22 53 q 59 44 39 47 q 127 37 79 42 q 221 25 175 32 q 238 181 236 115 q 393 185 388 185 q 377 125 390 164 q 364 67 364 86 q 379 31 364 44 q 417 18 394 18 q 597 1 504 18 q 588 112 597 10 q 578 272 578 214 q 625 617 578 443 q 458 647 531 647 q 411 629 429 647 q 393 581 393 611 l 393 333 q 331 326 374 332 q 271 319 288 319 q 246 326 258 319 q 233 343 233 333 q 276 640 233 403 q 26 589 160 640 q 42 308 42 471 q 22 53 42 169 m 3 24 q 25 297 25 142 q 20 453 25 382 q 10 560 15 524 q 6 599 6 597 q 40 610 13 601 q 83 624 68 619 q 126 638 97 629 q 178 650 156 646 q 230 658 200 654 q 288 661 260 661 l 321 661 q 315 624 321 651 q 272 338 274 397 q 282 336 276 336 q 332 342 293 336 q 376 347 371 347 q 376 456 376 382 q 375 572 375 531 q 400 640 375 614 q 467 665 425 665 q 538 659 501 665 q 598 647 575 653 q 644 633 621 640 q 669 624 667 625 q 667 610 669 621 q 663 597 664 600 q 617 261 617 432 q 626 103 617 206 q 636 -10 636 1 l 636 -43 q 428 -21 525 -21 q 371 1 394 -21 q 347 56 347 22 q 368 143 347 76 q 276 142 336 142 q 258 10 275 114 q 257 -4 258 7 q 254 -18 256 -15 q 142 -3 233 -12 q 3 24 51 6 z "},"i":{"ha":310,"x_min":-17,"x_max":306,"o":"m 11 535 q 58 310 58 475 q 50 217 58 278 q 33 106 42 156 q 25 56 25 57 q 81 60 51 60 q 151 58 111 60 q 217 56 192 56 q 253 69 239 56 q 267 104 267 82 q 253 169 267 110 q 239 243 239 228 q 249 360 239 283 q 258 497 258 436 q 240 546 258 528 q 192 564 221 564 q 11 535 140 564 m 47 683 q 69 626 47 650 q 122 601 92 601 q 211 632 175 601 q 247 711 247 663 q 158 782 247 782 q 80 755 113 782 q 47 683 47 728 m -17 525 l -15 543 q 97 569 79 567 q 49 610 68 582 q 31 672 31 639 q 71 763 31 728 q 169 799 111 799 q 256 771 226 799 q 286 700 286 743 q 210 579 286 617 q 272 551 247 576 q 297 486 297 525 q 288 347 297 424 q 278 232 278 269 q 292 166 278 224 q 306 93 306 108 q 283 38 306 58 q 228 17 260 17 q 160 19 201 17 q 90 21 118 21 q 38 17 61 21 l 10 13 l 7 40 q 24 156 7 51 q 42 299 42 260 q 33 410 42 365 q 14 476 24 456 q -17 525 4 496 z "},"j":{"ha":471,"x_min":-7,"x_max":501,"o":"m 11 582 q 28 481 11 525 q 144 513 78 513 q 231 503 178 513 q 214 244 214 403 q 193 203 214 219 q 147 188 172 188 q 50 219 114 188 l 42 26 q 103 13 65 22 q 172 -3 140 3 q 233 -10 203 -10 q 392 47 326 -10 q 458 185 458 104 q 450 354 458 238 q 442 506 442 471 q 457 717 442 635 q 313 731 421 717 q 156 746 206 746 q 39 706 68 746 q 11 582 11 669 m -7 571 q 26 713 -7 668 q 167 764 64 764 q 326 749 218 764 q 468 733 433 733 l 501 733 q 481 494 481 629 q 489 345 481 463 q 497 174 497 228 q 422 16 497 81 q 244 -49 347 -49 q 182 -43 211 -49 q 113 -28 153 -37 q 47 -12 74 -18 l 24 -7 l 36 253 l 75 233 q 158 204 131 204 q 185 213 174 204 q 197 233 197 221 q 210 469 197 376 q 156 474 181 474 q 22 431 78 474 q -7 571 -7 500 z "},"k":{"ha":583,"x_min":-18,"x_max":606,"o":"m 8 668 q 64 379 64 546 q 56 278 64 325 q 33 174 47 232 q 11 76 18 117 q 131 44 68 44 q 222 92 201 44 l 219 265 q 283 202 229 254 q 364 108 338 150 q 411 -22 411 38 q 450 2 415 -19 q 505 38 485 24 q 546 76 525 53 q 567 117 567 99 q 544 174 567 147 q 369 360 489 243 q 519 461 463 401 q 567 569 567 510 q 525 637 567 611 q 447 663 483 663 q 378 618 417 663 q 324 555 349 586 q 269 483 300 524 q 217 415 238 442 q 225 463 225 443 q 226 542 225 469 q 225 621 226 614 q 203 660 225 647 q 111 676 168 676 q 8 668 69 676 m -18 681 q 122 694 79 694 q 263 610 261 694 q 264 499 264 554 q 365 625 322 576 q 458 681 414 681 q 554 647 503 681 q 606 558 606 614 q 593 491 606 518 q 550 431 581 464 q 428 340 499 375 q 576 181 518 253 q 606 106 606 144 q 596 68 606 86 q 563 30 586 50 q 520 -3 540 10 q 459 -43 500 -17 q 394 -86 418 -69 l 394 -33 q 351 82 394 17 q 261 185 328 118 l 261 75 l 260 72 q 257 65 258 68 q 252 56 256 61 q 244 44 249 50 q 233 33 239 39 q 217 23 226 28 q 198 14 208 18 q 173 8 188 10 q 142 6 158 6 q -12 51 69 6 q 13 169 -3 110 q 37 272 29 229 q 44 368 44 314 q -18 681 44 542 z "},"l":{"ha":489,"x_min":3,"x_max":517,"o":"m 19 657 q 32 540 19 626 q 44 388 44 454 q 33 179 44 272 q 22 58 22 86 q 168 44 81 58 q 310 29 256 31 q 456 79 436 29 q 478 222 478 138 q 463 315 478 276 q 346 283 413 283 q 260 293 303 283 q 267 368 264 335 q 270 435 269 401 q 271 488 271 469 q 269 544 271 506 q 266 594 267 583 q 261 656 265 606 q 256 722 257 707 q 117 732 199 732 q 49 713 78 732 q 19 657 19 694 m 3 649 q 36 724 3 697 q 125 750 69 750 q 293 736 208 750 l 294 714 q 308 515 307 564 q 301 307 310 467 q 357 301 343 301 q 395 305 378 301 q 427 315 413 308 q 451 327 442 322 q 471 341 460 332 q 485 351 482 350 q 500 314 486 349 q 517 211 517 267 q 493 58 517 122 q 321 -10 468 -10 q 176 6 263 -8 q 33 19 89 19 l 6 19 l 6 47 q 17 172 6 81 q 28 376 28 263 q 15 528 28 443 q 3 649 3 614 z "},"m":{"ha":833,"x_min":-12,"x_max":867,"o":"m 4 90 q 19 60 4 76 q 67 31 35 43 q 211 24 117 21 l 310 263 q 411 81 339 163 q 536 244 501 149 q 585 94 549 200 q 628 -21 621 -11 q 685 19 649 4 q 752 38 722 33 q 805 56 782 42 q 828 100 828 71 q 804 217 819 146 q 747 433 789 289 q 668 628 704 576 q 510 624 553 628 l 411 431 q 400 426 404 417 q 350 528 388 446 q 293 622 313 610 l 197 619 q 144 604 149 619 q 67 343 129 563 q 4 90 4 124 m -12 79 q 46 321 -12 114 q 128 601 104 528 q 133 617 132 614 q 154 628 135 619 q 208 636 174 636 q 268 637 244 636 q 301 638 292 638 q 313 639 310 639 q 342 613 329 629 q 362 580 354 596 q 385 528 369 564 q 414 467 401 493 q 501 640 492 619 q 694 644 560 644 q 782 442 739 581 q 846 196 825 303 l 867 89 q 842 28 867 50 q 786 2 818 7 q 717 -15 754 -3 q 661 -50 679 -28 l 639 -78 l 617 -49 q 542 158 606 -35 q 418 32 504 99 q 321 174 353 107 l 242 -14 l 224 -15 q 69 -7 133 -18 q 9 31 31 7 q -12 79 -12 54 z "},"n":{"ha":731,"x_min":-4,"x_max":747,"o":"m 18 56 q 113 28 60 28 q 193 47 158 28 q 215 244 215 132 q 208 325 215 286 q 381 169 293 294 q 482 -58 469 43 q 572 -67 510 -67 q 650 -46 606 -67 q 687 166 672 -6 q 706 489 701 338 l 708 639 q 701 817 708 719 q 694 826 700 818 q 685 837 688 833 q 674 847 682 840 q 661 858 667 854 q 647 867 656 861 q 628 875 638 872 q 608 880 619 878 q 583 882 596 882 q 496 869 571 882 q 533 649 529 810 q 506 294 538 488 q 67 643 315 643 q 24 621 24 643 q 40 478 24 563 q 57 333 57 394 q 18 56 57 219 m -4 32 l 0 51 q 39 322 39 211 q 22 465 39 379 q 6 610 6 550 q 20 649 6 638 q 76 661 35 661 q 500 365 313 661 q 519 586 515 493 q 510 738 522 679 q 492 818 499 797 q 469 875 486 839 q 596 899 532 899 q 623 897 610 899 q 648 890 636 894 q 669 881 660 885 q 688 869 679 876 q 703 857 697 863 q 717 844 710 851 q 726 833 724 836 q 733 822 729 829 l 739 817 q 747 628 747 704 q 744 450 747 567 q 725 152 742 333 q 682 -79 708 -29 q 583 -106 621 -106 q 468 -90 517 -106 q 385 119 456 19 q 253 264 315 219 q 253 249 253 258 q 254 233 254 239 q 228 17 254 114 q 124 -11 176 -11 q 14 19 64 -11 l -4 32 z "},"o":{"ha":517,"x_min":-11,"x_max":536,"o":"m 100 183 q 113 217 100 203 q 146 231 126 231 q 179 222 165 231 q 193 200 193 214 q 181 169 193 182 q 151 156 169 156 q 115 164 131 156 q 100 183 100 172 m 6 264 q 82 83 6 122 l 65 75 q 126 31 86 47 q 207 14 167 14 q 417 76 336 14 q 497 244 497 138 q 411 397 497 333 q 204 461 325 461 q 77 405 132 461 q 6 264 22 349 m 139 178 q 163 172 150 172 q 176 186 176 172 q 157 192 171 192 q 139 178 142 192 m -11 253 l -11 256 l -11 258 q 69 419 8 360 q 215 478 129 478 q 441 408 346 478 q 536 233 536 338 q 449 46 536 117 q 218 -25 363 -25 q 127 -6 174 -25 q 54 47 81 13 q 32 76 33 75 l 39 79 q -11 253 -11 136 z "},"p":{"ha":679,"x_min":-6,"x_max":706,"o":"m 240 389 q 251 451 240 422 q 299 444 276 451 q 322 418 322 436 q 299 375 322 393 q 243 357 275 357 q 240 389 240 376 m 11 53 q 115 -3 11 -3 q 222 22 175 -3 q 251 168 251 81 q 246 285 251 222 q 371 272 296 272 q 574 345 482 272 q 667 544 667 418 q 597 691 667 633 q 426 749 526 749 q 241 701 358 749 q 44 644 124 654 q 32 626 32 642 q 41 483 32 569 q 50 332 50 396 q 40 216 50 282 q 21 103 31 150 q 11 53 11 57 m 279 378 q 306 403 304 389 q 282 410 294 408 q 279 378 279 397 m -6 42 q 4 95 -6 47 q 24 208 14 143 q 33 321 33 272 q 24 469 33 382 q 15 615 15 556 q 47 661 15 656 q 245 719 126 671 q 438 767 364 767 q 626 701 547 767 q 706 533 706 635 q 604 314 706 394 q 382 233 503 233 q 288 239 325 233 q 290 157 290 206 q 258 -1 290 63 l 254 -10 q 126 -42 201 -42 q 24 -17 53 -42 q -6 42 -6 8 z "},"q":{"ha":485,"x_min":-15,"x_max":526,"o":"m 17 56 q 153 -49 46 4 q 333 -103 261 -103 q 421 -48 389 -103 q 482 140 453 7 l 478 142 q 430 72 454 94 q 367 49 406 49 q 278 67 338 49 q 173 101 219 86 q 81 108 126 117 q 17 56 35 100 m 97 361 q 109 389 97 378 q 136 400 121 400 q 165 392 153 400 q 176 375 176 385 q 166 349 176 360 q 142 339 156 339 q 110 346 124 339 q 97 361 97 353 m 3 403 q 79 222 3 261 l 63 214 q 175 178 89 178 q 383 234 300 178 q 467 383 467 290 q 389 528 467 469 q 188 586 311 586 q 69 534 121 586 q 3 403 18 482 m -4 44 l 1 57 q 76 124 24 111 q 178 121 128 136 q 290 85 229 106 q 378 65 351 65 q 425 83 407 65 q 464 143 443 100 l 475 164 l 526 147 q 524 135 526 144 q 521 124 522 126 q 453 -77 490 -12 q 344 -142 417 -142 q 150 -84 264 -142 q 4 31 36 -26 l -4 44 m -15 396 q 57 544 3 488 q 199 601 111 601 q 419 536 332 601 q 506 372 506 471 q 415 203 506 268 q 186 139 325 139 q 51 186 86 139 q 29 215 50 188 q 33 216 31 215 q 36 218 35 217 q -15 396 -15 278 z "},"r":{"ha":664,"x_min":-21,"x_max":701,"o":"m 253 475 q 324 468 296 475 q 353 450 353 461 q 341 422 353 432 q 312 406 329 411 q 269 396 294 400 q 260 394 263 394 l 253 475 m 0 19 q 235 -3 107 -3 q 269 13 257 -3 q 281 50 281 28 q 263 317 281 196 q 361 198 338 263 q 385 -14 385 133 q 471 -42 422 -42 q 603 26 550 -42 q 661 175 656 94 q 575 193 603 175 q 538 257 547 211 q 493 344 526 311 q 406 376 460 376 q 544 453 492 400 q 596 579 596 507 q 545 678 596 636 q 424 721 494 721 q 288 684 369 721 q 151 647 206 647 q 113 649 131 647 q 72 654 94 651 q 33 658 50 657 q 42 555 36 617 q 51 444 47 493 q 54 340 54 396 q 46 235 54 285 q 22 124 38 185 q 0 19 7 64 m -21 -14 l -17 13 q 6 119 -8 58 q 29 228 21 181 q 38 329 38 275 q 34 432 38 383 q 25 542 31 481 q 17 646 19 603 q 15 663 17 650 q 14 678 14 675 q 31 676 17 678 q 47 675 44 675 q 100 669 63 674 q 163 664 138 664 q 293 701 210 664 q 435 738 376 738 q 575 687 515 738 q 635 568 635 636 q 501 369 635 442 q 576 251 560 332 q 602 205 583 218 q 672 192 621 192 l 701 192 q 701 178 701 190 q 700 163 700 165 q 633 -4 693 72 q 482 -81 574 -81 q 379 -47 424 -81 q 374 -43 378 -47 q 368 -39 369 -39 l 368 -25 q 356 143 368 88 q 311 238 344 199 q 319 39 319 158 q 300 -17 319 7 q 246 -42 281 -42 q 6 -19 117 -42 l -21 -14 z "},"s":{"ha":451,"x_min":0,"x_max":474,"o":"m 18 26 q 79 13 42 22 q 148 -3 117 3 q 210 -10 179 -10 q 369 47 303 -10 q 435 185 435 104 q 404 274 435 235 q 324 328 374 313 q 247 361 256 349 q 244 371 244 367 q 264 383 244 383 q 336 374 304 383 q 403 597 354 507 q 192 625 261 625 q 82 589 129 625 q 35 503 35 553 q 93 367 35 429 q 153 231 153 303 q 136 185 153 204 q 96 167 119 167 q 74 172 85 167 q 49 185 63 176 q 26 199 35 194 l 18 26 m 0 -7 l 10 189 q 11 210 10 193 q 13 232 13 228 l 51 213 q 74 199 61 207 q 94 188 86 192 q 107 183 101 183 q 127 194 118 183 q 136 219 136 204 q 83 336 136 278 q 18 492 18 407 q 73 603 18 564 q 203 642 128 642 q 419 614 276 642 q 439 609 424 613 q 457 606 454 606 q 449 589 456 601 q 439 574 442 576 q 375 358 390 483 q 373 346 375 357 q 371 332 371 335 q 446 267 418 308 q 474 174 474 225 q 399 16 474 81 q 221 -49 324 -49 q 158 -43 188 -49 q 90 -28 129 -37 q 24 -12 50 -18 l 0 -7 z "},"t":{"ha":700,"x_min":-11,"x_max":736,"o":"m 7 553 q 24 460 7 503 q 139 492 74 492 q 226 482 183 492 q 210 249 210 382 q 213 168 210 210 q 222 78 217 126 q 231 -3 228 29 q 369 -12 288 -12 q 438 6 408 -12 q 467 63 467 25 q 455 183 467 96 q 440 333 443 271 q 438 416 440 356 q 435 506 436 476 q 508 497 454 504 q 593 489 561 489 q 672 531 661 489 q 697 708 697 626 q 671 735 697 735 q 590 726 646 735 q 497 717 533 717 q 334 731 439 717 q 176 746 229 744 q 31 694 50 746 q 7 553 7 632 m -11 542 q 11 699 -11 640 q 188 768 38 768 q 349 750 246 767 q 508 733 453 733 q 596 742 540 733 q 682 751 651 751 q 719 738 704 751 q 736 697 736 722 q 710 514 736 624 q 604 450 693 450 q 474 464 571 450 q 477 388 475 436 q 479 322 479 339 q 494 176 482 263 q 506 51 506 89 q 467 -26 506 0 q 381 -51 428 -51 q 215 -37 285 -51 l 214 -17 q 206 63 211 13 q 197 155 200 113 q 193 238 193 197 q 206 449 193 361 q 150 453 176 453 q 50 426 89 453 l 21 407 l 8 439 q -11 542 -11 490 z "},"u":{"ha":467,"x_min":-4,"x_max":489,"o":"m 17 561 q 33 506 19 546 q 47 447 47 467 q 40 363 47 432 q 32 247 32 294 q 85 133 32 179 q 226 86 138 86 q 389 192 328 86 q 450 469 450 299 q 433 575 450 531 q 394 619 417 619 q 350 589 358 619 q 369 542 353 576 q 386 486 386 507 q 365 410 386 442 q 314 379 344 379 q 271 435 289 379 q 253 569 253 490 q 215 595 253 585 q 122 606 176 606 q 17 561 39 606 m -4 561 l 1 569 q 133 622 38 622 q 243 607 194 622 q 292 558 292 592 q 299 473 292 511 q 313 418 306 435 q 326 396 321 401 q 356 421 342 399 q 369 475 369 443 q 354 522 369 490 q 335 569 339 553 q 334 572 335 571 q 332 576 333 574 q 335 585 335 582 q 361 622 340 608 q 406 636 382 636 q 467 585 444 636 q 489 458 489 533 q 419 160 489 272 q 238 47 350 47 q 77 101 139 47 q 15 236 15 156 q 23 355 15 286 q 31 435 31 424 q 17 491 31 449 q 0 546 3 533 l -4 561 z "},"v":{"ha":472,"x_min":-11,"x_max":504,"o":"m 7 311 q 32 190 7 278 q 69 72 57 101 q 137 -26 92 15 q 238 -67 182 -67 q 339 76 289 -28 q 421 279 389 182 q 458 421 453 376 l 465 465 q 435 517 465 517 q 347 507 385 517 q 283 456 297 494 q 215 236 229 303 l 161 393 q 89 372 124 386 q 22 338 38 351 q 7 311 7 325 m -11 303 q 11 347 -11 326 q 69 381 33 368 q 134 402 106 394 q 190 414 163 410 l 222 318 l 267 453 q 350 524 285 508 q 446 533 392 533 q 488 511 472 533 q 504 454 504 489 q 497 398 504 440 q 457 256 489 356 q 375 53 425 157 q 258 -106 319 -58 q 128 -57 178 -106 q 54 51 78 -8 l 47 72 q 31 124 40 94 q 11 188 21 154 q -5 253 1 221 q -11 303 -11 285 z "},"w":{"ha":626,"x_min":-6,"x_max":657,"o":"m 11 311 q 75 72 11 253 q 88 37 83 47 q 106 15 93 26 q 136 4 118 4 l 175 6 q 228 35 208 8 q 274 104 238 49 q 277 106 275 107 q 281 101 279 104 l 318 -3 q 400 -7 361 -7 q 492 76 451 -7 q 563 244 539 175 q 601 376 583 304 q 618 465 618 447 q 588 517 618 517 q 494 504 542 517 q 431 453 444 492 q 367 328 406 379 q 358 356 363 339 q 351 381 354 374 q 344 398 349 389 q 335 410 340 407 q 324 415 331 414 l 303 414 q 277 391 288 414 q 253 337 267 368 q 221 289 240 306 l 175 396 q 96 374 132 389 q 11 311 11 339 m -6 300 q 15 351 -6 335 q 96 390 35 367 q 201 415 144 410 q 240 335 229 360 q 253 365 244 343 q 267 397 261 386 q 284 419 272 408 q 313 431 296 429 l 336 432 q 388 385 375 425 q 415 450 404 418 q 446 501 428 488 q 500 522 464 514 q 599 533 539 533 q 641 511 625 533 q 657 454 657 489 q 638 353 657 431 q 600 224 618 276 q 528 53 568 138 q 411 -46 481 -46 q 308 -40 381 -46 q 306 -32 308 -39 q 303 -24 303 -25 q 282 36 285 31 q 276 26 279 32 q 268 15 272 21 q 263 7 264 10 q 188 -33 235 -31 l 149 -35 q 101 -19 121 -36 q 74 14 81 -1 q 60 53 67 29 q -6 300 -6 257 z "},"x":{"ha":717,"x_min":-12,"x_max":747,"o":"m 4 43 q 57 -9 4 22 q 157 -40 110 -40 q 203 1 178 -40 q 321 219 275 135 q 467 60 376 150 q 564 -4 528 -4 q 654 53 600 -4 q 708 140 708 110 q 676 188 708 158 q 596 259 644 218 q 522 335 547 300 q 488 360 506 354 q 519 396 503 369 q 610 524 556 449 q 685 628 664 599 q 461 757 533 757 q 404 714 425 742 q 365 659 382 685 q 325 598 347 633 q 289 540 303 563 q 219 611 254 567 q 182 693 183 656 q 109 628 158 668 q 33 560 60 588 q 6 513 6 532 q 28 469 6 494 q 154 339 50 443 q 92 223 133 299 q 27 101 50 147 q 4 43 4 56 m -12 32 q 3 82 -12 49 q 63 195 19 115 q 132 324 107 275 q 18 440 51 401 q -11 501 -11 475 q 8 556 -11 528 q 49 605 26 585 q 122 667 71 625 q 203 736 172 708 q 208 703 203 725 q 236 642 214 682 q 293 569 258 601 q 393 719 372 692 q 458 771 424 757 l 465 774 l 472 774 q 573 738 510 774 q 674 671 636 701 q 733 621 713 640 l 719 600 q 640 490 692 560 q 554 369 589 419 q 542 354 553 368 q 547 349 543 353 q 556 340 554 343 q 633 263 582 304 q 715 189 683 221 q 747 129 747 157 q 685 22 747 88 q 575 -43 624 -43 q 457 29 529 -43 q 338 158 388 99 l 238 -24 q 168 -79 207 -79 q 49 -42 111 -79 q -12 32 -12 -4 z "},"y":{"ha":590,"x_min":-14,"x_max":626,"o":"m 3 556 q 21 506 3 525 q 93 424 71 450 q 150 336 115 397 q 185 231 185 275 q 181 8 185 75 q 328 -3 238 -3 q 385 28 363 -3 q 408 101 408 58 q 404 208 408 143 q 400 314 400 272 q 425 367 400 336 q 468 416 433 376 q 515 472 503 456 q 549 517 528 488 q 579 570 571 547 q 588 614 588 593 q 572 645 588 632 q 533 658 556 658 q 439 635 478 658 q 465 560 465 606 q 388 392 465 488 q 347 481 364 447 q 301 565 331 515 q 237 639 271 614 q 167 664 203 664 q 51 632 99 664 q 3 556 3 600 m -14 544 q 42 647 -14 613 q 178 681 97 681 q 257 655 219 681 q 325 583 294 629 q 371 507 356 536 q 406 435 386 478 q 449 549 449 494 q 429 606 449 582 q 407 631 415 619 q 436 647 407 631 q 544 675 483 675 q 601 655 576 675 q 626 603 626 635 q 622 570 626 588 q 612 539 617 553 q 594 505 607 525 q 574 474 581 485 q 548 442 567 464 q 523 412 529 419 q 496 381 517 404 q 472 354 475 357 q 463 344 468 350 q 457 338 458 339 q 439 303 439 314 q 443 199 439 264 q 447 90 447 133 q 417 -2 447 38 q 339 -42 386 -42 q 186 -31 246 -42 q 160 -25 169 -25 l 161 -1 q 165 219 165 64 q 11 476 165 307 q -14 544 -14 506 z "},"z":{"ha":575,"x_min":-24,"x_max":572,"o":"m -4 110 q 15 71 -4 75 q 194 67 96 67 q 429 78 336 67 q 496 131 483 85 q 531 342 521 222 l 522 342 q 294 300 474 300 q 399 438 329 356 q 506 581 468 521 q 529 676 529 618 q 503 701 529 697 q 285 721 397 721 q 101 704 189 721 q 82 682 88 703 q 51 435 51 556 q 204 482 129 482 q 226 481 219 482 q 152 378 197 438 q 73 271 107 319 q 8 163 39 222 q -4 110 -4 139 m -24 96 q -7 164 -24 133 q 49 260 21 218 q 123 361 78 303 q 183 440 168 419 q 76 400 122 429 q 54 387 72 397 q 35 375 36 376 l 35 424 q 65 676 35 547 q 107 722 72 717 q 296 738 189 738 q 519 718 411 738 q 568 665 568 710 q 540 554 568 599 q 440 419 503 494 q 358 318 378 344 q 515 354 478 322 q 519 358 517 356 q 522 363 521 361 l 572 358 q 571 342 572 356 q 569 328 569 329 q 533 113 560 214 q 443 39 517 49 q 206 28 347 28 q 18 32 56 28 q -24 96 -24 43 z "},"~":{"ha":485,"x_min":-8,"x_max":514,"o":"m 8 203 q 128 250 63 250 q 224 218 153 250 q 331 186 296 186 q 431 234 390 186 q 472 351 472 282 q 457 450 472 411 q 343 399 411 399 q 230 428 299 399 q 131 458 161 458 q 65 440 90 458 q 28 383 40 421 q 13 304 17 344 q 8 203 8 264 m -8 122 l -8 185 q -3 302 -8 257 q 16 390 1 347 q 63 453 31 433 q 144 474 94 474 q 250 443 182 474 q 357 413 318 413 q 449 456 410 413 q 465 474 453 461 q 479 490 476 488 q 488 468 481 486 q 497 446 496 450 q 514 338 514 401 q 465 201 514 258 q 344 144 417 144 q 233 176 306 144 q 142 208 160 208 q 84 195 114 208 q 40 168 54 182 q -8 122 11 139 z "},"":{"ha":582,"x_min":-6,"x_max":613,"o":"m 8 354 q 71 177 8 247 q 231 90 133 107 q 244 -128 231 -60 q 369 -142 297 -142 q 360 96 360 -47 q 536 189 457 118 q 508 228 524 215 q 413 169 471 192 q 301 147 356 147 q 214 173 247 147 q 181 253 181 199 q 215 330 181 299 q 297 361 249 361 q 450 306 375 361 q 493 486 469 403 q 527 576 503 521 q 558 649 551 632 l 553 649 q 511 594 543 618 q 450 571 479 571 q 367 581 408 571 q 350 847 367 789 q 276 878 315 878 q 217 861 239 878 q 236 599 236 760 q 76 521 144 596 q 8 354 8 446 m -6 340 q 60 520 -6 440 q 222 610 125 600 q 204 842 219 763 l 200 861 q 207 866 201 863 q 214 871 213 869 q 290 892 242 892 q 389 849 339 892 q 408 590 406 794 q 461 585 442 585 q 506 602 481 585 q 539 644 531 619 q 542 653 540 646 q 544 663 544 660 l 613 663 q 599 625 607 646 q 567 554 593 613 q 533 464 542 496 q 483 244 513 390 q 426 285 444 272 q 376 308 407 297 q 311 319 346 319 q 248 296 274 319 q 222 239 222 272 q 315 161 222 161 q 416 183 364 161 q 501 236 468 204 q 519 253 515 250 q 561 213 550 228 q 583 168 572 197 l 569 154 q 401 60 493 86 q 414 -183 403 -64 q 235 -165 297 -183 q 217 54 218 -92 q 56 153 117 78 q -6 340 -6 229 z "},"":{"ha":338,"x_min":-7,"x_max":342,"o":"m 11 -256 q 168 -290 85 -290 q 262 -258 224 -290 q 300 -179 300 -225 q 165 -39 300 -83 l 190 13 l 111 13 l 76 -68 q 118 -126 118 -87 q 108 -142 118 -135 q 88 -150 99 -150 q 35 -131 51 -150 q 11 -256 11 -179 m -7 -268 q 36 -92 -7 -168 l 49 -96 l 100 26 l 249 26 l 217 -37 q 305 -94 268 -56 q 342 -193 342 -132 q 294 -292 342 -253 q 182 -332 247 -332 q -7 -286 92 -332 l -7 -268 z "},"":{"ha":842,"x_min":-14,"x_max":853,"o":"m 264 313 q 277 360 264 339 q 313 385 290 381 l 404 244 l 399 242 q 371 261 381 258 q 327 269 353 265 q 291 275 301 272 q 272 286 281 278 q 264 313 264 294 m 3 51 q 33 6 3 25 q 108 -14 64 -14 q 189 3 156 -14 q 222 42 222 19 q 232 188 222 144 q 408 166 365 183 q 483 72 450 149 q 504 3 503 22 q 610 -9 539 0 q 731 -18 681 -18 q 788 6 763 -18 q 814 51 814 31 q 783 164 814 100 q 716 276 751 228 q 615 406 681 324 q 519 531 550 489 q 474 639 479 588 q 347 640 392 650 q 247 586 303 629 q 139 190 247 381 q 63 122 124 164 q 3 51 3 79 m 303 301 q 303 296 303 299 l 304 293 q 349 285 311 289 q 338 301 346 289 q 322 324 329 314 q 314 338 315 335 q 303 301 303 322 m -14 40 q 14 103 -14 72 q 75 150 31 119 q 124 196 110 171 q 229 575 229 381 l 229 593 q 315 647 278 631 q 413 663 353 663 q 510 651 432 663 l 513 631 q 553 536 519 582 q 653 406 585 492 q 756 272 721 319 q 822 159 790 225 q 853 40 853 93 q 819 -24 853 8 q 742 -57 785 -57 q 617 -47 689 -57 q 514 -36 553 -39 l 490 -35 l 488 -11 q 469 51 485 11 q 409 129 442 115 q 265 147 376 143 q 261 31 261 125 q 219 -29 261 -6 q 119 -53 178 -53 q 26 -26 65 -53 q -14 40 -14 0 m 147 969 q 224 869 151 967 q 336 749 296 771 q 485 731 369 731 q 470 800 476 774 q 447 863 464 826 q 408 919 431 899 q 347 954 386 939 q 257 969 308 969 l 147 969 m 100 985 l 271 985 q 374 967 329 985 q 443 924 418 949 q 487 859 468 900 q 512 792 506 818 q 526 722 518 765 q 530 706 528 718 q 532 689 532 693 l 499 689 q 336 710 372 689 q 277 759 310 724 q 220 828 244 794 q 172 895 196 861 q 144 933 149 929 q 132 949 142 936 q 114 971 122 961 q 100 985 106 981 z "},"":{"ha":842,"x_min":-14,"x_max":853,"o":"m 264 313 q 277 360 264 339 q 313 385 290 381 l 404 244 l 399 242 q 371 261 381 258 q 327 269 353 265 q 291 275 301 272 q 272 286 281 278 q 264 313 264 294 m 3 51 q 33 6 3 25 q 108 -14 64 -14 q 189 3 156 -14 q 222 42 222 19 q 232 188 222 144 q 408 166 365 183 q 483 72 450 149 q 504 3 503 22 q 610 -9 539 0 q 731 -18 681 -18 q 788 6 763 -18 q 814 51 814 31 q 783 164 814 100 q 716 276 751 228 q 615 406 681 324 q 519 531 550 489 q 474 639 479 588 q 347 640 392 650 q 247 586 303 629 q 139 190 247 381 q 63 122 124 164 q 3 51 3 79 m 303 301 q 303 296 303 299 l 304 293 q 349 285 311 289 q 338 301 346 289 q 322 324 329 314 q 314 338 315 335 q 303 301 303 322 m -14 40 q 14 103 -14 72 q 75 150 31 119 q 124 196 110 171 q 229 575 229 381 l 229 593 q 315 647 278 631 q 413 663 353 663 q 510 651 432 663 l 513 631 q 553 536 519 582 q 653 406 585 492 q 756 272 721 319 q 822 159 790 225 q 853 40 853 93 q 819 -24 853 8 q 742 -57 785 -57 q 617 -47 689 -57 q 514 -36 553 -39 l 490 -35 l 488 -11 q 469 51 485 11 q 409 129 442 115 q 265 147 376 143 q 261 31 261 125 q 219 -29 261 -6 q 119 -53 178 -53 q 26 -26 65 -53 q -14 40 -14 0 m 292 728 q 439 746 406 728 q 552 866 479 768 q 629 967 625 964 l 519 967 q 429 951 468 967 q 368 916 390 936 q 329 860 346 896 q 306 797 313 824 q 292 728 300 771 m 269 689 q 314 857 292 813 q 531 983 374 983 l 692 983 q 647 921 689 982 q 552 794 606 860 q 464 711 499 729 q 303 689 422 689 l 269 689 z "},"":{"ha":842,"x_min":-14,"x_max":853,"o":"m 264 313 q 277 360 264 339 q 313 385 290 381 l 404 244 l 399 242 q 371 261 381 258 q 327 269 353 265 q 291 275 301 272 q 272 286 281 278 q 264 313 264 294 m 3 51 q 33 6 3 25 q 108 -14 64 -14 q 189 3 156 -14 q 222 42 222 19 q 232 188 222 144 q 408 166 365 183 q 483 72 450 149 q 504 3 503 22 q 610 -9 539 0 q 731 -18 681 -18 q 788 6 763 -18 q 814 51 814 31 q 783 164 814 100 q 716 276 751 228 q 615 406 681 324 q 519 531 550 489 q 474 639 479 588 q 347 640 392 650 q 247 586 303 629 q 139 190 247 381 q 63 122 124 164 q 3 51 3 79 m 303 301 q 303 296 303 299 l 304 293 q 349 285 311 289 q 338 301 346 289 q 322 324 329 314 q 314 338 315 335 q 303 301 303 322 m -14 40 q 14 103 -14 72 q 75 150 31 119 q 124 196 110 171 q 229 575 229 381 l 229 593 q 315 647 278 631 q 413 663 353 663 q 510 651 432 663 l 513 631 q 553 536 519 582 q 653 406 585 492 q 756 272 721 319 q 822 159 790 225 q 853 40 853 93 q 819 -24 853 8 q 742 -57 785 -57 q 617 -47 689 -57 q 514 -36 553 -39 l 490 -35 l 488 -11 q 469 51 485 11 q 409 129 442 115 q 265 147 376 143 q 261 31 261 125 q 219 -29 261 -6 q 119 -53 178 -53 q 26 -26 65 -53 q -14 40 -14 0 m 207 822 q 240 764 207 794 q 300 721 265 742 q 433 851 389 779 q 511 785 482 822 q 546 721 540 747 q 618 801 618 750 q 560 893 618 840 q 488 948 526 922 q 436 988 449 974 q 406 990 411 990 q 369 979 388 990 q 221 850 304 918 q 207 822 207 838 m 193 808 q 217 858 193 838 q 298 931 253 889 q 364 989 343 972 q 419 1004 386 1004 q 463 1000 438 1004 q 522 953 481 982 q 592 900 563 925 q 660 788 660 839 q 539 669 660 708 q 454 800 529 744 q 315 674 399 728 q 236 729 268 700 q 193 808 193 768 z "},"":{"ha":842,"x_min":-14,"x_max":853,"o":"m 264 313 q 277 360 264 339 q 313 385 290 381 l 404 244 l 399 242 q 371 261 381 258 q 327 269 353 265 q 291 275 301 272 q 272 286 281 278 q 264 313 264 294 m 3 51 q 33 6 3 25 q 108 -14 64 -14 q 189 3 156 -14 q 222 42 222 19 q 232 188 222 144 q 408 166 365 183 q 483 72 450 149 q 504 3 503 22 q 610 -9 539 0 q 731 -18 681 -18 q 788 6 763 -18 q 814 51 814 31 q 783 164 814 100 q 716 276 751 228 q 615 406 681 324 q 519 531 550 489 q 474 639 479 588 q 347 640 392 650 q 247 586 303 629 q 139 190 247 381 q 63 122 124 164 q 3 51 3 79 m 303 301 q 303 296 303 299 l 304 293 q 349 285 311 289 q 338 301 346 289 q 322 324 329 314 q 314 338 315 335 q 303 301 303 322 m -14 40 q 14 103 -14 72 q 75 150 31 119 q 124 196 110 171 q 229 575 229 381 l 229 593 q 315 647 278 631 q 413 663 353 663 q 510 651 432 663 l 513 631 q 553 536 519 582 q 653 406 585 492 q 756 272 721 319 q 822 159 790 225 q 853 40 853 93 q 819 -24 853 8 q 742 -57 785 -57 q 617 -47 689 -57 q 514 -36 553 -39 l 490 -35 l 488 -11 q 469 51 485 11 q 409 129 442 115 q 265 147 376 143 q 261 31 261 125 q 219 -29 261 -6 q 119 -53 178 -53 q 26 -26 65 -53 q -14 40 -14 0 m 175 739 q 294 786 229 786 q 391 754 319 786 q 497 722 463 722 q 598 770 557 722 q 639 888 639 818 q 624 986 639 947 q 510 935 578 935 q 397 965 465 935 q 297 994 328 994 q 232 976 257 994 q 195 919 207 957 q 179 840 183 881 q 175 739 175 800 m 158 658 l 158 721 q 163 838 158 793 q 183 926 168 883 q 229 990 197 969 q 311 1010 261 1010 q 417 979 349 1010 q 524 949 485 949 q 615 992 576 949 q 631 1010 619 997 q 646 1026 643 1024 q 655 1004 647 1022 q 664 982 663 986 q 681 874 681 938 q 632 738 681 794 q 511 681 583 681 q 399 713 472 681 q 308 744 326 744 q 251 731 281 744 q 207 704 221 718 q 158 658 178 675 z "},"":{"ha":842,"x_min":-14,"x_max":853,"o":"m 264 313 q 277 360 264 339 q 313 385 290 381 l 404 244 l 399 242 q 371 261 381 258 q 327 269 353 265 q 291 275 301 272 q 272 286 281 278 q 264 313 264 294 m 3 51 q 33 6 3 25 q 108 -14 64 -14 q 189 3 156 -14 q 222 42 222 19 q 232 188 222 144 q 408 166 365 183 q 483 72 450 149 q 504 3 503 22 q 610 -9 539 0 q 731 -18 681 -18 q 788 6 763 -18 q 814 51 814 31 q 783 164 814 100 q 716 276 751 228 q 615 406 681 324 q 519 531 550 489 q 474 639 479 588 q 347 640 392 650 q 247 586 303 629 q 139 190 247 381 q 63 122 124 164 q 3 51 3 79 m 303 301 q 303 296 303 299 l 304 293 q 349 285 311 289 q 338 301 346 289 q 322 324 329 314 q 314 338 315 335 q 303 301 303 322 m -14 40 q 14 103 -14 72 q 75 150 31 119 q 124 196 110 171 q 229 575 229 381 l 229 593 q 315 647 278 631 q 413 663 353 663 q 510 651 432 663 l 513 631 q 553 536 519 582 q 653 406 585 492 q 756 272 721 319 q 822 159 790 225 q 853 40 853 93 q 819 -24 853 8 q 742 -57 785 -57 q 617 -47 689 -57 q 514 -36 553 -39 l 490 -35 l 488 -11 q 469 51 485 11 q 409 129 442 115 q 265 147 376 143 q 261 31 261 125 q 219 -29 261 -6 q 119 -53 178 -53 q 26 -26 65 -53 q -14 40 -14 0 m 207 801 q 223 758 207 776 q 260 740 239 740 q 333 765 304 740 q 363 829 363 789 q 296 879 363 879 q 233 858 258 879 q 207 801 207 836 m 446 801 q 462 758 446 776 q 499 740 478 740 q 572 765 543 740 q 601 829 601 789 q 535 879 601 879 q 472 858 497 879 q 446 801 446 836 m 190 790 q 225 867 190 838 q 307 896 260 896 q 401 818 401 896 q 364 734 401 767 q 271 701 326 701 q 213 728 236 701 q 190 790 190 756 m 429 790 q 464 867 429 838 q 546 896 499 896 q 640 818 640 896 q 603 734 640 767 q 510 701 565 701 q 452 728 475 701 q 429 790 429 756 z "},"":{"ha":842,"x_min":-14,"x_max":853,"o":"m 264 313 q 277 360 264 339 q 313 385 290 381 l 404 244 l 399 242 q 371 261 381 258 q 327 269 353 265 q 291 275 301 272 q 272 286 281 278 q 264 313 264 294 m 3 51 q 33 6 3 25 q 108 -14 64 -14 q 189 3 156 -14 q 222 42 222 19 q 232 188 222 144 q 408 166 365 183 q 483 72 450 149 q 504 3 503 22 q 610 -9 539 0 q 731 -18 681 -18 q 788 6 763 -18 q 814 51 814 31 q 783 164 814 100 q 716 276 751 228 q 615 406 681 324 q 519 531 550 489 q 481 611 490 569 q 474 660 474 642 q 493 671 483 664 q 558 796 558 714 q 498 903 558 858 q 353 947 438 947 q 264 909 303 947 q 214 811 225 871 q 246 695 214 744 q 335 636 278 646 q 247 586 293 624 q 139 190 247 381 q 63 122 124 164 q 3 51 3 79 m 303 301 q 303 296 303 299 l 304 293 q 349 285 311 289 q 338 301 346 289 q 322 324 329 314 q 314 338 315 335 q 303 301 303 322 m -14 40 q 13 101 -14 75 q 76 151 40 126 q 124 196 111 175 q 229 575 229 381 l 229 593 q 275 625 244 606 q 200 797 200 682 l 200 808 q 367 961 232 961 q 531 910 461 961 q 600 782 600 860 q 513 628 600 681 q 553 536 518 585 q 653 406 585 492 q 756 272 721 319 q 822 159 790 225 q 853 40 853 93 q 819 -24 853 8 q 742 -57 785 -57 q 617 -47 689 -57 q 514 -36 546 -37 l 490 -35 q 489 -24 490 -33 q 488 -11 488 -14 q 469 51 485 11 q 409 129 442 115 q 265 147 376 143 q 261 31 261 125 q 219 -29 261 -6 q 119 -53 178 -53 q 26 -26 65 -53 q -14 40 -14 0 m 293 744 q 306 778 293 764 q 339 792 319 792 q 372 783 358 792 q 386 760 386 774 q 374 729 386 742 q 344 717 363 717 q 308 725 324 717 q 293 744 293 733 m 329 740 q 353 736 338 736 q 367 750 367 736 q 347 756 361 756 q 329 740 333 756 z "},"":{"ha":910,"x_min":-11,"x_max":924,"o":"m 3 51 q 33 6 3 25 q 108 -14 64 -14 q 189 3 156 -14 q 222 42 222 19 q 232 188 222 149 q 408 166 365 183 q 483 72 450 149 q 494 25 490 43 q 621 43 550 43 q 871 54 738 43 q 882 168 882 93 q 860 276 882 231 q 708 217 793 217 q 603 232 653 217 q 613 267 603 244 q 668 251 649 251 q 739 271 714 251 q 742 326 742 313 q 722 397 742 371 q 600 379 639 379 q 596 418 596 394 q 761 443 699 443 q 861 413 817 443 q 881 517 881 474 q 846 618 881 578 q 614 608 717 608 q 476 622 547 608 q 401 635 406 635 q 317 626 349 635 q 247 586 286 617 q 193 301 247 436 q 125 174 156 210 q 65 119 97 142 q 17 85 32 97 q 3 51 3 72 m 264 313 q 280 360 264 340 q 325 385 296 381 l 410 244 l 399 242 q 371 261 381 258 q 327 269 353 265 q 291 275 301 272 q 272 286 281 278 q 264 313 264 294 m -11 38 q 4 90 -11 72 q 55 129 19 107 q 115 179 90 151 q 178 299 142 210 q 232 572 232 433 l 232 590 q 244 599 236 594 q 319 640 285 631 q 415 649 354 649 q 492 635 424 649 q 628 622 560 622 q 858 632 729 622 q 865 633 860 632 l 871 633 q 876 628 872 632 l 881 622 q 922 503 922 575 q 890 353 922 442 q 861 378 872 369 q 827 394 850 386 q 775 401 804 401 q 765 401 771 401 q 758 400 760 400 q 783 313 783 367 q 781 254 783 296 q 781 249 781 250 q 779 243 781 247 l 771 235 q 853 286 808 244 l 879 311 q 889 293 881 308 q 899 275 897 278 q 924 154 924 221 q 911 32 924 75 q 906 14 910 26 q 894 14 901 14 l 888 13 q 635 1 754 1 q 517 -15 568 1 q 502 -21 514 -17 q 488 -25 490 -25 q 481 6 488 -22 q 476 28 479 11 q 471 50 472 44 q 410 126 443 113 q 268 144 376 140 q 264 28 264 115 q 222 -32 264 -8 q 122 -56 181 -56 q 28 -29 68 -56 q -11 38 -11 -3 m 306 299 q 306 293 306 296 l 307 290 q 361 281 313 288 l 326 338 q 306 299 306 325 z "},"":{"ha":582,"x_min":-8,"x_max":604,"o":"m 8 340 q 68 165 8 235 q 222 78 128 96 l 189 1 q 231 -57 231 -21 q 221 -73 231 -65 q 200 -81 211 -81 q 147 -61 164 -81 q 124 -187 124 -110 q 281 -222 197 -222 q 374 -190 336 -222 q 413 -111 413 -157 q 278 31 413 -14 l 299 74 q 536 175 433 81 q 508 214 524 201 q 413 156 471 178 q 301 133 356 133 q 214 159 247 133 q 181 239 181 185 q 215 316 181 285 q 297 347 249 347 q 450 292 375 347 q 493 472 469 389 q 527 563 503 507 q 558 635 551 618 l 553 635 q 511 581 543 604 q 450 557 479 557 q 347 571 407 557 q 244 585 288 585 q 79 509 150 585 q 8 340 8 433 m -8 331 q 64 525 -8 447 q 253 603 136 603 q 361 588 300 603 q 461 574 422 574 q 504 591 479 574 q 538 633 529 608 q 542 644 539 636 l 543 651 l 604 651 q 531 453 551 529 q 489 276 504 365 q 481 233 486 269 q 446 258 460 247 q 308 308 379 308 q 245 285 271 308 q 219 228 219 261 q 313 150 219 150 q 415 171 363 150 q 500 224 467 192 q 518 240 514 238 l 536 225 q 560 200 550 213 q 574 174 567 189 q 578 166 575 172 q 581 157 581 160 l 567 143 q 332 36 464 50 l 329 31 q 417 -26 381 13 q 454 -125 454 -64 q 407 -224 454 -185 q 294 -264 360 -264 q 106 -217 208 -264 l 106 -200 q 149 -22 106 -99 l 161 -26 l 193 49 q 47 151 103 76 q -8 331 -8 226 z "},"":{"ha":493,"x_min":-67,"x_max":504,"o":"m -3 600 q 43 643 -3 643 q 208 622 131 622 q 288 624 249 622 q 356 626 328 625 q 405 629 383 628 q 438 632 426 631 q 451 633 450 633 q 503 506 503 574 q 471 356 503 436 q 445 376 465 360 q 406 398 425 392 q 356 404 388 404 q 339 403 347 404 q 364 315 364 369 q 360 246 364 282 l 351 238 q 436 286 396 250 q 449 299 439 289 q 463 311 460 308 l 479 278 q 504 157 504 224 q 486 22 504 76 q 215 10 324 10 q 32 15 114 10 q 17 16 29 15 q 3 17 6 17 l 6 46 q 17 134 10 83 q 29 224 25 185 q 33 308 33 264 q -3 600 33 461 m 19 596 q 50 336 50 469 q 45 228 50 281 q 32 122 40 175 q 22 54 24 68 q 204 49 104 49 q 454 60 321 49 q 465 168 465 99 q 443 276 465 231 q 292 217 376 217 q 186 232 236 217 q 196 267 186 244 q 251 251 232 251 q 322 271 297 251 q 325 326 325 313 q 306 397 325 371 q 207 382 246 382 q 203 421 203 397 q 344 443 293 443 q 444 413 400 443 q 464 517 464 474 q 429 615 464 575 q 197 606 300 606 q 101 613 151 606 q 43 619 50 619 q 19 596 19 619 m -19 942 q 57 841 -15 939 q 169 721 129 743 q 318 703 203 703 q 303 772 310 746 q 281 835 297 799 q 242 891 264 871 q 181 926 219 911 q 90 942 142 942 l -19 942 m -67 957 l 104 957 q 207 939 163 957 q 276 897 251 921 q 320 831 301 872 q 345 764 339 790 q 360 694 351 738 q 363 678 361 690 q 365 661 365 665 l 332 661 q 169 682 206 661 q 110 731 143 696 q 53 800 78 767 q 6 867 29 833 q -22 906 -18 901 q -35 921 -25 908 q -53 943 -44 933 q -67 957 -61 953 z "},"":{"ha":493,"x_min":-3,"x_max":525,"o":"m -3 600 q 43 643 -3 643 q 208 622 131 622 q 288 624 249 622 q 356 626 328 625 q 405 629 383 628 q 438 632 426 631 q 451 633 450 633 q 503 506 503 574 q 471 356 503 436 q 445 376 465 360 q 406 398 425 392 q 356 404 388 404 q 339 403 347 404 q 364 315 364 369 q 360 246 364 282 l 351 238 q 436 286 396 250 q 449 299 439 289 q 463 311 460 308 l 479 278 q 504 157 504 224 q 486 22 504 76 q 215 10 324 10 q 32 15 114 10 q 17 16 29 15 q 3 17 6 17 l 6 46 q 17 134 10 83 q 29 224 25 185 q 33 308 33 264 q -3 600 33 461 m 19 596 q 50 336 50 469 q 45 228 50 281 q 32 122 40 175 q 22 54 24 68 q 204 49 104 49 q 454 60 321 49 q 465 168 465 99 q 443 276 465 231 q 292 217 376 217 q 186 232 236 217 q 196 267 186 244 q 251 251 232 251 q 322 271 297 251 q 325 326 325 313 q 306 397 325 371 q 207 382 246 382 q 203 421 203 397 q 344 443 293 443 q 444 413 400 443 q 464 517 464 474 q 429 615 464 575 q 197 606 300 606 q 101 613 151 606 q 43 619 50 619 q 19 596 19 619 m 125 700 q 272 718 239 700 q 385 838 313 740 q 463 939 458 936 l 353 939 q 263 924 301 939 q 201 888 224 908 q 163 832 179 868 q 140 769 146 796 q 125 700 133 743 m 103 661 q 147 829 125 785 q 364 956 207 956 l 525 956 q 481 893 522 954 q 385 767 439 832 q 297 683 332 701 q 136 661 256 661 l 103 661 z "},"":{"ha":493,"x_min":-3,"x_max":504,"o":"m -3 600 q 43 643 -3 643 q 208 622 131 622 q 288 624 249 622 q 356 626 328 625 q 405 629 383 628 q 438 632 426 631 q 451 633 450 633 q 503 506 503 574 q 471 356 503 436 q 445 376 465 360 q 406 398 425 392 q 356 404 388 404 q 339 403 347 404 q 364 315 364 369 q 360 246 364 282 l 351 238 q 436 286 396 250 q 449 299 439 289 q 463 311 460 308 l 479 278 q 504 157 504 224 q 486 22 504 76 q 215 10 324 10 q 32 15 114 10 q 17 16 29 15 q 3 17 6 17 l 6 46 q 17 134 10 83 q 29 224 25 185 q 33 308 33 264 q -3 600 33 461 m 19 596 q 50 336 50 469 q 45 228 50 281 q 32 122 40 175 q 22 54 24 68 q 204 49 104 49 q 454 60 321 49 q 465 168 465 99 q 443 276 465 231 q 292 217 376 217 q 186 232 236 217 q 196 267 186 244 q 251 251 232 251 q 322 271 297 251 q 325 326 325 313 q 306 397 325 371 q 207 382 246 382 q 203 421 203 397 q 344 443 293 443 q 444 413 400 443 q 464 517 464 474 q 429 615 464 575 q 197 606 300 606 q 101 613 151 606 q 43 619 50 619 q 19 596 19 619 m 40 794 q 74 736 40 767 q 133 693 99 714 q 267 824 222 751 q 344 757 315 794 q 379 693 374 719 q 451 774 451 722 q 393 865 451 813 q 321 920 360 894 q 269 960 282 946 q 239 963 244 963 q 203 951 221 963 q 54 822 138 890 q 40 794 40 810 m 26 781 q 50 831 26 810 q 131 903 86 861 q 197 961 176 944 q 253 976 219 976 q 296 972 271 976 q 355 926 314 954 q 425 872 396 897 q 493 760 493 811 q 372 642 493 681 q 288 772 363 717 q 149 646 232 700 q 69 701 101 672 q 26 781 26 740 z "},"":{"ha":493,"x_min":-3,"x_max":504,"o":"m -3 600 q 43 643 -3 643 q 208 622 131 622 q 288 624 249 622 q 356 626 328 625 q 405 629 383 628 q 438 632 426 631 q 451 633 450 633 q 503 506 503 574 q 471 356 503 436 q 445 376 465 360 q 406 398 425 392 q 356 404 388 404 q 339 403 347 404 q 364 315 364 369 q 360 246 364 282 l 351 238 q 436 286 396 250 q 449 299 439 289 q 463 311 460 308 l 479 278 q 504 157 504 224 q 486 22 504 76 q 215 10 324 10 q 32 15 114 10 q 17 16 29 15 q 3 17 6 17 l 6 46 q 17 134 10 83 q 29 224 25 185 q 33 308 33 264 q -3 600 33 461 m 19 596 q 50 336 50 469 q 45 228 50 281 q 32 122 40 175 q 22 54 24 68 q 204 49 104 49 q 454 60 321 49 q 465 168 465 99 q 443 276 465 231 q 292 217 376 217 q 186 232 236 217 q 196 267 186 244 q 251 251 232 251 q 322 271 297 251 q 325 326 325 313 q 306 397 325 371 q 207 382 246 382 q 203 421 203 397 q 344 443 293 443 q 444 413 400 443 q 464 517 464 474 q 429 615 464 575 q 197 606 300 606 q 101 613 151 606 q 43 619 50 619 q 19 596 19 619 m 43 771 q 59 728 43 746 q 96 710 75 710 q 169 734 140 710 q 199 799 199 758 q 132 849 199 849 q 69 827 94 849 q 43 771 43 806 m 282 771 q 298 728 282 746 q 335 710 314 710 q 408 734 379 710 q 438 799 438 758 q 371 849 438 849 q 308 827 333 849 q 282 771 282 806 m 26 760 q 61 836 26 807 q 143 865 96 865 q 238 788 238 865 q 200 703 238 736 q 107 671 163 671 q 49 698 72 671 q 26 760 26 725 m 265 760 q 300 836 265 807 q 382 865 335 865 q 476 788 476 865 q 439 703 476 736 q 346 671 401 671 q 288 698 311 671 q 265 760 265 725 z "},"":{"ha":310,"x_min":-156,"x_max":306,"o":"m -108 954 q -32 853 -104 951 q 81 733 40 756 q 229 715 114 715 q 215 785 221 758 q 192 847 208 811 q 153 903 175 883 q 92 939 131 924 q 1 954 53 954 l -108 954 m -156 969 l 15 969 q 118 951 74 969 q 188 909 163 933 q 231 844 213 885 q 256 776 250 803 q 271 707 263 750 q 274 690 272 703 q 276 674 276 678 l 243 674 q 81 694 117 674 q 22 744 54 708 q -35 813 -11 779 q -83 880 -60 846 q -111 918 -107 914 q -124 933 -114 921 q -142 956 -133 946 q -156 969 -150 965 m 11 535 q 58 310 58 475 q 49 215 58 278 q 33 105 40 153 q 25 56 25 57 q 81 60 51 60 q 151 58 111 60 q 217 56 192 56 q 253 69 239 56 q 267 104 267 82 q 253 169 267 110 q 239 243 239 228 q 249 360 239 283 q 258 497 258 436 q 240 546 258 528 q 192 564 221 564 q 11 535 140 564 m -17 525 l -15 543 q 97 569 79 567 q 210 579 153 579 q 272 551 247 576 q 297 486 297 525 q 288 347 297 424 q 278 232 278 269 q 292 166 278 224 q 306 93 306 108 q 283 38 306 58 q 228 17 260 17 q 160 19 201 17 q 90 21 118 21 q 38 17 61 21 l 10 13 l 7 40 q 24 155 6 49 q 42 299 42 261 q 33 410 42 365 q 14 476 24 456 q -17 525 4 496 z "},"":{"ha":310,"x_min":-17,"x_max":413,"o":"m 13 713 q 160 731 126 713 q 273 851 200 753 q 350 951 346 949 l 240 951 q 150 936 189 951 q 89 901 111 921 q 50 844 67 881 q 27 782 33 808 q 13 713 21 756 m -10 674 q 35 842 13 797 q 251 968 94 968 l 413 968 q 368 906 410 967 q 273 779 326 844 q 185 696 219 714 q 24 674 143 674 l -10 674 m 11 535 q 58 310 58 475 q 49 215 58 278 q 33 105 40 153 q 25 56 25 57 q 81 60 51 60 q 151 58 111 60 q 217 56 192 56 q 253 69 239 56 q 267 104 267 82 q 253 169 267 110 q 239 243 239 228 q 249 360 239 283 q 258 497 258 436 q 240 546 258 528 q 192 564 221 564 q 11 535 140 564 m -17 525 l -15 543 q 97 569 79 567 q 210 579 153 579 q 272 551 247 576 q 297 486 297 525 q 288 347 297 424 q 278 232 278 269 q 292 166 278 224 q 306 93 306 108 q 283 38 306 58 q 228 17 260 17 q 160 19 201 17 q 90 21 118 21 q 38 17 61 21 l 10 13 l 7 40 q 24 155 6 49 q 42 299 42 261 q 33 410 42 365 q 14 476 24 456 q -17 525 4 496 z "},"":{"ha":310,"x_min":-81,"x_max":386,"o":"m -67 801 q -33 743 -67 774 q 26 700 -8 721 q 160 831 115 758 q 238 764 208 801 q 272 700 267 726 q 344 781 344 729 q 286 872 344 819 q 214 927 253 901 q 163 967 175 953 q 132 969 138 969 q 96 958 114 969 q -53 829 31 897 q -67 801 -67 817 m -81 788 q -57 838 -81 817 q 24 910 -21 868 q 90 968 69 951 q 146 983 113 983 q 189 979 164 983 q 248 933 207 961 q 318 879 289 904 q 386 767 386 818 q 265 649 386 688 q 181 779 256 724 q 42 653 125 707 q -37 708 -6 679 q -81 788 -81 747 m 11 535 q 58 310 58 475 q 49 215 58 278 q 33 105 40 153 q 25 56 25 57 q 81 60 51 60 q 151 58 111 60 q 217 56 192 56 q 253 69 239 56 q 267 104 267 82 q 253 169 267 110 q 239 243 239 228 q 249 360 239 283 q 258 497 258 436 q 240 546 258 528 q 192 564 221 564 q 11 535 140 564 m -17 525 l -15 543 q 97 569 79 567 q 210 579 153 579 q 272 551 247 576 q 297 486 297 525 q 288 347 297 424 q 278 232 278 269 q 292 166 278 224 q 306 93 306 108 q 283 38 306 58 q 228 17 260 17 q 160 19 201 17 q 90 21 118 21 q 38 17 61 21 l 10 13 l 7 40 q 24 155 6 49 q 42 299 42 261 q 33 410 42 365 q 14 476 24 456 q -17 525 4 496 z "},"":{"ha":310,"x_min":-71,"x_max":379,"o":"m -54 804 q -38 761 -54 779 q -1 743 -22 743 q 72 767 43 743 q 101 832 101 792 q 35 882 101 882 q -28 860 -3 882 q -54 804 -54 839 m 185 804 q 201 761 185 779 q 238 743 217 743 q 311 767 282 743 q 340 832 340 792 q 274 882 340 882 q 210 860 236 882 q 185 804 185 839 m -71 793 q -36 869 -71 840 q 46 899 -1 899 q 140 821 140 899 q 103 737 140 769 q 10 704 65 704 q -48 731 -25 704 q -71 793 -71 758 m 168 793 q 203 869 168 840 q 285 899 238 899 q 379 821 379 899 q 342 737 379 769 q 249 704 304 704 q 191 731 214 704 q 168 793 168 758 m 11 535 q 58 310 58 475 q 49 215 58 278 q 33 105 40 153 q 25 56 25 57 q 81 60 51 60 q 151 58 111 60 q 217 56 192 56 q 253 69 239 56 q 267 104 267 82 q 253 169 267 110 q 239 243 239 228 q 249 360 239 283 q 258 497 258 436 q 240 546 258 528 q 192 564 221 564 q 11 535 140 564 m -17 525 l -15 543 q 97 569 79 567 q 210 579 153 579 q 272 551 247 576 q 297 486 297 525 q 288 347 297 424 q 278 232 278 269 q 292 166 278 224 q 306 93 306 108 q 283 38 306 58 q 228 17 260 17 q 160 19 201 17 q 90 21 118 21 q 38 17 61 21 l 10 13 l 7 40 q 24 155 6 49 q 42 299 42 261 q 33 410 42 365 q 14 476 24 456 q -17 525 4 496 z "},"":{"ha":703,"x_min":-15,"x_max":725,"o":"m 0 236 l 47 236 q 49 136 49 201 q 40 21 49 79 q 150 29 99 29 q 249 17 183 29 q 374 6 315 6 q 595 104 507 6 q 683 350 683 203 q 605 540 683 461 q 415 619 526 619 q 234 591 344 619 q 51 553 124 563 q 39 535 39 550 q 44 314 39 486 l 0 315 l 0 236 m 238 238 l 303 238 l 306 306 l 239 308 q 254 357 242 328 q 332 332 300 357 q 364 271 364 307 q 329 209 364 235 q 243 181 294 183 q 238 238 240 199 m -15 194 l -14 222 q -14 279 -14 249 q -12 331 -14 310 l 31 329 q 28 422 31 349 q 25 521 25 494 q 61 565 25 560 q 243 604 133 575 q 429 633 353 633 q 638 547 551 633 q 725 336 725 460 q 629 72 725 179 q 388 -36 533 -36 q 260 -24 326 -36 q 164 -12 194 -12 q 58 -21 114 -12 l 22 -26 l 26 10 q 35 122 35 65 q 34 150 35 126 q 33 194 33 174 l -15 194 z "},"":{"ha":731,"x_min":-4,"x_max":742,"o":"m 104 725 q 224 772 158 772 q 320 740 249 772 q 426 708 392 708 q 527 756 486 708 q 568 874 568 804 q 553 972 568 933 q 439 921 507 921 q 326 951 394 921 q 226 981 257 981 q 161 962 186 981 q 124 905 136 943 q 108 826 113 867 q 104 725 104 786 m 88 644 l 88 707 q 92 824 88 779 q 112 913 97 869 q 158 976 126 956 q 240 996 190 996 q 346 965 278 996 q 453 935 414 935 q 544 978 506 935 q 560 997 549 983 q 575 1013 572 1010 q 584 990 576 1008 q 593 968 592 972 q 610 860 610 924 q 561 724 610 781 q 440 667 513 667 q 328 699 401 667 q 238 731 256 731 q 180 717 210 731 q 136 690 150 704 q 88 644 107 661 m 18 56 q 113 28 60 28 q 193 47 158 28 q 215 244 215 132 q 208 325 215 286 q 381 169 293 294 q 482 -58 469 43 q 572 -67 510 -67 q 650 -46 606 -67 q 687 124 672 -6 q 706 364 701 254 l 708 472 q 701 624 708 526 q 567 668 657 668 q 496 661 540 668 q 522 508 522 589 q 506 294 522 426 q 67 643 315 643 q 24 621 24 643 q 40 478 24 563 q 57 333 57 394 q 18 56 57 219 m -4 33 q 39 322 39 189 q 22 465 39 379 q 6 611 6 551 q 76 661 6 661 q 497 369 311 661 q 504 497 504 433 q 498 581 504 550 q 468 675 492 611 q 576 686 546 686 q 733 626 674 686 q 742 463 742 493 q 739 335 742 418 q 721 111 736 251 q 679 -78 706 -29 q 581 -104 626 -104 q 467 -89 515 -104 q 384 121 454 21 q 251 265 314 221 q 252 250 251 261 q 253 235 253 239 q 226 18 253 111 q 122 -11 175 -11 q 68 -4 93 -11 q 31 10 43 3 q -4 33 19 18 z "},"":{"ha":517,"x_min":-54,"x_max":536,"o":"m 100 183 q 113 217 100 203 q 146 231 126 231 q 179 222 165 231 q 193 200 193 214 q 181 169 193 182 q 151 156 169 156 q 115 164 131 156 q 100 183 100 172 m 6 264 q 82 83 6 122 l 65 75 q 126 31 86 47 q 207 14 167 14 q 417 76 336 14 q 497 244 497 138 q 411 397 497 333 q 204 461 325 461 q 77 405 132 461 q 6 264 22 349 m 139 178 q 163 172 150 172 q 176 186 176 172 q 157 192 171 192 q 139 178 142 192 m -11 253 l -11 256 l -11 258 q 69 419 8 360 q 215 478 129 478 q 441 408 346 478 q 536 233 536 338 q 449 46 536 117 q 218 -25 363 -25 q 127 -6 174 -25 q 54 47 81 13 q 32 76 33 75 l 39 79 q -11 253 -11 136 m -7 789 q 69 688 -3 786 q 182 568 142 590 q 331 550 215 550 q 316 619 322 593 q 293 682 310 646 q 254 738 276 718 q 193 774 232 758 q 103 789 154 789 l -7 789 m -54 804 l 117 804 q 219 786 175 804 q 289 744 264 768 q 333 678 314 719 q 358 611 351 638 q 372 542 364 585 q 376 525 374 538 q 378 508 378 513 l 344 508 q 182 529 218 508 q 123 578 156 543 q 66 647 90 614 q 18 715 42 681 q -10 753 -6 749 q -22 768 -12 756 q -40 790 -32 781 q -54 804 -49 800 z "},"":{"ha":517,"x_min":-11,"x_max":536,"o":"m 100 183 q 113 217 100 203 q 146 231 126 231 q 179 222 165 231 q 193 200 193 214 q 181 169 193 182 q 151 156 169 156 q 115 164 131 156 q 100 183 100 172 m 6 264 q 82 83 6 122 l 65 75 q 126 31 86 47 q 207 14 167 14 q 417 76 336 14 q 497 244 497 138 q 411 397 497 333 q 204 461 325 461 q 77 405 132 461 q 6 264 22 349 m 139 178 q 163 172 150 172 q 176 186 176 172 q 157 192 171 192 q 139 178 142 192 m -11 253 l -11 256 l -11 258 q 69 419 8 360 q 215 478 129 478 q 441 408 346 478 q 536 233 536 338 q 449 46 536 117 q 218 -25 363 -25 q 127 -6 174 -25 q 54 47 81 13 q 32 76 33 75 l 39 79 q -11 253 -11 136 m 132 536 q 279 554 246 536 q 392 674 319 576 q 469 775 465 772 l 360 775 q 269 760 308 775 q 208 724 231 744 q 169 668 186 704 q 147 606 153 632 q 132 536 140 579 m 110 497 q 154 665 132 621 q 371 792 214 792 l 532 792 q 488 729 529 790 q 392 603 446 668 q 304 519 339 538 q 143 497 263 497 l 110 497 z "},"":{"ha":517,"x_min":-11,"x_max":536,"o":"m 100 183 q 113 217 100 203 q 146 231 126 231 q 179 222 165 231 q 193 200 193 214 q 181 169 193 182 q 151 156 169 156 q 115 164 131 156 q 100 183 100 172 m 6 264 q 82 83 6 122 l 65 75 q 126 31 86 47 q 207 14 167 14 q 417 76 336 14 q 497 244 497 138 q 411 397 497 333 q 204 461 325 461 q 77 405 132 461 q 6 264 22 349 m 139 178 q 163 172 150 172 q 176 186 176 172 q 157 192 171 192 q 139 178 142 192 m -11 253 l -11 256 l -11 258 q 69 419 8 360 q 215 478 129 478 q 441 408 346 478 q 536 233 536 338 q 449 46 536 117 q 218 -25 363 -25 q 127 -6 174 -25 q 54 47 81 13 q 32 76 33 75 l 39 79 q -11 253 -11 136 m 53 642 q 86 583 53 614 q 146 540 111 561 q 279 671 235 599 q 357 604 328 642 q 392 540 386 567 q 464 621 464 569 q 406 713 464 660 q 333 767 372 742 q 282 807 294 793 q 251 810 257 810 q 215 799 233 810 q 67 669 150 738 q 53 642 53 657 m 39 628 q 63 678 39 657 q 144 750 99 708 q 210 808 189 792 q 265 824 232 824 q 308 819 283 824 q 367 773 326 801 q 438 719 408 744 q 506 607 506 658 q 385 489 506 528 q 300 619 375 564 q 161 493 244 547 q 82 549 114 519 q 39 628 39 588 z "},"":{"ha":517,"x_min":-11,"x_max":536,"o":"m 100 183 q 113 217 100 203 q 146 231 126 231 q 179 222 165 231 q 193 200 193 214 q 181 169 193 182 q 151 156 169 156 q 115 164 131 156 q 100 183 100 172 m 6 264 q 82 83 6 122 l 65 75 q 126 31 86 47 q 207 14 167 14 q 417 76 336 14 q 497 244 497 138 q 411 397 497 333 q 204 461 325 461 q 77 405 132 461 q 6 264 22 349 m 139 178 q 163 172 150 172 q 176 186 176 172 q 157 192 171 192 q 139 178 142 192 m -11 253 l -11 256 l -11 258 q 69 419 8 360 q 215 478 129 478 q 441 408 346 478 q 536 233 536 338 q 449 46 536 117 q 218 -25 363 -25 q 127 -6 174 -25 q 54 47 81 13 q 32 76 33 75 l 39 79 q -11 253 -11 136 m 21 558 q 140 606 75 606 q 237 574 165 606 q 343 542 308 542 q 444 590 403 542 q 485 707 485 638 q 469 806 485 767 q 356 754 424 754 q 242 784 311 754 q 143 814 174 814 q 78 795 103 814 q 41 738 53 776 q 25 660 29 700 q 21 558 21 619 m 4 478 l 4 540 q 9 658 4 613 q 28 746 14 703 q 75 809 43 789 q 157 829 107 829 q 263 799 194 829 q 369 768 331 768 q 461 811 422 768 q 477 830 465 817 q 492 846 489 843 q 501 824 493 842 q 510 801 508 806 q 526 693 526 757 q 478 557 526 614 q 357 500 429 500 q 245 532 318 500 q 154 564 172 564 q 97 551 126 564 q 53 524 67 538 q 4 478 24 494 z "},"":{"ha":517,"x_min":-11,"x_max":536,"o":"m 100 183 q 113 217 100 203 q 146 231 126 231 q 179 222 165 231 q 193 200 193 214 q 181 169 193 182 q 151 156 169 156 q 115 164 131 156 q 100 183 100 172 m 6 264 q 82 83 6 122 l 65 75 q 126 31 86 47 q 207 14 167 14 q 417 76 336 14 q 497 244 497 138 q 411 397 497 333 q 204 461 325 461 q 77 405 132 461 q 6 264 22 349 m 139 178 q 163 172 150 172 q 176 186 176 172 q 157 192 171 192 q 139 178 142 192 m -11 253 l -11 256 l -11 258 q 69 419 8 360 q 215 478 129 478 q 441 408 346 478 q 536 233 536 338 q 449 46 536 117 q 218 -25 363 -25 q 127 -6 174 -25 q 54 47 81 13 q 32 76 33 75 l 39 79 q -11 253 -11 136 m 53 621 q 69 578 53 596 q 106 560 85 560 q 179 584 150 560 q 208 649 208 608 q 142 699 208 699 q 78 677 104 699 q 53 621 53 656 m 292 621 q 308 578 292 596 q 344 560 324 560 q 418 584 389 560 q 447 649 447 608 q 381 699 447 699 q 317 677 343 699 q 292 621 292 656 m 36 610 q 71 686 36 657 q 153 715 106 715 q 247 638 247 715 q 210 553 247 586 q 117 521 172 521 q 59 548 82 521 q 36 610 36 575 m 275 610 q 310 686 275 657 q 392 715 344 715 q 486 638 486 715 q 449 553 486 586 q 356 521 411 521 q 298 548 321 521 q 275 610 275 575 z "},"":{"ha":528,"x_min":-8,"x_max":549,"o":"m 100 183 q 113 217 100 203 q 146 231 126 231 q 179 222 165 231 q 193 200 193 214 q 181 169 193 182 q 151 156 169 156 q 115 164 131 156 q 100 183 100 172 m 6 264 q 81 83 6 122 l 49 33 q 7 -68 7 -25 q 100 -154 39 -111 q 160 -53 129 -96 l 203 14 l 207 14 q 417 76 336 14 q 497 244 497 138 q 435 376 497 318 q 507 517 507 485 q 451 585 488 558 q 392 617 414 611 q 315 461 390 565 q 306 447 310 453 q 204 461 253 461 q 77 405 132 461 q 6 264 22 349 m 142 175 q 165 169 153 169 q 179 183 179 169 q 160 189 174 189 q 142 175 144 189 m -8 253 q 69 413 8 351 q 218 475 131 475 q 308 465 263 475 q 378 608 375 558 l 379 639 q 406 633 389 638 q 451 615 424 628 q 505 574 478 601 q 549 508 532 546 l 549 503 q 485 367 549 463 q 539 231 539 303 q 455 45 539 115 q 232 -28 371 -25 q 197 -82 226 -35 q 125 -210 160 -137 l 99 -190 q -7 -90 33 -146 q 38 39 -7 -25 l 54 65 q -8 253 -8 118 z "},"":{"ha":467,"x_min":-75,"x_max":489,"o":"m 17 561 q 33 506 19 546 q 47 447 47 467 q 40 363 47 432 q 32 247 32 294 q 85 133 32 179 q 226 86 138 86 q 389 192 328 86 q 450 469 450 299 q 433 575 450 531 q 394 619 417 619 q 350 589 358 619 q 369 542 353 576 q 386 486 386 507 q 365 410 386 442 q 314 379 344 379 q 271 435 289 379 q 253 569 253 490 q 215 595 253 585 q 122 606 176 606 q 17 561 39 606 m -4 561 l 1 569 q 133 622 38 622 q 243 607 194 622 q 292 558 292 592 q 299 473 292 511 q 313 418 306 435 q 326 396 321 401 q 356 421 342 399 q 369 475 369 443 q 354 522 369 490 q 335 569 339 553 q 334 572 335 571 q 332 576 333 574 q 335 585 335 582 q 361 622 340 608 q 406 636 382 636 q 467 585 444 636 q 489 458 489 533 q 419 160 489 272 q 238 47 350 47 q 77 101 139 47 q 15 236 15 156 q 23 355 15 286 q 31 435 31 424 q 17 491 31 449 q 0 546 3 533 l -4 561 m -28 922 q 49 822 -24 919 q 161 701 121 724 q 310 683 194 683 q 295 753 301 726 q 272 815 289 779 q 233 872 256 851 q 172 907 211 892 q 82 922 133 922 l -28 922 m -75 938 l 96 938 q 199 919 154 938 q 268 877 243 901 q 312 812 293 853 q 337 744 331 771 q 351 675 343 718 q 355 658 353 671 q 357 642 357 646 l 324 642 q 161 663 197 642 q 102 712 135 676 q 45 781 69 747 q -3 848 21 814 q -31 886 -26 882 q -43 901 -33 889 q -61 924 -53 914 q -75 938 -69 933 z "},"":{"ha":467,"x_min":-4,"x_max":517,"o":"m 17 561 q 33 506 19 546 q 47 447 47 467 q 40 363 47 432 q 32 247 32 294 q 85 133 32 179 q 226 86 138 86 q 389 192 328 86 q 450 469 450 299 q 433 575 450 531 q 394 619 417 619 q 350 589 358 619 q 369 542 353 576 q 386 486 386 507 q 365 410 386 442 q 314 379 344 379 q 271 435 289 379 q 253 569 253 490 q 215 595 253 585 q 122 606 176 606 q 17 561 39 606 m -4 561 l 1 569 q 133 622 38 622 q 243 607 194 622 q 292 558 292 592 q 299 473 292 511 q 313 418 306 435 q 326 396 321 401 q 356 421 342 399 q 369 475 369 443 q 354 522 369 490 q 335 569 339 553 q 334 572 335 571 q 332 576 333 574 q 335 585 335 582 q 361 622 340 608 q 406 636 382 636 q 467 585 444 636 q 489 458 489 533 q 419 160 489 272 q 238 47 350 47 q 77 101 139 47 q 15 236 15 156 q 23 355 15 286 q 31 435 31 424 q 17 491 31 449 q 0 546 3 533 l -4 561 m 117 681 q 264 699 231 681 q 377 819 304 721 q 454 919 450 917 l 344 919 q 254 904 293 919 q 193 869 215 889 q 154 813 171 849 q 131 750 138 776 q 117 681 125 724 m 94 642 q 139 810 117 765 q 356 936 199 936 l 517 936 q 472 874 514 935 q 377 747 431 813 q 289 664 324 682 q 128 642 247 642 l 94 642 z "},"":{"ha":467,"x_min":-4,"x_max":489,"o":"m 17 561 q 33 506 19 546 q 47 447 47 467 q 40 363 47 432 q 32 247 32 294 q 85 133 32 179 q 226 86 138 86 q 389 192 328 86 q 450 469 450 299 q 433 575 450 531 q 394 619 417 619 q 350 589 358 619 q 369 542 353 576 q 386 486 386 507 q 365 410 386 442 q 314 379 344 379 q 271 435 289 379 q 253 569 253 490 q 215 595 253 585 q 122 606 176 606 q 17 561 39 606 m -4 561 l 1 569 q 133 622 38 622 q 243 607 194 622 q 292 558 292 592 q 299 473 292 511 q 313 418 306 435 q 326 396 321 401 q 356 421 342 399 q 369 475 369 443 q 354 522 369 490 q 335 569 339 553 q 334 572 335 571 q 332 576 333 574 q 335 585 335 582 q 361 622 340 608 q 406 636 382 636 q 467 585 444 636 q 489 458 489 533 q 419 160 489 272 q 238 47 350 47 q 77 101 139 47 q 15 236 15 156 q 23 355 15 286 q 31 435 31 424 q 17 491 31 449 q 0 546 3 533 l -4 561 m 32 775 q 65 717 32 747 q 125 674 90 694 q 258 804 214 732 q 336 738 307 775 q 371 674 365 700 q 443 754 443 703 q 385 846 443 793 q 313 901 351 875 q 261 940 274 926 q 231 943 236 943 q 194 932 213 943 q 46 803 129 871 q 32 775 32 790 m 18 761 q 42 811 18 790 q 123 883 78 842 q 189 942 168 925 q 244 957 211 957 q 288 953 263 957 q 347 906 306 935 q 417 853 388 878 q 485 740 485 792 q 364 622 485 661 q 279 753 354 697 q 140 626 224 681 q 61 682 93 653 q 18 761 18 721 z "},"":{"ha":467,"x_min":-4,"x_max":489,"o":"m 17 547 q 33 492 19 532 q 47 433 47 453 q 40 349 47 418 q 32 233 32 281 q 85 119 32 165 q 226 72 138 72 q 389 178 328 72 q 450 456 450 285 q 433 561 450 517 q 394 606 417 606 q 350 575 358 606 q 369 528 353 563 q 386 472 386 493 q 365 397 386 428 q 314 365 344 365 q 271 421 289 365 q 253 556 253 476 q 215 581 253 571 q 122 592 176 592 q 17 547 39 592 m -4 547 l 1 556 q 133 608 38 608 q 243 593 194 608 q 292 544 292 578 q 299 459 292 497 q 313 404 306 421 q 326 382 321 388 q 356 407 342 385 q 369 461 369 429 q 354 508 369 476 q 335 556 339 539 q 334 558 335 557 q 332 563 333 560 q 335 571 335 568 q 361 608 340 594 q 406 622 382 622 q 467 571 444 622 q 489 444 489 519 q 419 146 489 258 q 238 33 350 33 q 77 88 139 33 q 15 222 15 142 q 23 341 15 272 q 31 421 31 410 q 17 477 31 435 q 0 532 3 519 l -4 547 m 32 726 q 48 683 32 701 q 85 665 64 665 q 158 690 129 665 q 188 754 188 714 q 121 804 188 804 q 58 783 83 804 q 32 726 32 761 m 271 726 q 287 683 271 701 q 324 665 303 665 q 397 690 368 665 q 426 754 426 714 q 360 804 426 804 q 297 783 322 804 q 271 726 271 761 m 15 715 q 50 792 15 763 q 132 821 85 821 q 226 743 226 821 q 189 659 226 692 q 96 626 151 626 q 38 653 61 626 q 15 715 15 681 m 254 715 q 289 792 254 763 q 371 821 324 821 q 465 743 465 821 q 428 659 465 692 q 335 626 390 626 q 277 653 300 626 q 254 715 254 681 z "},"":{"ha":590,"x_min":-14,"x_max":626,"o":"m 3 556 q 21 506 3 525 q 93 424 71 450 q 150 336 115 397 q 185 231 185 275 q 181 8 185 75 q 328 -3 238 -3 q 385 28 363 -3 q 408 101 408 58 q 404 208 408 143 q 400 314 400 272 q 425 367 400 336 q 468 416 433 376 q 515 472 503 456 q 549 517 528 488 q 579 570 571 547 q 588 614 588 593 q 572 645 588 632 q 533 658 556 658 q 439 635 478 658 q 465 560 465 606 q 388 392 465 488 q 347 481 364 447 q 301 565 331 515 q 237 639 271 614 q 167 664 203 664 q 51 632 99 664 q 3 556 3 600 m -14 544 q 42 647 -14 613 q 178 681 97 681 q 257 655 219 681 q 325 583 294 629 q 371 507 356 536 q 406 435 386 478 q 449 549 449 494 q 429 606 449 582 q 407 631 415 619 l 436 647 q 544 675 483 675 q 601 655 576 675 q 626 603 626 635 q 622 570 626 588 q 612 539 617 553 q 594 505 607 525 q 574 474 581 485 q 548 442 567 464 q 523 412 529 419 q 496 381 517 404 q 472 354 475 357 q 463 344 468 350 q 457 338 458 339 q 439 303 439 314 q 443 199 439 264 q 447 90 447 133 q 417 -2 447 38 q 339 -42 386 -42 q 186 -31 246 -42 q 160 -25 169 -25 l 161 -1 q 165 219 165 64 q 11 476 165 307 q -14 544 -14 506 m 213 728 q 360 746 326 728 q 473 866 400 768 q 550 967 546 964 l 440 967 q 350 951 389 967 q 289 916 311 936 q 250 860 267 896 q 227 797 233 824 q 213 728 221 771 m 190 689 q 235 857 213 813 q 451 983 294 983 l 613 983 q 568 921 610 982 q 473 794 526 860 q 385 711 419 729 q 224 689 343 689 l 190 689 z "},"":{"ha":656,"x_min":-6,"x_max":718,"o":"m 8 -7 q 178 4 72 4 q 215 17 200 4 q 231 53 231 31 q 228 120 231 58 q 225 197 225 182 q 228 335 225 236 q 232 493 232 433 q 271 585 232 547 q 367 622 310 622 q 469 594 417 622 l 451 550 q 357 523 396 550 q 318 456 318 496 q 360 321 318 383 q 401 213 401 258 q 385 167 401 186 q 344 149 368 149 q 290 167 319 149 l 282 8 q 338 -4 299 6 q 408 -21 376 -14 q 458 -28 440 -28 q 592 21 539 -28 q 646 149 646 69 q 621 242 646 203 q 565 296 596 281 q 510 327 535 311 q 485 357 485 343 q 494 382 485 365 q 521 406 504 399 q 660 814 571 532 q 556 774 618 774 q 449 794 513 774 q 349 814 386 814 q 135 733 226 814 q 44 535 44 651 l 44 264 q 35 166 44 232 q 17 47 26 100 l 8 -7 m -6 -21 q 3 35 -6 -18 q 22 154 13 89 q 31 250 31 219 l 31 521 q 124 747 31 667 q 356 828 217 828 q 464 808 397 828 q 569 788 531 788 q 654 821 621 788 l 682 856 l 718 846 l 700 792 q 561 382 613 511 l 557 371 l 546 367 q 528 344 535 361 q 565 322 533 340 q 620 286 596 304 q 666 228 644 268 q 688 135 688 188 q 626 -12 688 44 q 472 -69 564 -69 q 422 -63 451 -69 q 353 -47 393 -57 q 290 -33 313 -37 l 267 -28 l 269 18 q 240 -24 263 -11 q 192 -37 217 -37 q 26 -49 86 -37 q 10 -51 22 -50 q -6 -54 -1 -53 l -6 -21 m 267 208 l 319 178 q 358 163 346 163 q 378 173 369 163 q 388 199 388 183 q 374 253 388 228 q 346 298 361 279 q 317 355 331 317 q 304 442 304 393 q 345 527 304 497 q 446 563 386 557 l 447 567 q 381 581 413 581 q 305 551 336 581 q 274 479 274 521 q 270 326 274 419 q 267 208 267 232 z "},"":{"ha":842,"x_min":-14,"x_max":853,"o":"m 264 313 q 277 360 264 339 q 313 385 290 381 l 404 244 l 399 242 q 371 261 381 258 q 327 269 353 265 q 291 275 301 272 q 272 286 281 278 q 264 313 264 294 m 3 51 q 33 6 3 25 q 108 -14 64 -14 q 189 3 156 -14 q 222 42 222 19 q 232 188 222 144 q 408 166 365 183 q 483 72 450 149 q 504 3 503 22 q 610 -9 539 0 q 731 -18 681 -18 q 788 6 763 -18 q 814 51 814 31 q 783 164 814 100 q 716 276 751 228 q 615 406 681 324 q 519 531 550 489 q 474 639 479 588 q 347 640 392 650 q 247 586 303 629 q 139 190 247 381 q 63 122 124 164 q 3 51 3 79 m 303 301 q 303 296 303 299 l 304 293 q 349 285 311 289 q 338 301 346 289 q 322 324 329 314 q 314 338 315 335 q 303 301 303 322 m -14 40 q 14 103 -14 72 q 75 150 31 119 q 124 196 110 171 q 229 575 229 381 l 229 593 q 315 647 278 631 q 413 663 353 663 q 510 651 432 663 l 513 631 q 553 536 519 582 q 653 406 585 492 q 756 272 721 319 q 822 159 790 225 q 853 40 853 93 q 819 -24 853 8 q 742 -57 785 -57 q 617 -47 689 -57 q 514 -36 553 -39 l 490 -35 l 488 -11 q 469 51 485 11 q 409 129 442 115 q 265 147 376 143 q 261 31 261 125 q 219 -29 261 -6 q 119 -53 178 -53 q 26 -26 65 -53 q -14 40 -14 0 m 147 969 q 224 869 151 967 q 336 749 296 771 q 485 731 369 731 q 470 800 476 774 q 447 863 464 826 q 408 919 431 899 q 347 954 386 939 q 257 969 308 969 l 147 969 m 100 985 l 271 985 q 374 967 329 985 q 443 924 418 949 q 487 859 468 900 q 512 792 506 818 q 526 722 518 765 q 530 706 528 718 q 532 689 532 693 l 499 689 q 336 710 372 689 q 277 759 310 724 q 220 828 244 794 q 172 895 196 861 q 144 933 149 929 q 132 949 142 936 q 114 971 122 961 q 100 985 106 981 z "},"":{"ha":842,"x_min":-14,"x_max":853,"o":"m 264 313 q 277 360 264 339 q 313 385 290 381 l 404 244 l 399 242 q 371 261 381 258 q 327 269 353 265 q 291 275 301 272 q 272 286 281 278 q 264 313 264 294 m 3 51 q 33 6 3 25 q 108 -14 64 -14 q 189 3 156 -14 q 222 42 222 19 q 232 188 222 144 q 408 166 365 183 q 483 72 450 149 q 504 3 503 22 q 610 -9 539 0 q 731 -18 681 -18 q 788 6 763 -18 q 814 51 814 31 q 783 164 814 100 q 716 276 751 228 q 615 406 681 324 q 519 531 550 489 q 474 639 479 588 q 347 640 392 650 q 247 586 303 629 q 139 190 247 381 q 63 122 124 164 q 3 51 3 79 m 303 301 q 303 296 303 299 l 304 293 q 349 285 311 289 q 338 301 346 289 q 322 324 329 314 q 314 338 315 335 q 303 301 303 322 m -14 40 q 14 103 -14 72 q 75 150 31 119 q 124 196 110 171 q 229 575 229 381 l 229 593 q 315 647 278 631 q 413 663 353 663 q 510 651 432 663 l 513 631 q 553 536 519 582 q 653 406 585 492 q 756 272 721 319 q 822 159 790 225 q 853 40 853 93 q 819 -24 853 8 q 742 -57 785 -57 q 617 -47 689 -57 q 514 -36 553 -39 l 490 -35 l 488 -11 q 469 51 485 11 q 409 129 442 115 q 265 147 376 143 q 261 31 261 125 q 219 -29 261 -6 q 119 -53 178 -53 q 26 -26 65 -53 q -14 40 -14 0 m 292 728 q 439 746 406 728 q 552 866 479 768 q 629 967 625 964 l 519 967 q 429 951 468 967 q 368 916 390 936 q 329 860 346 896 q 306 797 313 824 q 292 728 300 771 m 269 689 q 314 857 292 813 q 531 983 374 983 l 692 983 q 647 921 689 982 q 552 794 606 860 q 464 711 499 729 q 303 689 422 689 l 269 689 z "},"":{"ha":842,"x_min":-14,"x_max":853,"o":"m 264 313 q 277 360 264 339 q 313 385 290 381 l 404 244 l 399 242 q 371 261 381 258 q 327 269 353 265 q 291 275 301 272 q 272 286 281 278 q 264 313 264 294 m 3 51 q 33 6 3 25 q 108 -14 64 -14 q 189 3 156 -14 q 222 42 222 19 q 232 188 222 144 q 408 166 365 183 q 483 72 450 149 q 504 3 503 22 q 610 -9 539 0 q 731 -18 681 -18 q 788 6 763 -18 q 814 51 814 31 q 783 164 814 100 q 716 276 751 228 q 615 406 681 324 q 519 531 550 489 q 474 639 479 588 q 347 640 392 650 q 247 586 303 629 q 139 190 247 381 q 63 122 124 164 q 3 51 3 79 m 303 301 q 303 296 303 299 l 304 293 q 349 285 311 289 q 338 301 346 289 q 322 324 329 314 q 314 338 315 335 q 303 301 303 322 m -14 40 q 14 103 -14 72 q 75 150 31 119 q 124 196 110 171 q 229 575 229 381 l 229 593 q 315 647 278 631 q 413 663 353 663 q 510 651 432 663 l 513 631 q 553 536 519 582 q 653 406 585 492 q 756 272 721 319 q 822 159 790 225 q 853 40 853 93 q 819 -24 853 8 q 742 -57 785 -57 q 617 -47 689 -57 q 514 -36 553 -39 l 490 -35 l 488 -11 q 469 51 485 11 q 409 129 442 115 q 265 147 376 143 q 261 31 261 125 q 219 -29 261 -6 q 119 -53 178 -53 q 26 -26 65 -53 q -14 40 -14 0 m 207 822 q 240 764 207 794 q 300 721 265 742 q 433 851 389 779 q 511 785 482 822 q 546 721 540 747 q 618 801 618 750 q 560 893 618 840 q 488 948 526 922 q 436 988 449 974 q 406 990 411 990 q 369 979 388 990 q 221 850 304 918 q 207 822 207 838 m 193 808 q 217 858 193 838 q 298 931 253 889 q 364 989 343 972 q 419 1004 386 1004 q 463 1000 438 1004 q 522 953 481 982 q 592 900 563 925 q 660 788 660 839 q 539 669 660 708 q 454 800 529 744 q 315 674 399 728 q 236 729 268 700 q 193 808 193 768 z "},"":{"ha":842,"x_min":-14,"x_max":853,"o":"m 264 313 q 277 360 264 339 q 313 385 290 381 l 404 244 l 399 242 q 371 261 381 258 q 327 269 353 265 q 291 275 301 272 q 272 286 281 278 q 264 313 264 294 m 3 51 q 33 6 3 25 q 108 -14 64 -14 q 189 3 156 -14 q 222 42 222 19 q 232 188 222 144 q 408 166 365 183 q 483 72 450 149 q 504 3 503 22 q 610 -9 539 0 q 731 -18 681 -18 q 788 6 763 -18 q 814 51 814 31 q 783 164 814 100 q 716 276 751 228 q 615 406 681 324 q 519 531 550 489 q 474 639 479 588 q 347 640 392 650 q 247 586 303 629 q 139 190 247 381 q 63 122 124 164 q 3 51 3 79 m 303 301 q 303 296 303 299 l 304 293 q 349 285 311 289 q 338 301 346 289 q 322 324 329 314 q 314 338 315 335 q 303 301 303 322 m -14 40 q 14 103 -14 72 q 75 150 31 119 q 124 196 110 171 q 229 575 229 381 l 229 593 q 315 647 278 631 q 413 663 353 663 q 510 651 432 663 l 513 631 q 553 536 519 582 q 653 406 585 492 q 756 272 721 319 q 822 159 790 225 q 853 40 853 93 q 819 -24 853 8 q 742 -57 785 -57 q 617 -47 689 -57 q 514 -36 553 -39 l 490 -35 l 488 -11 q 469 51 485 11 q 409 129 442 115 q 265 147 376 143 q 261 31 261 125 q 219 -29 261 -6 q 119 -53 178 -53 q 26 -26 65 -53 q -14 40 -14 0 m 175 739 q 294 786 229 786 q 391 754 319 786 q 497 722 463 722 q 598 770 557 722 q 639 888 639 818 q 624 986 639 947 q 510 935 578 935 q 397 965 465 935 q 297 994 328 994 q 232 976 257 994 q 195 919 207 957 q 179 840 183 881 q 175 739 175 800 m 158 658 l 158 721 q 163 838 158 793 q 183 926 168 883 q 229 990 197 969 q 311 1010 261 1010 q 417 979 349 1010 q 524 949 485 949 q 615 992 576 949 q 631 1010 619 997 q 646 1026 643 1024 q 655 1004 647 1022 q 664 982 663 986 q 681 874 681 938 q 632 738 681 794 q 511 681 583 681 q 399 713 472 681 q 308 744 326 744 q 251 731 281 744 q 207 704 221 718 q 158 658 178 675 z "},"":{"ha":842,"x_min":-14,"x_max":853,"o":"m 264 313 q 277 360 264 339 q 313 385 290 381 l 404 244 l 399 242 q 371 261 381 258 q 327 269 353 265 q 291 275 301 272 q 272 286 281 278 q 264 313 264 294 m 3 51 q 33 6 3 25 q 108 -14 64 -14 q 189 3 156 -14 q 222 42 222 19 q 232 188 222 144 q 408 166 365 183 q 483 72 450 149 q 504 3 503 22 q 610 -9 539 0 q 731 -18 681 -18 q 788 6 763 -18 q 814 51 814 31 q 783 164 814 100 q 716 276 751 228 q 615 406 681 324 q 519 531 550 489 q 474 639 479 588 q 347 640 392 650 q 247 586 303 629 q 139 190 247 381 q 63 122 124 164 q 3 51 3 79 m 303 301 q 303 296 303 299 l 304 293 q 349 285 311 289 q 338 301 346 289 q 322 324 329 314 q 314 338 315 335 q 303 301 303 322 m -14 40 q 14 103 -14 72 q 75 150 31 119 q 124 196 110 171 q 229 575 229 381 l 229 593 q 315 647 278 631 q 413 663 353 663 q 510 651 432 663 l 513 631 q 553 536 519 582 q 653 406 585 492 q 756 272 721 319 q 822 159 790 225 q 853 40 853 93 q 819 -24 853 8 q 742 -57 785 -57 q 617 -47 689 -57 q 514 -36 553 -39 l 490 -35 l 488 -11 q 469 51 485 11 q 409 129 442 115 q 265 147 376 143 q 261 31 261 125 q 219 -29 261 -6 q 119 -53 178 -53 q 26 -26 65 -53 q -14 40 -14 0 m 207 801 q 223 758 207 776 q 260 740 239 740 q 333 765 304 740 q 363 829 363 789 q 296 879 363 879 q 233 858 258 879 q 207 801 207 836 m 446 801 q 462 758 446 776 q 499 740 478 740 q 572 765 543 740 q 601 829 601 789 q 535 879 601 879 q 472 858 497 879 q 446 801 446 836 m 190 790 q 225 867 190 838 q 307 896 260 896 q 401 818 401 896 q 364 734 401 767 q 271 701 326 701 q 213 728 236 701 q 190 790 190 756 m 429 790 q 464 867 429 838 q 546 896 499 896 q 640 818 640 896 q 603 734 640 767 q 510 701 565 701 q 452 728 475 701 q 429 790 429 756 z "},"":{"ha":842,"x_min":-14,"x_max":853,"o":"m 264 313 q 277 360 264 339 q 313 385 290 381 l 404 244 l 399 242 q 371 261 381 258 q 327 269 353 265 q 291 275 301 272 q 272 286 281 278 q 264 313 264 294 m 3 51 q 33 6 3 25 q 108 -14 64 -14 q 189 3 156 -14 q 222 42 222 19 q 232 188 222 144 q 408 166 365 183 q 483 72 450 149 q 504 3 503 22 q 610 -9 539 0 q 731 -18 681 -18 q 788 6 763 -18 q 814 51 814 31 q 783 164 814 100 q 716 276 751 228 q 615 406 681 324 q 519 531 550 489 q 481 611 490 569 q 474 660 474 642 q 493 671 483 664 q 558 796 558 714 q 498 903 558 858 q 353 947 438 947 q 264 909 303 947 q 214 811 225 871 q 246 695 214 744 q 335 636 278 646 q 247 586 293 624 q 139 190 247 381 q 63 122 124 164 q 3 51 3 79 m 303 301 q 303 296 303 299 l 304 293 q 349 285 311 289 q 338 301 346 289 q 322 324 329 314 q 314 338 315 335 q 303 301 303 322 m -14 40 q 13 101 -14 75 q 76 151 40 126 q 124 196 111 175 q 229 575 229 381 l 229 593 q 275 625 244 606 q 200 797 200 682 l 200 808 q 367 961 232 961 q 531 910 461 961 q 600 782 600 860 q 513 628 600 681 q 553 536 518 585 q 653 406 585 492 q 756 272 721 319 q 822 159 790 225 q 853 40 853 93 q 819 -24 853 8 q 742 -57 785 -57 q 617 -47 689 -57 q 514 -36 546 -37 l 490 -35 q 489 -24 490 -33 q 488 -11 488 -14 q 469 51 485 11 q 409 129 442 115 q 265 147 376 143 q 261 31 261 125 q 219 -29 261 -6 q 119 -53 178 -53 q 26 -26 65 -53 q -14 40 -14 0 m 293 744 q 306 778 293 764 q 339 792 319 792 q 372 783 358 792 q 386 760 386 774 q 374 729 386 742 q 344 717 363 717 q 308 725 324 717 q 293 744 293 733 m 329 740 q 353 736 338 736 q 367 750 367 736 q 347 756 361 756 q 329 740 333 756 z "},"":{"ha":910,"x_min":-11,"x_max":924,"o":"m 3 51 q 33 6 3 25 q 108 -14 64 -14 q 189 3 156 -14 q 222 42 222 19 q 232 188 222 149 q 408 166 365 183 q 483 72 450 149 q 494 25 490 43 q 621 43 550 43 q 871 54 738 43 q 882 168 882 93 q 860 276 882 231 q 708 217 793 217 q 603 232 653 217 q 613 267 603 244 q 668 251 649 251 q 739 271 714 251 q 742 326 742 313 q 722 397 742 371 q 600 379 639 379 q 596 418 596 394 q 761 443 699 443 q 861 413 817 443 q 881 517 881 474 q 846 618 881 578 q 614 608 717 608 q 476 622 547 608 q 401 635 406 635 q 317 626 349 635 q 247 586 286 617 q 193 301 247 436 q 125 174 156 210 q 65 119 97 142 q 17 85 32 97 q 3 51 3 72 m 264 313 q 280 360 264 340 q 325 385 296 381 l 410 244 l 399 242 q 371 261 381 258 q 327 269 353 265 q 291 275 301 272 q 272 286 281 278 q 264 313 264 294 m -11 38 q 4 90 -11 72 q 55 129 19 107 q 115 179 90 151 q 178 299 142 210 q 232 572 232 433 l 232 590 q 244 599 236 594 q 319 640 285 631 q 415 649 354 649 q 492 635 424 649 q 628 622 560 622 q 858 632 729 622 q 865 633 860 632 l 871 633 q 876 628 872 632 l 881 622 q 922 503 922 575 q 890 353 922 442 q 861 378 872 369 q 827 394 850 386 q 775 401 804 401 q 765 401 771 401 q 758 400 760 400 q 783 313 783 367 q 781 254 783 296 q 781 249 781 250 q 779 243 781 247 l 771 235 q 853 286 808 244 l 879 311 q 889 293 881 308 q 899 275 897 278 q 924 154 924 221 q 911 32 924 75 q 906 14 910 26 q 894 14 901 14 l 888 13 q 635 1 754 1 q 517 -15 568 1 q 502 -21 514 -17 q 488 -25 490 -25 q 481 6 488 -22 q 476 28 479 11 q 471 50 472 44 q 410 126 443 113 q 268 144 376 140 q 264 28 264 115 q 222 -32 264 -8 q 122 -56 181 -56 q 28 -29 68 -56 q -11 38 -11 -3 m 306 299 q 306 293 306 296 l 307 290 q 361 281 313 288 l 326 338 q 306 299 306 325 z "},"":{"ha":582,"x_min":-8,"x_max":604,"o":"m 8 340 q 68 165 8 235 q 222 78 128 96 l 189 1 q 231 -57 231 -21 q 221 -73 231 -65 q 200 -81 211 -81 q 147 -61 164 -81 q 124 -187 124 -110 q 281 -222 197 -222 q 374 -190 336 -222 q 413 -111 413 -157 q 278 31 413 -14 l 299 74 q 536 175 433 81 q 508 214 524 201 q 413 156 471 178 q 301 133 356 133 q 214 159 247 133 q 181 239 181 185 q 215 316 181 285 q 297 347 249 347 q 450 292 375 347 q 493 472 469 389 q 527 563 503 507 q 558 635 551 618 l 553 635 q 511 581 543 604 q 450 557 479 557 q 347 571 407 557 q 244 585 288 585 q 79 509 150 585 q 8 340 8 433 m -8 331 q 64 525 -8 447 q 253 603 136 603 q 361 588 300 603 q 461 574 422 574 q 504 591 479 574 q 538 633 529 608 q 542 644 539 636 l 543 651 l 604 651 q 531 453 551 529 q 489 276 504 365 q 481 233 486 269 q 446 258 460 247 q 308 308 379 308 q 245 285 271 308 q 219 228 219 261 q 313 150 219 150 q 415 171 363 150 q 500 224 467 192 q 518 240 514 238 l 536 225 q 560 200 550 213 q 574 174 567 189 q 578 166 575 172 q 581 157 581 160 l 567 143 q 332 36 464 50 l 329 31 q 417 -26 381 13 q 454 -125 454 -64 q 407 -224 454 -185 q 294 -264 360 -264 q 106 -217 208 -264 l 106 -200 q 149 -22 106 -99 l 161 -26 l 193 49 q 47 151 103 76 q -8 331 -8 226 z "},"":{"ha":493,"x_min":-67,"x_max":504,"o":"m -3 600 q 43 643 -3 643 q 208 622 131 622 q 288 624 249 622 q 356 626 328 625 q 405 629 383 628 q 438 632 426 631 q 451 633 450 633 q 503 506 503 574 q 471 356 503 436 q 445 376 465 360 q 406 398 425 392 q 356 404 388 404 q 339 403 347 404 q 364 315 364 369 q 360 246 364 282 l 351 238 q 436 286 396 250 q 449 299 439 289 q 463 311 460 308 l 479 278 q 504 157 504 224 q 486 22 504 76 q 215 10 324 10 q 32 15 114 10 q 17 16 29 15 q 3 17 6 17 l 6 46 q 17 134 10 83 q 29 224 25 185 q 33 308 33 264 q -3 600 33 461 m 19 596 q 50 336 50 469 q 45 228 50 281 q 32 122 40 175 q 22 54 24 68 q 204 49 104 49 q 454 60 321 49 q 465 168 465 99 q 443 276 465 231 q 292 217 376 217 q 186 232 236 217 q 196 267 186 244 q 251 251 232 251 q 322 271 297 251 q 325 326 325 313 q 306 397 325 371 q 207 382 246 382 q 203 421 203 397 q 344 443 293 443 q 444 413 400 443 q 464 517 464 474 q 429 615 464 575 q 197 606 300 606 q 101 613 151 606 q 43 619 50 619 q 19 596 19 619 m -19 942 q 57 841 -15 939 q 169 721 129 743 q 318 703 203 703 q 303 772 310 746 q 281 835 297 799 q 242 891 264 871 q 181 926 219 911 q 90 942 142 942 l -19 942 m -67 957 l 104 957 q 207 939 163 957 q 276 897 251 921 q 320 831 301 872 q 345 764 339 790 q 360 694 351 738 q 363 678 361 690 q 365 661 365 665 l 332 661 q 169 682 206 661 q 110 731 143 696 q 53 800 78 767 q 6 867 29 833 q -22 906 -18 901 q -35 921 -25 908 q -53 943 -44 933 q -67 957 -61 953 z "},"":{"ha":493,"x_min":-3,"x_max":525,"o":"m -3 600 q 43 643 -3 643 q 208 622 131 622 q 288 624 249 622 q 356 626 328 625 q 405 629 383 628 q 438 632 426 631 q 451 633 450 633 q 503 506 503 574 q 471 356 503 436 q 445 376 465 360 q 406 398 425 392 q 356 404 388 404 q 339 403 347 404 q 364 315 364 369 q 360 246 364 282 l 351 238 q 436 286 396 250 q 449 299 439 289 q 463 311 460 308 l 479 278 q 504 157 504 224 q 486 22 504 76 q 215 10 324 10 q 32 15 114 10 q 17 16 29 15 q 3 17 6 17 l 6 46 q 17 134 10 83 q 29 224 25 185 q 33 308 33 264 q -3 600 33 461 m 19 596 q 50 336 50 469 q 45 228 50 281 q 32 122 40 175 q 22 54 24 68 q 204 49 104 49 q 454 60 321 49 q 465 168 465 99 q 443 276 465 231 q 292 217 376 217 q 186 232 236 217 q 196 267 186 244 q 251 251 232 251 q 322 271 297 251 q 325 326 325 313 q 306 397 325 371 q 207 382 246 382 q 203 421 203 397 q 344 443 293 443 q 444 413 400 443 q 464 517 464 474 q 429 615 464 575 q 197 606 300 606 q 101 613 151 606 q 43 619 50 619 q 19 596 19 619 m 125 700 q 272 718 239 700 q 385 838 313 740 q 463 939 458 936 l 353 939 q 263 924 301 939 q 201 888 224 908 q 163 832 179 868 q 140 769 146 796 q 125 700 133 743 m 103 661 q 147 829 125 785 q 364 956 207 956 l 525 956 q 481 893 522 954 q 385 767 439 832 q 297 683 332 701 q 136 661 256 661 l 103 661 z "},"":{"ha":493,"x_min":-3,"x_max":504,"o":"m -3 600 q 43 643 -3 643 q 208 622 131 622 q 288 624 249 622 q 356 626 328 625 q 405 629 383 628 q 438 632 426 631 q 451 633 450 633 q 503 506 503 574 q 471 356 503 436 q 445 376 465 360 q 406 398 425 392 q 356 404 388 404 q 339 403 347 404 q 364 315 364 369 q 360 246 364 282 l 351 238 q 436 286 396 250 q 449 299 439 289 q 463 311 460 308 l 479 278 q 504 157 504 224 q 486 22 504 76 q 215 10 324 10 q 32 15 114 10 q 17 16 29 15 q 3 17 6 17 l 6 46 q 17 134 10 83 q 29 224 25 185 q 33 308 33 264 q -3 600 33 461 m 19 596 q 50 336 50 469 q 45 228 50 281 q 32 122 40 175 q 22 54 24 68 q 204 49 104 49 q 454 60 321 49 q 465 168 465 99 q 443 276 465 231 q 292 217 376 217 q 186 232 236 217 q 196 267 186 244 q 251 251 232 251 q 322 271 297 251 q 325 326 325 313 q 306 397 325 371 q 207 382 246 382 q 203 421 203 397 q 344 443 293 443 q 444 413 400 443 q 464 517 464 474 q 429 615 464 575 q 197 606 300 606 q 101 613 151 606 q 43 619 50 619 q 19 596 19 619 m 40 794 q 74 736 40 767 q 133 693 99 714 q 267 824 222 751 q 344 757 315 794 q 379 693 374 719 q 451 774 451 722 q 393 865 451 813 q 321 920 360 894 q 269 960 282 946 q 239 963 244 963 q 203 951 221 963 q 54 822 138 890 q 40 794 40 810 m 26 781 q 50 831 26 810 q 131 903 86 861 q 197 961 176 944 q 253 976 219 976 q 296 972 271 976 q 355 926 314 954 q 425 872 396 897 q 493 760 493 811 q 372 642 493 681 q 288 772 363 717 q 149 646 232 700 q 69 701 101 672 q 26 781 26 740 z "},"":{"ha":493,"x_min":-3,"x_max":504,"o":"m -3 600 q 43 643 -3 643 q 208 622 131 622 q 288 624 249 622 q 356 626 328 625 q 405 629 383 628 q 438 632 426 631 q 451 633 450 633 q 503 506 503 574 q 471 356 503 436 q 445 376 465 360 q 406 398 425 392 q 356 404 388 404 q 339 403 347 404 q 364 315 364 369 q 360 246 364 282 l 351 238 q 436 286 396 250 q 449 299 439 289 q 463 311 460 308 l 479 278 q 504 157 504 224 q 486 22 504 76 q 215 10 324 10 q 32 15 114 10 q 17 16 29 15 q 3 17 6 17 l 6 46 q 17 134 10 83 q 29 224 25 185 q 33 308 33 264 q -3 600 33 461 m 19 596 q 50 336 50 469 q 45 228 50 281 q 32 122 40 175 q 22 54 24 68 q 204 49 104 49 q 454 60 321 49 q 465 168 465 99 q 443 276 465 231 q 292 217 376 217 q 186 232 236 217 q 196 267 186 244 q 251 251 232 251 q 322 271 297 251 q 325 326 325 313 q 306 397 325 371 q 207 382 246 382 q 203 421 203 397 q 344 443 293 443 q 444 413 400 443 q 464 517 464 474 q 429 615 464 575 q 197 606 300 606 q 101 613 151 606 q 43 619 50 619 q 19 596 19 619 m 43 771 q 59 728 43 746 q 96 710 75 710 q 169 734 140 710 q 199 799 199 758 q 132 849 199 849 q 69 827 94 849 q 43 771 43 806 m 282 771 q 298 728 282 746 q 335 710 314 710 q 408 734 379 710 q 438 799 438 758 q 371 849 438 849 q 308 827 333 849 q 282 771 282 806 m 26 760 q 61 836 26 807 q 143 865 96 865 q 238 788 238 865 q 200 703 238 736 q 107 671 163 671 q 49 698 72 671 q 26 760 26 725 m 265 760 q 300 836 265 807 q 382 865 335 865 q 476 788 476 865 q 439 703 476 736 q 346 671 401 671 q 288 698 311 671 q 265 760 265 725 z "},"":{"ha":310,"x_min":-156,"x_max":306,"o":"m -108 954 q -32 853 -104 951 q 81 733 40 756 q 229 715 114 715 q 215 785 221 758 q 192 847 208 811 q 153 903 175 883 q 92 939 131 924 q 1 954 53 954 l -108 954 m -156 969 l 15 969 q 118 951 74 969 q 188 909 163 933 q 231 844 213 885 q 256 776 250 803 q 271 707 263 750 q 274 690 272 703 q 276 674 276 678 l 243 674 q 81 694 117 674 q 22 744 54 708 q -35 813 -11 779 q -83 880 -60 846 q -111 918 -107 914 q -124 933 -114 921 q -142 956 -133 946 q -156 969 -150 965 m 11 535 q 58 310 58 475 q 49 215 58 278 q 33 105 40 153 q 25 56 25 57 q 81 60 51 60 q 151 58 111 60 q 217 56 192 56 q 253 69 239 56 q 267 104 267 82 q 253 169 267 110 q 239 243 239 228 q 249 360 239 283 q 258 497 258 436 q 240 546 258 528 q 192 564 221 564 q 11 535 140 564 m -17 525 l -15 543 q 97 569 79 567 q 210 579 153 579 q 272 551 247 576 q 297 486 297 525 q 288 347 297 424 q 278 232 278 269 q 292 166 278 224 q 306 93 306 108 q 283 38 306 58 q 228 17 260 17 q 160 19 201 17 q 90 21 118 21 q 38 17 61 21 l 10 13 l 7 40 q 24 155 6 49 q 42 299 42 261 q 33 410 42 365 q 14 476 24 456 q -17 525 4 496 z "},"":{"ha":310,"x_min":-17,"x_max":413,"o":"m 13 713 q 160 731 126 713 q 273 851 200 753 q 350 951 346 949 l 240 951 q 150 936 189 951 q 89 901 111 921 q 50 844 67 881 q 27 782 33 808 q 13 713 21 756 m -10 674 q 35 842 13 797 q 251 968 94 968 l 413 968 q 368 906 410 967 q 273 779 326 844 q 185 696 219 714 q 24 674 143 674 l -10 674 m 11 535 q 58 310 58 475 q 49 215 58 278 q 33 105 40 153 q 25 56 25 57 q 81 60 51 60 q 151 58 111 60 q 217 56 192 56 q 253 69 239 56 q 267 104 267 82 q 253 169 267 110 q 239 243 239 228 q 249 360 239 283 q 258 497 258 436 q 240 546 258 528 q 192 564 221 564 q 11 535 140 564 m -17 525 l -15 543 q 97 569 79 567 q 210 579 153 579 q 272 551 247 576 q 297 486 297 525 q 288 347 297 424 q 278 232 278 269 q 292 166 278 224 q 306 93 306 108 q 283 38 306 58 q 228 17 260 17 q 160 19 201 17 q 90 21 118 21 q 38 17 61 21 l 10 13 l 7 40 q 24 155 6 49 q 42 299 42 261 q 33 410 42 365 q 14 476 24 456 q -17 525 4 496 z "},"":{"ha":310,"x_min":-81,"x_max":386,"o":"m -67 801 q -33 743 -67 774 q 26 700 -8 721 q 160 831 115 758 q 238 764 208 801 q 272 700 267 726 q 344 781 344 729 q 286 872 344 819 q 214 927 253 901 q 163 967 175 953 q 132 969 138 969 q 96 958 114 969 q -53 829 31 897 q -67 801 -67 817 m -81 788 q -57 838 -81 817 q 24 910 -21 868 q 90 968 69 951 q 146 983 113 983 q 189 979 164 983 q 248 933 207 961 q 318 879 289 904 q 386 767 386 818 q 265 649 386 688 q 181 779 256 724 q 42 653 125 707 q -37 708 -6 679 q -81 788 -81 747 m 11 535 q 58 310 58 475 q 49 215 58 278 q 33 105 40 153 q 25 56 25 57 q 81 60 51 60 q 151 58 111 60 q 217 56 192 56 q 253 69 239 56 q 267 104 267 82 q 253 169 267 110 q 239 243 239 228 q 249 360 239 283 q 258 497 258 436 q 240 546 258 528 q 192 564 221 564 q 11 535 140 564 m -17 525 l -15 543 q 97 569 79 567 q 210 579 153 579 q 272 551 247 576 q 297 486 297 525 q 288 347 297 424 q 278 232 278 269 q 292 166 278 224 q 306 93 306 108 q 283 38 306 58 q 228 17 260 17 q 160 19 201 17 q 90 21 118 21 q 38 17 61 21 l 10 13 l 7 40 q 24 155 6 49 q 42 299 42 261 q 33 410 42 365 q 14 476 24 456 q -17 525 4 496 z "},"":{"ha":310,"x_min":-71,"x_max":379,"o":"m -54 804 q -38 761 -54 779 q -1 743 -22 743 q 72 767 43 743 q 101 832 101 792 q 35 882 101 882 q -28 860 -3 882 q -54 804 -54 839 m 185 804 q 201 761 185 779 q 238 743 217 743 q 311 767 282 743 q 340 832 340 792 q 274 882 340 882 q 210 860 236 882 q 185 804 185 839 m -71 793 q -36 869 -71 840 q 46 899 -1 899 q 140 821 140 899 q 103 737 140 769 q 10 704 65 704 q -48 731 -25 704 q -71 793 -71 758 m 168 793 q 203 869 168 840 q 285 899 238 899 q 379 821 379 899 q 342 737 379 769 q 249 704 304 704 q 191 731 214 704 q 168 793 168 758 m 11 535 q 58 310 58 475 q 49 215 58 278 q 33 105 40 153 q 25 56 25 57 q 81 60 51 60 q 151 58 111 60 q 217 56 192 56 q 253 69 239 56 q 267 104 267 82 q 253 169 267 110 q 239 243 239 228 q 249 360 239 283 q 258 497 258 436 q 240 546 258 528 q 192 564 221 564 q 11 535 140 564 m -17 525 l -15 543 q 97 569 79 567 q 210 579 153 579 q 272 551 247 576 q 297 486 297 525 q 288 347 297 424 q 278 232 278 269 q 292 166 278 224 q 306 93 306 108 q 283 38 306 58 q 228 17 260 17 q 160 19 201 17 q 90 21 118 21 q 38 17 61 21 l 10 13 l 7 40 q 24 155 6 49 q 42 299 42 261 q 33 410 42 365 q 14 476 24 456 q -17 525 4 496 z "},"":{"ha":703,"x_min":-15,"x_max":725,"o":"m 0 236 l 47 236 q 49 136 49 201 q 40 21 49 79 q 150 29 99 29 q 249 17 183 29 q 374 6 315 6 q 595 104 507 6 q 683 350 683 203 q 605 540 683 461 q 415 619 526 619 q 234 591 344 619 q 51 553 124 563 q 39 535 39 550 q 44 314 39 486 l 0 315 l 0 236 m 238 238 l 303 238 l 306 306 l 239 308 q 254 357 242 328 q 332 332 300 357 q 364 271 364 307 q 329 209 364 235 q 243 181 294 183 q 238 238 240 199 m -15 194 l -14 222 q -14 279 -14 249 q -12 331 -14 310 l 31 329 q 28 422 31 349 q 25 521 25 494 q 61 565 25 560 q 243 604 133 575 q 429 633 353 633 q 638 547 551 633 q 725 336 725 460 q 629 72 725 179 q 388 -36 533 -36 q 260 -24 326 -36 q 164 -12 194 -12 q 58 -21 114 -12 l 22 -26 l 26 10 q 35 122 35 65 q 34 150 35 126 q 33 194 33 174 l -15 194 z "},"":{"ha":731,"x_min":-4,"x_max":742,"o":"m 104 725 q 224 772 158 772 q 320 740 249 772 q 426 708 392 708 q 527 756 486 708 q 568 874 568 804 q 553 972 568 933 q 439 921 507 921 q 326 951 394 921 q 226 981 257 981 q 161 962 186 981 q 124 905 136 943 q 108 826 113 867 q 104 725 104 786 m 88 644 l 88 707 q 92 824 88 779 q 112 913 97 869 q 158 976 126 956 q 240 996 190 996 q 346 965 278 996 q 453 935 414 935 q 544 978 506 935 q 560 997 549 983 q 575 1013 572 1010 q 584 990 576 1008 q 593 968 592 972 q 610 860 610 924 q 561 724 610 781 q 440 667 513 667 q 328 699 401 667 q 238 731 256 731 q 180 717 210 731 q 136 690 150 704 q 88 644 107 661 m 18 56 q 113 28 60 28 q 193 47 158 28 q 215 244 215 132 q 208 325 215 286 q 381 169 293 294 q 482 -58 469 43 q 572 -67 510 -67 q 650 -46 606 -67 q 687 124 672 -6 q 706 364 701 254 l 708 472 q 701 624 708 526 q 567 668 657 668 q 496 661 540 668 q 522 508 522 589 q 506 294 522 426 q 67 643 315 643 q 24 621 24 643 q 40 478 24 563 q 57 333 57 394 q 18 56 57 219 m -4 33 q 39 322 39 189 q 22 465 39 379 q 6 611 6 551 q 76 661 6 661 q 497 369 311 661 q 504 497 504 433 q 498 581 504 550 q 468 675 492 611 q 576 686 546 686 q 733 626 674 686 q 742 463 742 493 q 739 335 742 418 q 721 111 736 251 q 679 -78 706 -29 q 581 -104 626 -104 q 467 -89 515 -104 q 384 121 454 21 q 251 265 314 221 q 252 250 251 261 q 253 235 253 239 q 226 18 253 111 q 122 -11 175 -11 q 68 -4 93 -11 q 31 10 43 3 q -4 33 19 18 z "},"":{"ha":517,"x_min":-54,"x_max":536,"o":"m 100 183 q 113 217 100 203 q 146 231 126 231 q 179 222 165 231 q 193 200 193 214 q 181 169 193 182 q 151 156 169 156 q 115 164 131 156 q 100 183 100 172 m 6 264 q 82 83 6 122 l 65 75 q 126 31 86 47 q 207 14 167 14 q 417 76 336 14 q 497 244 497 138 q 411 397 497 333 q 204 461 325 461 q 77 405 132 461 q 6 264 22 349 m 139 178 q 163 172 150 172 q 176 186 176 172 q 157 192 171 192 q 139 178 142 192 m -11 253 l -11 256 l -11 258 q 69 419 8 360 q 215 478 129 478 q 441 408 346 478 q 536 233 536 338 q 449 46 536 117 q 218 -25 363 -25 q 127 -6 174 -25 q 54 47 81 13 q 32 76 33 75 l 39 79 q -11 253 -11 136 m -7 789 q 69 688 -3 786 q 182 568 142 590 q 331 550 215 550 q 316 619 322 593 q 293 682 310 646 q 254 738 276 718 q 193 774 232 758 q 103 789 154 789 l -7 789 m -54 804 l 117 804 q 219 786 175 804 q 289 744 264 768 q 333 678 314 719 q 358 611 351 638 q 372 542 364 585 q 376 525 374 538 q 378 508 378 513 l 344 508 q 182 529 218 508 q 123 578 156 543 q 66 647 90 614 q 18 715 42 681 q -10 753 -6 749 q -22 768 -12 756 q -40 790 -32 781 q -54 804 -49 800 z "},"":{"ha":517,"x_min":-11,"x_max":536,"o":"m 100 183 q 113 217 100 203 q 146 231 126 231 q 179 222 165 231 q 193 200 193 214 q 181 169 193 182 q 151 156 169 156 q 115 164 131 156 q 100 183 100 172 m 6 264 q 82 83 6 122 l 65 75 q 126 31 86 47 q 207 14 167 14 q 417 76 336 14 q 497 244 497 138 q 411 397 497 333 q 204 461 325 461 q 77 405 132 461 q 6 264 22 349 m 139 178 q 163 172 150 172 q 176 186 176 172 q 157 192 171 192 q 139 178 142 192 m -11 253 l -11 256 l -11 258 q 69 419 8 360 q 215 478 129 478 q 441 408 346 478 q 536 233 536 338 q 449 46 536 117 q 218 -25 363 -25 q 127 -6 174 -25 q 54 47 81 13 q 32 76 33 75 l 39 79 q -11 253 -11 136 m 132 536 q 279 554 246 536 q 392 674 319 576 q 469 775 465 772 l 360 775 q 269 760 308 775 q 208 724 231 744 q 169 668 186 704 q 147 606 153 632 q 132 536 140 579 m 110 497 q 154 665 132 621 q 371 792 214 792 l 532 792 q 488 729 529 790 q 392 603 446 668 q 304 519 339 538 q 143 497 263 497 l 110 497 z "},"":{"ha":517,"x_min":-11,"x_max":536,"o":"m 100 183 q 113 217 100 203 q 146 231 126 231 q 179 222 165 231 q 193 200 193 214 q 181 169 193 182 q 151 156 169 156 q 115 164 131 156 q 100 183 100 172 m 6 264 q 82 83 6 122 l 65 75 q 126 31 86 47 q 207 14 167 14 q 417 76 336 14 q 497 244 497 138 q 411 397 497 333 q 204 461 325 461 q 77 405 132 461 q 6 264 22 349 m 139 178 q 163 172 150 172 q 176 186 176 172 q 157 192 171 192 q 139 178 142 192 m -11 253 l -11 256 l -11 258 q 69 419 8 360 q 215 478 129 478 q 441 408 346 478 q 536 233 536 338 q 449 46 536 117 q 218 -25 363 -25 q 127 -6 174 -25 q 54 47 81 13 q 32 76 33 75 l 39 79 q -11 253 -11 136 m 53 642 q 86 583 53 614 q 146 540 111 561 q 279 671 235 599 q 357 604 328 642 q 392 540 386 567 q 464 621 464 569 q 406 713 464 660 q 333 767 372 742 q 282 807 294 793 q 251 810 257 810 q 215 799 233 810 q 67 669 150 738 q 53 642 53 657 m 39 628 q 63 678 39 657 q 144 750 99 708 q 210 808 189 792 q 265 824 232 824 q 308 819 283 824 q 367 773 326 801 q 438 719 408 744 q 506 607 506 658 q 385 489 506 528 q 300 619 375 564 q 161 493 244 547 q 82 549 114 519 q 39 628 39 588 z "},"":{"ha":517,"x_min":-11,"x_max":536,"o":"m 100 183 q 113 217 100 203 q 146 231 126 231 q 179 222 165 231 q 193 200 193 214 q 181 169 193 182 q 151 156 169 156 q 115 164 131 156 q 100 183 100 172 m 6 264 q 82 83 6 122 l 65 75 q 126 31 86 47 q 207 14 167 14 q 417 76 336 14 q 497 244 497 138 q 411 397 497 333 q 204 461 325 461 q 77 405 132 461 q 6 264 22 349 m 139 178 q 163 172 150 172 q 176 186 176 172 q 157 192 171 192 q 139 178 142 192 m -11 253 l -11 256 l -11 258 q 69 419 8 360 q 215 478 129 478 q 441 408 346 478 q 536 233 536 338 q 449 46 536 117 q 218 -25 363 -25 q 127 -6 174 -25 q 54 47 81 13 q 32 76 33 75 l 39 79 q -11 253 -11 136 m 21 558 q 140 606 75 606 q 237 574 165 606 q 343 542 308 542 q 444 590 403 542 q 485 707 485 638 q 469 806 485 767 q 356 754 424 754 q 242 784 311 754 q 143 814 174 814 q 78 795 103 814 q 41 738 53 776 q 25 660 29 700 q 21 558 21 619 m 4 478 l 4 540 q 9 658 4 613 q 28 746 14 703 q 75 809 43 789 q 157 829 107 829 q 263 799 194 829 q 369 768 331 768 q 461 811 422 768 q 477 830 465 817 q 492 846 489 843 q 501 824 493 842 q 510 801 508 806 q 526 693 526 757 q 478 557 526 614 q 357 500 429 500 q 245 532 318 500 q 154 564 172 564 q 97 551 126 564 q 53 524 67 538 q 4 478 24 494 z "},"":{"ha":517,"x_min":-11,"x_max":536,"o":"m 100 183 q 113 217 100 203 q 146 231 126 231 q 179 222 165 231 q 193 200 193 214 q 181 169 193 182 q 151 156 169 156 q 115 164 131 156 q 100 183 100 172 m 6 264 q 82 83 6 122 l 65 75 q 126 31 86 47 q 207 14 167 14 q 417 76 336 14 q 497 244 497 138 q 411 397 497 333 q 204 461 325 461 q 77 405 132 461 q 6 264 22 349 m 139 178 q 163 172 150 172 q 176 186 176 172 q 157 192 171 192 q 139 178 142 192 m -11 253 l -11 256 l -11 258 q 69 419 8 360 q 215 478 129 478 q 441 408 346 478 q 536 233 536 338 q 449 46 536 117 q 218 -25 363 -25 q 127 -6 174 -25 q 54 47 81 13 q 32 76 33 75 l 39 79 q -11 253 -11 136 m 53 621 q 69 578 53 596 q 106 560 85 560 q 179 584 150 560 q 208 649 208 608 q 142 699 208 699 q 78 677 104 699 q 53 621 53 656 m 292 621 q 308 578 292 596 q 344 560 324 560 q 418 584 389 560 q 447 649 447 608 q 381 699 447 699 q 317 677 343 699 q 292 621 292 656 m 36 610 q 71 686 36 657 q 153 715 106 715 q 247 638 247 715 q 210 553 247 586 q 117 521 172 521 q 59 548 82 521 q 36 610 36 575 m 275 610 q 310 686 275 657 q 392 715 344 715 q 486 638 486 715 q 449 553 486 586 q 356 521 411 521 q 298 548 321 521 q 275 610 275 575 z "},"":{"ha":528,"x_min":-8,"x_max":549,"o":"m 100 183 q 113 217 100 203 q 146 231 126 231 q 179 222 165 231 q 193 200 193 214 q 181 169 193 182 q 151 156 169 156 q 115 164 131 156 q 100 183 100 172 m 6 264 q 81 83 6 122 l 49 33 q 7 -68 7 -25 q 100 -154 39 -111 q 160 -53 129 -96 l 203 14 l 207 14 q 417 76 336 14 q 497 244 497 138 q 435 376 497 318 q 507 517 507 485 q 451 585 488 558 q 392 617 414 611 q 315 461 390 565 q 306 447 310 453 q 204 461 253 461 q 77 405 132 461 q 6 264 22 349 m 142 175 q 165 169 153 169 q 179 183 179 169 q 160 189 174 189 q 142 175 144 189 m -8 253 q 69 413 8 351 q 218 475 131 475 q 308 465 263 475 q 378 608 375 558 l 379 639 q 406 633 389 638 q 451 615 424 628 q 505 574 478 601 q 549 508 532 546 l 549 503 q 485 367 549 463 q 539 231 539 303 q 455 45 539 115 q 232 -28 371 -25 q 197 -82 226 -35 q 125 -210 160 -137 l 99 -190 q -7 -90 33 -146 q 38 39 -7 -25 l 54 65 q -8 253 -8 118 z "},"":{"ha":467,"x_min":-75,"x_max":489,"o":"m 17 561 q 33 506 19 546 q 47 447 47 467 q 40 363 47 432 q 32 247 32 294 q 85 133 32 179 q 226 86 138 86 q 389 192 328 86 q 450 469 450 299 q 433 575 450 531 q 394 619 417 619 q 350 589 358 619 q 369 542 353 576 q 386 486 386 507 q 365 410 386 442 q 314 379 344 379 q 271 435 289 379 q 253 569 253 490 q 215 595 253 585 q 122 606 176 606 q 17 561 39 606 m -4 561 l 1 569 q 133 622 38 622 q 243 607 194 622 q 292 558 292 592 q 299 473 292 511 q 313 418 306 435 q 326 396 321 401 q 356 421 342 399 q 369 475 369 443 q 354 522 369 490 q 335 569 339 553 q 334 572 335 571 q 332 576 333 574 q 335 585 335 582 q 361 622 340 608 q 406 636 382 636 q 467 585 444 636 q 489 458 489 533 q 419 160 489 272 q 238 47 350 47 q 77 101 139 47 q 15 236 15 156 q 23 355 15 286 q 31 435 31 424 q 17 491 31 449 q 0 546 3 533 l -4 561 m -28 922 q 49 822 -24 919 q 161 701 121 724 q 310 683 194 683 q 295 753 301 726 q 272 815 289 779 q 233 872 256 851 q 172 907 211 892 q 82 922 133 922 l -28 922 m -75 938 l 96 938 q 199 919 154 938 q 268 877 243 901 q 312 812 293 853 q 337 744 331 771 q 351 675 343 718 q 355 658 353 671 q 357 642 357 646 l 324 642 q 161 663 197 642 q 102 712 135 676 q 45 781 69 747 q -3 848 21 814 q -31 886 -26 882 q -43 901 -33 889 q -61 924 -53 914 q -75 938 -69 933 z "},"":{"ha":467,"x_min":-4,"x_max":517,"o":"m 17 561 q 33 506 19 546 q 47 447 47 467 q 40 363 47 432 q 32 247 32 294 q 85 133 32 179 q 226 86 138 86 q 389 192 328 86 q 450 469 450 299 q 433 575 450 531 q 394 619 417 619 q 350 589 358 619 q 369 542 353 576 q 386 486 386 507 q 365 410 386 442 q 314 379 344 379 q 271 435 289 379 q 253 569 253 490 q 215 595 253 585 q 122 606 176 606 q 17 561 39 606 m -4 561 l 1 569 q 133 622 38 622 q 243 607 194 622 q 292 558 292 592 q 299 473 292 511 q 313 418 306 435 q 326 396 321 401 q 356 421 342 399 q 369 475 369 443 q 354 522 369 490 q 335 569 339 553 q 334 572 335 571 q 332 576 333 574 q 335 585 335 582 q 361 622 340 608 q 406 636 382 636 q 467 585 444 636 q 489 458 489 533 q 419 160 489 272 q 238 47 350 47 q 77 101 139 47 q 15 236 15 156 q 23 355 15 286 q 31 435 31 424 q 17 491 31 449 q 0 546 3 533 l -4 561 m 117 681 q 264 699 231 681 q 377 819 304 721 q 454 919 450 917 l 344 919 q 254 904 293 919 q 193 869 215 889 q 154 813 171 849 q 131 750 138 776 q 117 681 125 724 m 94 642 q 139 810 117 765 q 356 936 199 936 l 517 936 q 472 874 514 935 q 377 747 431 813 q 289 664 324 682 q 128 642 247 642 l 94 642 z "},"":{"ha":467,"x_min":-4,"x_max":489,"o":"m 17 561 q 33 506 19 546 q 47 447 47 467 q 40 363 47 432 q 32 247 32 294 q 85 133 32 179 q 226 86 138 86 q 389 192 328 86 q 450 469 450 299 q 433 575 450 531 q 394 619 417 619 q 350 589 358 619 q 369 542 353 576 q 386 486 386 507 q 365 410 386 442 q 314 379 344 379 q 271 435 289 379 q 253 569 253 490 q 215 595 253 585 q 122 606 176 606 q 17 561 39 606 m -4 561 l 1 569 q 133 622 38 622 q 243 607 194 622 q 292 558 292 592 q 299 473 292 511 q 313 418 306 435 q 326 396 321 401 q 356 421 342 399 q 369 475 369 443 q 354 522 369 490 q 335 569 339 553 q 334 572 335 571 q 332 576 333 574 q 335 585 335 582 q 361 622 340 608 q 406 636 382 636 q 467 585 444 636 q 489 458 489 533 q 419 160 489 272 q 238 47 350 47 q 77 101 139 47 q 15 236 15 156 q 23 355 15 286 q 31 435 31 424 q 17 491 31 449 q 0 546 3 533 l -4 561 m 32 775 q 65 717 32 747 q 125 674 90 694 q 258 804 214 732 q 336 738 307 775 q 371 674 365 700 q 443 754 443 703 q 385 846 443 793 q 313 901 351 875 q 261 940 274 926 q 231 943 236 943 q 194 932 213 943 q 46 803 129 871 q 32 775 32 790 m 18 761 q 42 811 18 790 q 123 883 78 842 q 189 942 168 925 q 244 957 211 957 q 288 953 263 957 q 347 906 306 935 q 417 853 388 878 q 485 740 485 792 q 364 622 485 661 q 279 753 354 697 q 140 626 224 681 q 61 682 93 653 q 18 761 18 721 z "},"":{"ha":467,"x_min":-4,"x_max":489,"o":"m 17 547 q 33 492 19 532 q 47 433 47 453 q 40 349 47 418 q 32 233 32 281 q 85 119 32 165 q 226 72 138 72 q 389 178 328 72 q 450 456 450 285 q 433 561 450 517 q 394 606 417 606 q 350 575 358 606 q 369 528 353 563 q 386 472 386 493 q 365 397 386 428 q 314 365 344 365 q 271 421 289 365 q 253 556 253 476 q 215 581 253 571 q 122 592 176 592 q 17 547 39 592 m -4 547 l 1 556 q 133 608 38 608 q 243 593 194 608 q 292 544 292 578 q 299 459 292 497 q 313 404 306 421 q 326 382 321 388 q 356 407 342 385 q 369 461 369 429 q 354 508 369 476 q 335 556 339 539 q 334 558 335 557 q 332 563 333 560 q 335 571 335 568 q 361 608 340 594 q 406 622 382 622 q 467 571 444 622 q 489 444 489 519 q 419 146 489 258 q 238 33 350 33 q 77 88 139 33 q 15 222 15 142 q 23 341 15 272 q 31 421 31 410 q 17 477 31 435 q 0 532 3 519 l -4 547 m 32 726 q 48 683 32 701 q 85 665 64 665 q 158 690 129 665 q 188 754 188 714 q 121 804 188 804 q 58 783 83 804 q 32 726 32 761 m 271 726 q 287 683 271 701 q 324 665 303 665 q 397 690 368 665 q 426 754 426 714 q 360 804 426 804 q 297 783 322 804 q 271 726 271 761 m 15 715 q 50 792 15 763 q 132 821 85 821 q 226 743 226 821 q 189 659 226 692 q 96 626 151 626 q 38 653 61 626 q 15 715 15 681 m 254 715 q 289 792 254 763 q 371 821 324 821 q 465 743 465 821 q 428 659 465 692 q 335 626 390 626 q 277 653 300 626 q 254 715 254 681 z "},"":{"ha":590,"x_min":-14,"x_max":626,"o":"m 3 556 q 21 506 3 525 q 93 424 71 450 q 150 336 115 397 q 185 231 185 275 q 181 8 185 75 q 328 -3 238 -3 q 385 28 363 -3 q 408 101 408 58 q 404 208 408 143 q 400 314 400 272 q 425 367 400 336 q 468 416 433 376 q 515 472 503 456 q 549 517 528 488 q 579 570 571 547 q 588 614 588 593 q 572 645 588 632 q 533 658 556 658 q 439 635 478 658 q 465 560 465 606 q 388 392 465 488 q 347 481 364 447 q 301 565 331 515 q 237 639 271 614 q 167 664 203 664 q 51 632 99 664 q 3 556 3 600 m -14 544 q 42 647 -14 613 q 178 681 97 681 q 257 655 219 681 q 325 583 294 629 q 371 507 356 536 q 406 435 386 478 q 449 549 449 494 q 429 606 449 582 q 407 631 415 619 l 436 647 q 544 675 483 675 q 601 655 576 675 q 626 603 626 635 q 622 570 626 588 q 612 539 617 553 q 594 505 607 525 q 574 474 581 485 q 548 442 567 464 q 523 412 529 419 q 496 381 517 404 q 472 354 475 357 q 463 344 468 350 q 457 338 458 339 q 439 303 439 314 q 443 199 439 264 q 447 90 447 133 q 417 -2 447 38 q 339 -42 386 -42 q 186 -31 246 -42 q 160 -25 169 -25 l 161 -1 q 165 219 165 64 q 11 476 165 307 q -14 544 -14 506 m 213 728 q 360 746 326 728 q 473 866 400 768 q 550 967 546 964 l 440 967 q 350 951 389 967 q 289 916 311 936 q 250 860 267 896 q 227 797 233 824 q 213 728 221 771 m 190 689 q 235 857 213 813 q 451 983 294 983 l 613 983 q 568 921 610 982 q 473 794 526 860 q 385 711 419 729 q 224 689 343 689 l 190 689 z "},"":{"ha":590,"x_min":-14,"x_max":626,"o":"m 131 799 q 147 756 131 774 q 183 738 163 738 q 257 762 228 738 q 286 826 286 786 q 219 876 286 876 q 156 855 182 876 q 131 799 131 833 m 369 799 q 385 756 369 774 q 422 738 401 738 q 496 762 467 738 q 525 826 525 786 q 458 876 525 876 q 395 855 421 876 q 369 799 369 833 m 114 788 q 149 864 114 835 q 231 893 183 893 q 325 815 325 893 q 288 731 325 764 q 194 699 250 699 q 137 726 160 699 q 114 788 114 753 m 353 788 q 388 864 353 835 q 469 893 422 893 q 564 815 564 893 q 526 731 564 764 q 433 699 489 699 q 376 726 399 699 q 353 788 353 753 m 3 556 q 21 506 3 525 q 93 424 71 450 q 150 336 115 397 q 185 231 185 275 q 181 8 185 75 q 328 -3 238 -3 q 385 28 363 -3 q 408 101 408 58 q 404 208 408 143 q 400 314 400 272 q 425 367 400 336 q 468 416 433 376 q 515 472 503 456 q 549 517 528 488 q 579 570 571 547 q 588 614 588 593 q 572 645 588 632 q 533 658 556 658 q 439 635 478 658 q 465 560 465 606 q 388 392 465 488 q 347 481 364 447 q 301 565 331 515 q 237 639 271 614 q 167 664 203 664 q 51 632 99 664 q 3 556 3 600 m -14 544 q 42 647 -14 613 q 178 681 97 681 q 257 655 219 681 q 325 583 294 629 q 371 507 356 536 q 406 435 386 478 q 449 549 449 494 q 429 606 449 582 q 407 631 415 619 l 436 647 q 544 675 483 675 q 601 655 576 675 q 626 603 626 635 q 622 570 626 588 q 612 539 617 553 q 594 505 607 525 q 574 474 581 485 q 548 442 567 464 q 523 412 529 419 q 496 381 517 404 q 472 354 475 357 q 463 344 468 350 q 457 338 458 339 q 439 303 439 314 q 443 199 439 264 q 447 90 447 133 q 417 -2 447 38 q 339 -42 386 -42 q 186 -31 246 -42 q 160 -25 169 -25 l 161 -1 q 165 219 165 64 q 11 476 165 307 q -14 544 -14 506 z "},"":{"ha":842,"x_min":-14,"x_max":853,"o":"m 264 313 q 277 360 264 339 q 313 385 290 381 l 404 244 l 399 242 q 371 261 381 258 q 327 269 353 265 q 291 275 301 272 q 272 286 281 278 q 264 313 264 294 m 3 51 q 33 6 3 25 q 108 -14 64 -14 q 189 3 156 -14 q 222 42 222 19 q 232 188 222 144 q 408 166 365 183 q 483 72 450 149 q 504 3 503 22 q 610 -9 539 0 q 731 -18 681 -18 q 788 6 763 -18 q 814 51 814 31 q 783 164 814 100 q 716 276 751 228 q 615 406 681 324 q 519 531 550 489 q 474 639 479 588 q 347 640 392 650 q 247 586 303 629 q 139 190 247 381 q 63 122 124 164 q 3 51 3 79 m 303 301 q 303 296 303 299 l 304 293 q 349 285 311 289 q 338 301 346 289 q 322 324 329 314 q 314 338 315 335 q 303 301 303 322 m -14 40 q 14 103 -14 72 q 75 150 31 119 q 124 196 110 171 q 229 575 229 381 l 229 593 q 315 647 278 631 q 413 663 353 663 q 510 651 432 663 l 513 631 q 553 536 519 582 q 653 406 585 492 q 756 272 721 319 q 822 159 790 225 q 853 40 853 93 q 819 -24 853 8 q 742 -57 785 -57 q 617 -47 689 -57 q 514 -36 553 -39 l 490 -35 l 488 -11 q 469 51 485 11 q 409 129 442 115 q 265 147 376 143 q 261 31 261 125 q 219 -29 261 -6 q 119 -53 178 -53 q 26 -26 65 -53 q -14 40 -14 0 m 193 772 q 299 776 256 776 q 397 771 324 776 q 489 765 469 765 q 604 792 578 765 q 626 881 626 836 q 611 972 626 924 q 501 940 561 940 q 399 945 465 940 q 300 950 333 950 q 200 926 233 950 q 193 772 193 839 m 179 729 l 179 758 q 188 931 179 843 q 218 951 207 944 q 253 962 229 957 q 314 967 278 967 q 415 960 349 967 q 515 954 482 954 q 572 964 550 954 q 640 1004 594 974 q 668 867 668 947 q 642 761 668 814 q 503 724 604 724 q 408 729 481 724 q 313 735 336 735 q 208 731 271 735 q 194 730 206 731 q 179 729 182 729 z "},"":{"ha":842,"x_min":-14,"x_max":853,"o":"m 264 313 q 277 360 264 339 q 313 385 290 381 l 404 244 l 399 242 q 371 261 381 258 q 327 269 353 265 q 291 275 301 272 q 272 286 281 278 q 264 313 264 294 m 3 51 q 33 6 3 25 q 108 -14 64 -14 q 189 3 156 -14 q 222 42 222 19 q 232 188 222 144 q 408 166 365 183 q 483 72 450 149 q 504 3 503 22 q 610 -9 539 0 q 731 -18 681 -18 q 788 6 763 -18 q 814 51 814 31 q 783 164 814 100 q 716 276 751 228 q 615 406 681 324 q 519 531 550 489 q 474 639 479 588 q 347 640 392 650 q 247 586 303 629 q 139 190 247 381 q 63 122 124 164 q 3 51 3 79 m 303 301 q 303 296 303 299 l 304 293 q 349 285 311 289 q 338 301 346 289 q 322 324 329 314 q 314 338 315 335 q 303 301 303 322 m -14 40 q 14 103 -14 72 q 75 150 31 119 q 124 196 110 171 q 229 575 229 381 l 229 593 q 315 647 278 631 q 413 663 353 663 q 510 651 432 663 l 513 631 q 553 536 519 582 q 653 406 585 492 q 756 272 721 319 q 822 159 790 225 q 853 40 853 93 q 819 -24 853 8 q 742 -57 785 -57 q 617 -47 689 -57 q 514 -36 553 -39 l 490 -35 l 488 -11 q 469 51 485 11 q 409 129 442 115 q 265 147 376 143 q 261 31 261 125 q 219 -29 261 -6 q 119 -53 178 -53 q 26 -26 65 -53 q -14 40 -14 0 m 193 772 q 299 776 256 776 q 397 771 324 776 q 489 765 469 765 q 604 792 578 765 q 626 881 626 836 q 611 972 626 924 q 501 940 561 940 q 399 945 465 940 q 300 950 333 950 q 200 926 233 950 q 193 772 193 839 m 179 729 l 179 758 q 188 931 179 843 q 218 951 207 944 q 253 962 229 957 q 314 967 278 967 q 415 960 349 967 q 515 954 482 954 q 572 964 550 954 q 640 1004 594 974 q 668 867 668 947 q 642 761 668 814 q 503 724 604 724 q 408 729 481 724 q 313 735 336 735 q 208 731 271 735 q 194 730 206 731 q 179 729 182 729 z "},"":{"ha":842,"x_min":-14,"x_max":853,"o":"m 264 313 q 277 360 264 339 q 313 385 290 381 l 404 244 l 399 242 q 371 261 381 258 q 327 269 353 265 q 291 275 301 272 q 272 286 281 278 q 264 313 264 294 m 3 51 q 33 6 3 25 q 108 -14 64 -14 q 189 3 156 -14 q 222 42 222 19 q 232 188 222 144 q 408 166 365 183 q 483 72 450 149 q 504 3 503 22 q 610 -9 539 0 q 731 -18 681 -18 q 788 6 763 -18 q 814 51 814 31 q 783 164 814 100 q 716 276 751 228 q 615 406 681 324 q 519 531 550 489 q 474 639 479 588 q 347 640 392 650 q 247 586 303 629 q 139 190 247 381 q 63 122 124 164 q 3 51 3 79 m 303 301 q 303 296 303 299 l 304 293 q 349 285 311 289 q 338 301 346 289 q 322 324 329 314 q 314 338 315 335 q 303 301 303 322 m -14 40 q 14 103 -14 72 q 75 150 31 119 q 124 196 110 171 q 229 575 229 381 l 229 593 q 315 647 278 631 q 413 663 353 663 q 510 651 432 663 l 513 631 q 553 536 519 582 q 653 406 585 492 q 756 272 721 319 q 822 159 790 225 q 853 40 853 93 q 819 -24 853 8 q 742 -57 785 -57 q 617 -47 689 -57 q 514 -36 553 -39 l 490 -35 l 488 -11 q 469 51 485 11 q 409 129 442 115 q 265 147 376 143 q 261 31 261 125 q 219 -29 261 -6 q 119 -53 178 -53 q 26 -26 65 -53 q -14 40 -14 0 m 214 881 q 225 856 214 869 q 438 747 324 747 q 585 813 532 747 q 626 904 626 868 q 547 981 626 965 q 522 907 544 947 q 461 874 503 874 q 389 910 417 874 q 328 978 358 947 q 257 939 296 965 q 214 881 214 913 m 199 867 q 253 953 199 919 q 346 1000 297 981 q 424 914 390 956 q 475 888 446 888 q 511 907 500 888 q 535 1000 535 946 q 585 991 560 997 q 639 958 610 985 q 668 890 668 932 q 619 782 668 847 q 451 706 557 706 q 279 765 360 706 q 199 867 199 825 z "},"":{"ha":842,"x_min":-14,"x_max":853,"o":"m 264 313 q 277 360 264 339 q 313 385 290 381 l 404 244 l 399 242 q 371 261 381 258 q 327 269 353 265 q 291 275 301 272 q 272 286 281 278 q 264 313 264 294 m 3 51 q 33 6 3 25 q 108 -14 64 -14 q 189 3 156 -14 q 222 42 222 19 q 232 188 222 144 q 408 166 365 183 q 483 72 450 149 q 504 3 503 22 q 610 -9 539 0 q 731 -18 681 -18 q 788 6 763 -18 q 814 51 814 31 q 783 164 814 100 q 716 276 751 228 q 615 406 681 324 q 519 531 550 489 q 474 639 479 588 q 347 640 392 650 q 247 586 303 629 q 139 190 247 381 q 63 122 124 164 q 3 51 3 79 m 303 301 q 303 296 303 299 l 304 293 q 349 285 311 289 q 338 301 346 289 q 322 324 329 314 q 314 338 315 335 q 303 301 303 322 m -14 40 q 14 103 -14 72 q 75 150 31 119 q 124 196 110 171 q 229 575 229 381 l 229 593 q 315 647 278 631 q 413 663 353 663 q 510 651 432 663 l 513 631 q 553 536 519 582 q 653 406 585 492 q 756 272 721 319 q 822 159 790 225 q 853 40 853 93 q 819 -24 853 8 q 742 -57 785 -57 q 617 -47 689 -57 q 514 -36 553 -39 l 490 -35 l 488 -11 q 469 51 485 11 q 409 129 442 115 q 265 147 376 143 q 261 31 261 125 q 219 -29 261 -6 q 119 -53 178 -53 q 26 -26 65 -53 q -14 40 -14 0 m 214 881 q 225 856 214 869 q 438 747 324 747 q 585 813 532 747 q 626 904 626 868 q 547 981 626 965 q 522 907 544 947 q 461 874 503 874 q 389 910 417 874 q 328 978 358 947 q 257 939 296 965 q 214 881 214 913 m 199 867 q 253 953 199 919 q 346 1000 297 981 q 424 914 390 956 q 475 888 446 888 q 511 907 500 888 q 535 1000 535 946 q 585 991 560 997 q 639 958 610 985 q 668 890 668 932 q 619 782 668 847 q 451 706 557 706 q 279 765 360 706 q 199 867 199 825 z "},"":{"ha":842,"x_min":-14,"x_max":868,"o":"m -14 40 q 3 87 -14 69 q 55 128 19 104 q 115 181 90 153 q 178 300 142 211 q 231 575 231 432 l 231 589 q 282 626 264 614 q 337 649 300 638 q 415 661 374 661 q 510 651 454 661 q 553 536 514 592 q 653 406 585 492 q 756 272 721 319 q 822 159 790 225 q 853 40 853 93 q 813 -32 853 -1 q 776 -62 789 -50 q 840 -42 790 -61 q 864 -142 860 -115 q 868 -243 868 -168 l 868 -267 q 656 -294 740 -294 q 555 -256 601 -294 q 508 -160 508 -217 q 576 -42 508 -103 q 490 -35 549 -39 q 469 51 485 15 q 409 129 442 115 q 265 147 376 143 q 261 31 261 118 q 219 -29 261 -6 q 119 -53 178 -53 q 26 -26 65 -53 q -14 40 -14 0 m 303 301 q 303 296 303 299 l 304 293 q 349 285 311 289 q 338 301 346 289 q 322 324 329 314 q 314 338 315 335 q 303 301 303 322 m 3 51 q 33 6 3 25 q 108 -14 64 -14 q 189 3 156 -14 q 222 42 222 19 q 232 188 222 149 q 408 166 365 183 q 483 72 450 149 q 504 3 501 24 q 631 -10 531 1 q 592 -45 617 -22 q 564 -72 568 -68 q 525 -149 525 -107 q 563 -223 525 -190 q 644 -256 601 -256 q 829 -232 708 -256 q 826 -141 829 -165 q 810 -68 824 -117 q 758 -81 772 -81 q 739 -74 747 -81 q 731 -60 731 -68 q 785 1 731 -39 q 814 51 814 24 q 783 164 814 100 q 716 276 751 228 q 615 406 681 324 q 519 531 550 489 q 474 639 479 588 q 407 644 436 644 q 247 586 324 644 q 193 301 247 436 q 125 174 156 210 q 65 119 97 142 q 17 85 32 97 q 3 51 3 72 m 264 313 q 277 360 264 339 q 313 385 290 381 l 404 244 l 399 242 q 371 261 381 258 q 327 269 353 265 q 291 275 301 272 q 272 286 281 278 q 264 313 264 294 z "},"":{"ha":842,"x_min":-14,"x_max":868,"o":"m -14 40 q 3 87 -14 69 q 55 128 19 104 q 115 181 90 153 q 178 300 142 211 q 231 575 231 432 l 231 589 q 282 626 264 614 q 337 649 300 638 q 415 661 374 661 q 510 651 454 661 q 553 536 514 592 q 653 406 585 492 q 756 272 721 319 q 822 159 790 225 q 853 40 853 93 q 813 -32 853 -1 q 776 -62 789 -50 q 840 -42 790 -61 q 864 -142 860 -115 q 868 -243 868 -168 l 868 -267 q 656 -294 740 -294 q 555 -256 601 -294 q 508 -160 508 -217 q 576 -42 508 -103 q 490 -35 549 -39 q 469 51 485 15 q 409 129 442 115 q 265 147 376 143 q 261 31 261 118 q 219 -29 261 -6 q 119 -53 178 -53 q 26 -26 65 -53 q -14 40 -14 0 m 303 301 q 303 296 303 299 l 304 293 q 349 285 311 289 q 338 301 346 289 q 322 324 329 314 q 314 338 315 335 q 303 301 303 322 m 3 51 q 33 6 3 25 q 108 -14 64 -14 q 189 3 156 -14 q 222 42 222 19 q 232 188 222 149 q 408 166 365 183 q 483 72 450 149 q 504 3 501 24 q 631 -10 531 1 q 592 -45 617 -22 q 564 -72 568 -68 q 525 -149 525 -107 q 563 -223 525 -190 q 644 -256 601 -256 q 829 -232 708 -256 q 826 -141 829 -165 q 810 -68 824 -117 q 758 -81 772 -81 q 739 -74 747 -81 q 731 -60 731 -68 q 785 1 731 -39 q 814 51 814 24 q 783 164 814 100 q 716 276 751 228 q 615 406 681 324 q 519 531 550 489 q 474 639 479 588 q 407 644 436 644 q 247 586 324 644 q 193 301 247 436 q 125 174 156 210 q 65 119 97 142 q 17 85 32 97 q 3 51 3 72 m 264 313 q 277 360 264 339 q 313 385 290 381 l 404 244 l 399 242 q 371 261 381 258 q 327 269 353 265 q 291 275 301 272 q 272 286 281 278 q 264 313 264 294 z "},"":{"ha":582,"x_min":-8,"x_max":604,"o":"m 8 340 q 88 146 8 219 q 282 72 167 72 q 536 175 424 72 q 508 214 524 201 q 413 156 471 178 q 301 133 356 133 q 214 159 247 133 q 181 239 181 185 q 215 316 181 285 q 297 347 249 347 q 450 292 375 347 q 493 472 469 389 q 527 563 503 507 q 558 635 551 618 l 553 635 q 511 581 543 604 q 450 557 479 557 q 347 571 407 557 q 244 585 288 585 q 79 509 150 585 q 8 340 8 433 m -8 331 q 64 525 -8 447 q 253 603 136 603 q 361 588 300 603 q 461 574 422 574 q 504 591 479 574 q 538 633 529 608 q 542 644 539 636 l 543 651 l 604 651 q 531 453 551 529 q 481 233 500 349 q 454 253 479 235 q 414 280 429 271 q 369 299 399 289 q 308 308 339 308 q 245 285 271 308 q 219 228 219 261 q 313 150 219 150 q 415 171 363 150 q 500 224 467 192 q 518 240 514 238 l 536 225 q 560 200 550 213 q 581 157 572 181 q 293 33 457 33 q 79 115 167 33 q -8 331 -8 197 m 161 663 q 308 681 275 663 q 422 801 349 703 q 499 901 494 899 l 389 901 q 299 886 338 901 q 238 851 260 871 q 199 794 215 831 q 176 732 182 758 q 161 663 169 706 m 139 624 q 183 792 161 747 q 400 918 243 918 l 561 918 q 517 856 558 917 q 422 729 475 794 q 333 646 368 664 q 172 624 292 624 l 139 624 z "},"":{"ha":582,"x_min":-8,"x_max":604,"o":"m 8 340 q 88 146 8 219 q 282 72 167 72 q 536 175 424 72 q 508 214 524 201 q 413 156 471 178 q 301 133 356 133 q 214 159 247 133 q 181 239 181 185 q 215 316 181 285 q 297 347 249 347 q 450 292 375 347 q 493 472 469 389 q 527 563 503 507 q 558 635 551 618 l 553 635 q 511 581 543 604 q 450 557 479 557 q 347 571 407 557 q 244 585 288 585 q 79 509 150 585 q 8 340 8 433 m -8 331 q 64 525 -8 447 q 253 603 136 603 q 361 588 300 603 q 461 574 422 574 q 504 591 479 574 q 538 633 529 608 q 542 644 539 636 l 543 651 l 604 651 q 531 453 551 529 q 481 233 500 349 q 454 253 479 235 q 414 280 429 271 q 369 299 399 289 q 308 308 339 308 q 245 285 271 308 q 219 228 219 261 q 313 150 219 150 q 415 171 363 150 q 500 224 467 192 q 518 240 514 238 l 536 225 q 560 200 550 213 q 581 157 572 181 q 293 33 457 33 q 79 115 167 33 q -8 331 -8 197 m 161 663 q 308 681 275 663 q 422 801 349 703 q 499 901 494 899 l 389 901 q 299 886 338 901 q 238 851 260 871 q 199 794 215 831 q 176 732 182 758 q 161 663 169 706 m 139 624 q 183 792 161 747 q 400 918 243 918 l 561 918 q 517 856 558 917 q 422 729 475 794 q 333 646 368 664 q 172 624 292 624 l 139 624 z "},"":{"ha":582,"x_min":-8,"x_max":604,"o":"m 8 340 q 88 146 8 219 q 282 72 167 72 q 536 175 424 72 q 508 214 524 201 q 413 156 471 178 q 301 133 356 133 q 214 159 247 133 q 181 239 181 185 q 215 316 181 285 q 297 347 249 347 q 450 292 375 347 q 493 472 469 389 q 527 563 503 507 q 558 635 551 618 l 553 635 q 511 581 543 604 q 450 557 479 557 q 347 571 407 557 q 244 585 288 585 q 79 509 150 585 q 8 340 8 433 m -8 331 q 64 525 -8 447 q 253 603 136 603 q 361 588 300 603 q 461 574 422 574 q 504 591 479 574 q 538 633 529 608 q 542 644 539 636 l 543 651 l 604 651 q 531 453 551 529 q 481 233 500 349 q 454 253 479 235 q 414 280 429 271 q 369 299 399 289 q 308 308 339 308 q 245 285 271 308 q 219 228 219 261 q 313 150 219 150 q 415 171 363 150 q 500 224 467 192 q 518 240 514 238 l 536 225 q 560 200 550 213 q 581 157 572 181 q 293 33 457 33 q 79 115 167 33 q -8 331 -8 197 m 82 768 q 115 710 82 740 q 175 667 140 688 q 308 797 264 725 q 386 731 357 768 q 421 667 415 693 q 493 747 493 696 q 435 839 493 786 q 363 894 401 868 q 311 933 324 919 q 281 936 286 936 q 244 925 263 936 q 96 796 179 864 q 82 768 82 783 m 68 754 q 92 804 68 783 q 173 876 128 835 q 239 935 218 918 q 294 950 261 950 q 338 946 313 950 q 397 899 356 928 q 467 846 438 871 q 535 733 535 785 q 414 615 535 654 q 329 746 404 690 q 190 619 274 674 q 111 675 143 646 q 68 754 68 714 z "},"":{"ha":582,"x_min":-8,"x_max":604,"o":"m 8 340 q 88 146 8 219 q 282 72 167 72 q 536 175 424 72 q 508 214 524 201 q 413 156 471 178 q 301 133 356 133 q 214 159 247 133 q 181 239 181 185 q 215 316 181 285 q 297 347 249 347 q 450 292 375 347 q 493 472 469 389 q 527 563 503 507 q 558 635 551 618 l 553 635 q 511 581 543 604 q 450 557 479 557 q 347 571 407 557 q 244 585 288 585 q 79 509 150 585 q 8 340 8 433 m -8 331 q 64 525 -8 447 q 253 603 136 603 q 361 588 300 603 q 461 574 422 574 q 504 591 479 574 q 538 633 529 608 q 542 644 539 636 l 543 651 l 604 651 q 531 453 551 529 q 481 233 500 349 q 454 253 479 235 q 414 280 429 271 q 369 299 399 289 q 308 308 339 308 q 245 285 271 308 q 219 228 219 261 q 313 150 219 150 q 415 171 363 150 q 500 224 467 192 q 518 240 514 238 l 536 225 q 560 200 550 213 q 581 157 572 181 q 293 33 457 33 q 79 115 167 33 q -8 331 -8 197 m 82 768 q 115 710 82 740 q 175 667 140 688 q 308 797 264 725 q 386 731 357 768 q 421 667 415 693 q 493 747 493 696 q 435 839 493 786 q 363 894 401 868 q 311 933 324 919 q 281 936 286 936 q 244 925 263 936 q 96 796 179 864 q 82 768 82 783 m 68 754 q 92 804 68 783 q 173 876 128 835 q 239 935 218 918 q 294 950 261 950 q 338 946 313 950 q 397 899 356 928 q 467 846 438 871 q 535 733 535 785 q 414 615 535 654 q 329 746 404 690 q 190 619 274 674 q 111 675 143 646 q 68 754 68 714 z "},"":{"ha":582,"x_min":-8,"x_max":604,"o":"m 8 340 q 88 146 8 219 q 282 72 167 72 q 536 175 424 72 q 508 214 524 201 q 413 156 471 178 q 301 133 356 133 q 214 159 247 133 q 181 239 181 185 q 215 316 181 285 q 297 347 249 347 q 450 292 375 347 q 493 472 469 389 q 527 563 503 507 q 558 635 551 618 l 553 635 q 511 581 543 604 q 450 557 479 557 q 347 571 407 557 q 244 585 288 585 q 79 509 150 585 q 8 340 8 433 m -8 331 q 64 525 -8 447 q 253 603 136 603 q 361 588 300 603 q 461 574 422 574 q 504 591 479 574 q 538 633 529 608 q 542 644 539 636 l 543 651 l 604 651 q 531 453 551 529 q 481 233 500 349 q 454 253 479 235 q 414 280 429 271 q 369 299 399 289 q 308 308 339 308 q 245 285 271 308 q 219 228 219 261 q 313 150 219 150 q 415 171 363 150 q 500 224 467 192 q 518 240 514 238 l 536 225 q 560 200 550 213 q 581 157 572 181 q 293 33 457 33 q 79 115 167 33 q -8 331 -8 197 m 185 747 q 207 690 185 714 q 260 665 229 665 q 349 696 313 665 q 385 775 385 726 q 296 846 385 846 q 217 819 250 846 q 185 747 185 792 m 168 735 q 208 826 168 790 q 304 861 247 861 q 391 833 361 861 q 421 763 421 806 q 378 663 421 701 q 271 625 335 625 q 199 658 229 625 q 168 735 168 690 z "},"":{"ha":582,"x_min":-8,"x_max":604,"o":"m 8 340 q 88 146 8 219 q 282 72 167 72 q 536 175 424 72 q 508 214 524 201 q 413 156 471 178 q 301 133 356 133 q 214 159 247 133 q 181 239 181 185 q 215 316 181 285 q 297 347 249 347 q 450 292 375 347 q 493 472 469 389 q 527 563 503 507 q 558 635 551 618 l 553 635 q 511 581 543 604 q 450 557 479 557 q 347 571 407 557 q 244 585 288 585 q 79 509 150 585 q 8 340 8 433 m -8 331 q 64 525 -8 447 q 253 603 136 603 q 361 588 300 603 q 461 574 422 574 q 504 591 479 574 q 538 633 529 608 q 542 644 539 636 l 543 651 l 604 651 q 531 453 551 529 q 481 233 500 349 q 454 253 479 235 q 414 280 429 271 q 369 299 399 289 q 308 308 339 308 q 245 285 271 308 q 219 228 219 261 q 313 150 219 150 q 415 171 363 150 q 500 224 467 192 q 518 240 514 238 l 536 225 q 560 200 550 213 q 581 157 572 181 q 293 33 457 33 q 79 115 167 33 q -8 331 -8 197 m 185 747 q 207 690 185 714 q 260 665 229 665 q 349 696 313 665 q 385 775 385 726 q 296 846 385 846 q 217 819 250 846 q 185 747 185 792 m 168 735 q 208 826 168 790 q 304 861 247 861 q 391 833 361 861 q 421 763 421 806 q 378 663 421 701 q 271 625 335 625 q 199 658 229 625 q 168 735 168 690 z "},"":{"ha":582,"x_min":-8,"x_max":604,"o":"m 8 340 q 88 146 8 219 q 282 72 167 72 q 536 175 424 72 q 508 214 524 201 q 413 156 471 178 q 301 133 356 133 q 214 159 247 133 q 181 239 181 185 q 215 316 181 285 q 297 347 249 347 q 450 292 375 347 q 493 472 469 389 q 527 563 503 507 q 558 635 551 618 l 553 635 q 511 581 543 604 q 450 557 479 557 q 347 571 407 557 q 244 585 288 585 q 79 509 150 585 q 8 340 8 433 m -8 331 q 64 525 -8 447 q 253 603 136 603 q 361 588 300 603 q 461 574 422 574 q 504 591 479 574 q 538 633 529 608 q 542 644 539 636 l 543 651 l 604 651 q 531 453 551 529 q 481 233 500 349 q 454 253 479 235 q 414 280 429 271 q 369 299 399 289 q 308 308 339 308 q 245 285 271 308 q 219 228 219 261 q 313 150 219 150 q 415 171 363 150 q 500 224 467 192 q 518 240 514 238 l 536 225 q 560 200 550 213 q 581 157 572 181 q 293 33 457 33 q 79 115 167 33 q -8 331 -8 197 m 94 819 q 108 790 94 803 q 256 663 192 722 q 292 651 274 651 q 322 654 297 651 q 374 693 335 668 q 447 747 413 718 q 506 840 506 800 q 432 919 506 890 q 398 856 426 893 q 321 789 369 818 q 188 919 276 861 q 128 878 147 894 q 94 819 94 847 m 79 807 q 121 886 79 849 q 200 940 154 915 q 342 814 289 882 q 426 944 417 869 q 547 826 547 906 q 479 713 547 774 q 408 660 449 688 q 350 614 367 632 q 306 610 325 610 q 251 625 274 610 q 185 683 231 642 q 104 756 140 725 q 79 807 79 778 z "},"":{"ha":582,"x_min":-8,"x_max":604,"o":"m 8 340 q 88 146 8 219 q 282 72 167 72 q 536 175 424 72 q 508 214 524 201 q 413 156 471 178 q 301 133 356 133 q 214 159 247 133 q 181 239 181 185 q 215 316 181 285 q 297 347 249 347 q 450 292 375 347 q 493 472 469 389 q 527 563 503 507 q 558 635 551 618 l 553 635 q 511 581 543 604 q 450 557 479 557 q 347 571 407 557 q 244 585 288 585 q 79 509 150 585 q 8 340 8 433 m -8 331 q 64 525 -8 447 q 253 603 136 603 q 361 588 300 603 q 461 574 422 574 q 504 591 479 574 q 538 633 529 608 q 542 644 539 636 l 543 651 l 604 651 q 531 453 551 529 q 481 233 500 349 q 454 253 479 235 q 414 280 429 271 q 369 299 399 289 q 308 308 339 308 q 245 285 271 308 q 219 228 219 261 q 313 150 219 150 q 415 171 363 150 q 500 224 467 192 q 518 240 514 238 l 536 225 q 560 200 550 213 q 581 157 572 181 q 293 33 457 33 q 79 115 167 33 q -8 331 -8 197 m 94 819 q 108 790 94 803 q 256 663 192 722 q 292 651 274 651 q 322 654 297 651 q 374 693 335 668 q 447 747 413 718 q 506 840 506 800 q 432 919 506 890 q 398 856 426 893 q 321 789 369 818 q 188 919 276 861 q 128 878 147 894 q 94 819 94 847 m 79 807 q 121 886 79 849 q 200 940 154 915 q 342 814 289 882 q 426 944 417 869 q 547 826 547 906 q 479 713 547 774 q 408 660 449 688 q 350 614 367 632 q 306 610 325 610 q 251 625 274 610 q 185 683 231 642 q 104 756 140 725 q 79 807 79 778 z "},"":{"ha":689,"x_min":3,"x_max":708,"o":"m 226 240 q 240 313 226 279 q 298 294 276 313 q 319 246 319 276 q 292 199 319 219 q 232 176 265 179 q 226 240 226 221 m 21 535 q 26 353 21 497 q 31 136 31 210 q 26 21 31 67 q 136 29 85 29 q 235 17 169 29 q 360 6 301 6 q 581 104 493 6 q 669 350 669 203 q 591 540 669 461 q 401 619 513 619 q 217 590 331 619 q 33 553 104 561 q 21 535 21 550 m 265 229 q 267 199 265 214 q 303 235 303 214 q 271 271 303 264 q 265 229 265 246 m 3 524 q 10 557 3 546 q 40 571 18 568 q 223 609 110 581 q 413 638 336 638 q 622 550 535 638 q 708 339 708 463 q 613 74 708 182 q 371 -33 517 -33 q 244 -22 310 -33 q 147 -10 178 -10 q 42 -18 97 -10 l 7 -22 l 10 11 q 14 125 14 78 q 8 341 14 197 q 3 524 3 485 m 122 846 q 136 817 122 829 q 283 689 219 749 q 319 678 301 678 q 350 681 325 678 q 401 719 363 694 q 475 774 440 744 q 533 867 533 826 q 460 946 533 917 q 426 882 454 919 q 349 815 397 844 q 215 946 304 888 q 156 904 175 921 q 122 846 122 874 m 107 833 q 149 913 107 875 q 228 967 182 942 q 369 840 317 908 q 454 971 444 896 q 575 853 575 932 q 507 739 575 800 q 435 686 476 714 q 378 640 394 658 q 333 636 353 636 q 279 651 301 636 q 213 710 258 668 q 132 782 168 751 q 107 833 107 804 z "},"":{"ha":689,"x_min":3,"x_max":708,"o":"m 226 240 q 240 313 226 279 q 298 294 276 313 q 319 246 319 276 q 292 199 319 219 q 232 176 265 179 q 226 240 226 221 m 21 535 q 26 353 21 497 q 31 136 31 210 q 26 21 31 67 q 136 29 85 29 q 235 17 169 29 q 360 6 301 6 q 581 104 493 6 q 669 350 669 203 q 591 540 669 461 q 401 619 513 619 q 217 590 331 619 q 33 553 104 561 q 21 535 21 550 m 265 229 q 267 199 265 214 q 303 235 303 214 q 271 271 303 264 q 265 229 265 246 m 3 524 q 10 557 3 546 q 40 571 18 568 q 223 609 110 581 q 413 638 336 638 q 622 550 535 638 q 708 339 708 463 q 613 74 708 182 q 371 -33 517 -33 q 244 -22 310 -33 q 147 -10 178 -10 q 42 -18 97 -10 l 7 -22 l 10 11 q 14 125 14 78 q 8 341 14 197 q 3 524 3 485 m 122 846 q 136 817 122 829 q 283 689 219 749 q 319 678 301 678 q 350 681 325 678 q 401 719 363 694 q 475 774 440 744 q 533 867 533 826 q 460 946 533 917 q 426 882 454 919 q 349 815 397 844 q 215 946 304 888 q 156 904 175 921 q 122 846 122 874 m 107 833 q 149 913 107 875 q 228 967 182 942 q 369 840 317 908 q 454 971 444 896 q 575 853 575 932 q 507 739 575 800 q 435 686 476 714 q 378 640 394 658 q 333 636 353 636 q 279 651 301 636 q 213 710 258 668 q 132 782 168 751 q 107 833 107 804 z "},"":{"ha":703,"x_min":-15,"x_max":725,"o":"m 0 236 l 47 236 q 49 136 49 201 q 40 21 49 79 q 150 29 99 29 q 249 17 183 29 q 374 6 315 6 q 595 104 507 6 q 683 350 683 203 q 605 540 683 461 q 415 619 526 619 q 234 591 344 619 q 51 553 124 563 q 39 535 39 550 q 44 314 39 486 l 0 315 l 0 236 m 238 238 l 303 238 l 306 306 l 239 308 q 254 357 242 328 q 332 332 300 357 q 364 271 364 307 q 329 209 364 235 q 243 181 294 183 q 238 238 240 199 m -15 194 l -14 222 q -14 279 -14 249 q -12 331 -14 310 l 31 329 q 28 422 31 349 q 25 521 25 494 q 61 565 25 560 q 243 604 133 575 q 429 633 353 633 q 638 547 551 633 q 725 336 725 460 q 629 72 725 179 q 388 -36 533 -36 q 260 -24 326 -36 q 164 -12 194 -12 q 58 -21 114 -12 l 22 -26 l 26 10 q 35 122 35 65 q 34 150 35 126 q 33 194 33 174 l -15 194 z "},"":{"ha":703,"x_min":-15,"x_max":725,"o":"m 0 236 l 47 236 q 49 136 49 201 q 40 21 49 79 q 150 29 99 29 q 249 17 183 29 q 374 6 315 6 q 595 104 507 6 q 683 350 683 203 q 605 540 683 461 q 415 619 526 619 q 234 591 344 619 q 51 553 124 563 q 39 535 39 550 q 44 314 39 486 l 0 315 l 0 236 m 238 238 l 303 238 l 306 306 l 239 308 q 254 357 242 328 q 332 332 300 357 q 364 271 364 307 q 329 209 364 235 q 243 181 294 183 q 238 238 240 199 m -15 194 l -14 222 q -14 279 -14 249 q -12 331 -14 310 l 31 329 q 28 422 31 349 q 25 521 25 494 q 61 565 25 560 q 243 604 133 575 q 429 633 353 633 q 638 547 551 633 q 725 336 725 460 q 629 72 725 179 q 388 -36 533 -36 q 260 -24 326 -36 q 164 -12 194 -12 q 58 -21 114 -12 l 22 -26 l 26 10 q 35 122 35 65 q 34 150 35 126 q 33 194 33 174 l -15 194 z "},"":{"ha":493,"x_min":-3,"x_max":504,"o":"m -3 600 q 43 643 -3 643 q 208 622 131 622 q 288 624 249 622 q 356 626 328 625 q 405 629 383 628 q 438 632 426 631 q 451 633 450 633 q 503 506 503 574 q 471 356 503 436 q 445 376 465 360 q 406 398 425 392 q 356 404 388 404 q 339 403 347 404 q 364 315 364 369 q 360 246 364 282 l 351 238 q 436 286 396 250 q 449 299 439 289 q 463 311 460 308 l 479 278 q 504 157 504 224 q 486 22 504 76 q 215 10 324 10 q 32 15 114 10 q 17 16 29 15 q 3 17 6 17 l 6 46 q 17 134 10 83 q 29 224 25 185 q 33 308 33 264 q -3 600 33 461 m 19 596 q 50 336 50 469 q 45 228 50 281 q 32 122 40 175 q 22 54 24 68 q 204 49 104 49 q 454 60 321 49 q 465 168 465 99 q 443 276 465 231 q 292 217 376 217 q 186 232 236 217 q 196 267 186 244 q 251 251 232 251 q 322 271 297 251 q 325 326 325 313 q 306 397 325 371 q 207 382 246 382 q 203 421 203 397 q 344 443 293 443 q 444 413 400 443 q 464 517 464 474 q 429 615 464 575 q 197 606 300 606 q 101 613 151 606 q 43 619 50 619 q 19 596 19 619 m 26 744 q 132 749 89 749 q 230 743 157 749 q 322 738 303 738 q 438 764 411 738 q 460 853 460 808 q 444 944 460 896 q 335 913 394 913 q 233 917 299 913 q 133 922 167 922 q 33 899 67 922 q 26 744 26 811 m 13 701 l 13 731 q 21 903 13 815 q 51 923 40 917 q 87 934 63 929 q 147 939 111 939 q 249 933 182 939 q 349 926 315 926 q 406 936 383 926 q 474 976 428 946 q 501 839 501 919 q 475 733 501 786 q 336 696 438 696 q 242 701 314 696 q 146 707 169 707 q 42 703 104 707 q 27 702 39 703 q 13 701 15 701 z "},"":{"ha":493,"x_min":-3,"x_max":504,"o":"m -3 600 q 43 643 -3 643 q 208 622 131 622 q 288 624 249 622 q 356 626 328 625 q 405 629 383 628 q 438 632 426 631 q 451 633 450 633 q 503 506 503 574 q 471 356 503 436 q 445 376 465 360 q 406 398 425 392 q 356 404 388 404 q 339 403 347 404 q 364 315 364 369 q 360 246 364 282 l 351 238 q 436 286 396 250 q 449 299 439 289 q 463 311 460 308 l 479 278 q 504 157 504 224 q 486 22 504 76 q 215 10 324 10 q 32 15 114 10 q 17 16 29 15 q 3 17 6 17 l 6 46 q 17 134 10 83 q 29 224 25 185 q 33 308 33 264 q -3 600 33 461 m 19 596 q 50 336 50 469 q 45 228 50 281 q 32 122 40 175 q 22 54 24 68 q 204 49 104 49 q 454 60 321 49 q 465 168 465 99 q 443 276 465 231 q 292 217 376 217 q 186 232 236 217 q 196 267 186 244 q 251 251 232 251 q 322 271 297 251 q 325 326 325 313 q 306 397 325 371 q 207 382 246 382 q 203 421 203 397 q 344 443 293 443 q 444 413 400 443 q 464 517 464 474 q 429 615 464 575 q 197 606 300 606 q 101 613 151 606 q 43 619 50 619 q 19 596 19 619 m 26 744 q 132 749 89 749 q 230 743 157 749 q 322 738 303 738 q 438 764 411 738 q 460 853 460 808 q 444 944 460 896 q 335 913 394 913 q 233 917 299 913 q 133 922 167 922 q 33 899 67 922 q 26 744 26 811 m 13 701 l 13 731 q 21 903 13 815 q 51 923 40 917 q 87 934 63 929 q 147 939 111 939 q 249 933 182 939 q 349 926 315 926 q 406 936 383 926 q 474 976 428 946 q 501 839 501 919 q 475 733 501 786 q 336 696 438 696 q 242 701 314 696 q 146 707 169 707 q 42 703 104 707 q 27 702 39 703 q 13 701 15 701 z "},"":{"ha":493,"x_min":-3,"x_max":504,"o":"m -3 600 q 43 643 -3 643 q 208 622 131 622 q 288 624 249 622 q 356 626 328 625 q 405 629 383 628 q 438 632 426 631 q 451 633 450 633 q 503 506 503 574 q 471 356 503 436 q 445 376 465 360 q 406 398 425 392 q 356 404 388 404 q 339 403 347 404 q 364 315 364 369 q 360 246 364 282 l 351 238 q 436 286 396 250 q 449 299 439 289 q 463 311 460 308 l 479 278 q 504 157 504 224 q 486 22 504 76 q 215 10 324 10 q 32 15 114 10 q 17 16 29 15 q 3 17 6 17 l 6 46 q 17 134 10 83 q 29 224 25 185 q 33 308 33 264 q -3 600 33 461 m 19 596 q 50 336 50 469 q 45 228 50 281 q 32 122 40 175 q 22 54 24 68 q 204 49 104 49 q 454 60 321 49 q 465 168 465 99 q 443 276 465 231 q 292 217 376 217 q 186 232 236 217 q 196 267 186 244 q 251 251 232 251 q 322 271 297 251 q 325 326 325 313 q 306 397 325 371 q 207 382 246 382 q 203 421 203 397 q 344 443 293 443 q 444 413 400 443 q 464 517 464 474 q 429 615 464 575 q 197 606 300 606 q 101 613 151 606 q 43 619 50 619 q 19 596 19 619 m 47 853 q 58 828 47 842 q 271 719 157 719 q 418 785 365 719 q 460 876 460 840 q 381 953 460 938 q 356 879 378 919 q 294 846 336 846 q 222 882 250 846 q 161 950 192 919 q 90 911 129 938 q 47 853 47 885 m 32 839 q 86 925 32 892 q 179 972 131 953 q 257 886 224 928 q 308 860 279 860 q 344 879 333 860 q 368 972 368 918 q 418 963 393 969 q 472 931 443 957 q 501 863 501 904 q 453 754 501 819 q 285 678 390 678 q 113 738 193 678 q 32 839 32 797 z "},"":{"ha":493,"x_min":-3,"x_max":504,"o":"m -3 600 q 43 643 -3 643 q 208 622 131 622 q 288 624 249 622 q 356 626 328 625 q 405 629 383 628 q 438 632 426 631 q 451 633 450 633 q 503 506 503 574 q 471 356 503 436 q 445 376 465 360 q 406 398 425 392 q 356 404 388 404 q 339 403 347 404 q 364 315 364 369 q 360 246 364 282 l 351 238 q 436 286 396 250 q 449 299 439 289 q 463 311 460 308 l 479 278 q 504 157 504 224 q 486 22 504 76 q 215 10 324 10 q 32 15 114 10 q 17 16 29 15 q 3 17 6 17 l 6 46 q 17 134 10 83 q 29 224 25 185 q 33 308 33 264 q -3 600 33 461 m 19 596 q 50 336 50 469 q 45 228 50 281 q 32 122 40 175 q 22 54 24 68 q 204 49 104 49 q 454 60 321 49 q 465 168 465 99 q 443 276 465 231 q 292 217 376 217 q 186 232 236 217 q 196 267 186 244 q 251 251 232 251 q 322 271 297 251 q 325 326 325 313 q 306 397 325 371 q 207 382 246 382 q 203 421 203 397 q 344 443 293 443 q 444 413 400 443 q 464 517 464 474 q 429 615 464 575 q 197 606 300 606 q 101 613 151 606 q 43 619 50 619 q 19 596 19 619 m 47 853 q 58 828 47 842 q 271 719 157 719 q 418 785 365 719 q 460 876 460 840 q 381 953 460 938 q 356 879 378 919 q 294 846 336 846 q 222 882 250 846 q 161 950 192 919 q 90 911 129 938 q 47 853 47 885 m 32 839 q 86 925 32 892 q 179 972 131 953 q 257 886 224 928 q 308 860 279 860 q 344 879 333 860 q 368 972 368 918 q 418 963 393 969 q 472 931 443 957 q 501 863 501 904 q 453 754 501 819 q 285 678 390 678 q 113 738 193 678 q 32 839 32 797 z "},"":{"ha":493,"x_min":-3,"x_max":504,"o":"m -3 600 q 43 643 -3 643 q 208 622 131 622 q 288 624 249 622 q 356 626 328 625 q 405 629 383 628 q 438 632 426 631 q 451 633 450 633 q 503 506 503 574 q 471 356 503 436 q 445 376 465 360 q 406 398 425 392 q 356 404 388 404 q 339 403 347 404 q 364 315 364 369 q 360 246 364 282 l 351 238 q 436 286 396 250 q 449 299 439 289 q 463 311 460 308 l 479 278 q 504 157 504 224 q 486 22 504 76 q 215 10 324 10 q 32 15 114 10 q 17 16 29 15 q 3 17 6 17 l 6 46 q 17 134 10 83 q 29 224 25 185 q 33 308 33 264 q -3 600 33 461 m 19 596 q 50 336 50 469 q 45 228 50 281 q 32 122 40 175 q 22 54 24 68 q 204 49 104 49 q 454 60 321 49 q 465 168 465 99 q 443 276 465 231 q 292 217 376 217 q 186 232 236 217 q 196 267 186 244 q 251 251 232 251 q 322 271 297 251 q 325 326 325 313 q 306 397 325 371 q 207 382 246 382 q 203 421 203 397 q 344 443 293 443 q 444 413 400 443 q 464 517 464 474 q 429 615 464 575 q 197 606 300 606 q 101 613 151 606 q 43 619 50 619 q 19 596 19 619 m 143 774 q 165 716 143 740 q 218 692 188 692 q 307 722 271 692 q 343 801 343 753 q 254 872 343 872 q 176 845 208 872 q 143 774 143 818 m 126 761 q 166 852 126 817 q 263 888 206 888 q 349 860 319 888 q 379 789 379 832 q 336 690 379 728 q 229 651 293 651 q 157 684 188 651 q 126 761 126 717 z "},"":{"ha":493,"x_min":-3,"x_max":504,"o":"m -3 600 q 43 643 -3 643 q 208 622 131 622 q 288 624 249 622 q 356 626 328 625 q 405 629 383 628 q 438 632 426 631 q 451 633 450 633 q 503 506 503 574 q 471 356 503 436 q 445 376 465 360 q 406 398 425 392 q 356 404 388 404 q 339 403 347 404 q 364 315 364 369 q 360 246 364 282 l 351 238 q 436 286 396 250 q 449 299 439 289 q 463 311 460 308 l 479 278 q 504 157 504 224 q 486 22 504 76 q 215 10 324 10 q 32 15 114 10 q 17 16 29 15 q 3 17 6 17 l 6 46 q 17 134 10 83 q 29 224 25 185 q 33 308 33 264 q -3 600 33 461 m 19 596 q 50 336 50 469 q 45 228 50 281 q 32 122 40 175 q 22 54 24 68 q 204 49 104 49 q 454 60 321 49 q 465 168 465 99 q 443 276 465 231 q 292 217 376 217 q 186 232 236 217 q 196 267 186 244 q 251 251 232 251 q 322 271 297 251 q 325 326 325 313 q 306 397 325 371 q 207 382 246 382 q 203 421 203 397 q 344 443 293 443 q 444 413 400 443 q 464 517 464 474 q 429 615 464 575 q 197 606 300 606 q 101 613 151 606 q 43 619 50 619 q 19 596 19 619 m 143 774 q 165 716 143 740 q 218 692 188 692 q 307 722 271 692 q 343 801 343 753 q 254 872 343 872 q 176 845 208 872 q 143 774 143 818 m 126 761 q 166 852 126 817 q 263 888 206 888 q 349 860 319 888 q 379 789 379 832 q 336 690 379 728 q 229 651 293 651 q 157 684 188 651 q 126 761 126 717 z "},"":{"ha":493,"x_min":3,"x_max":528,"o":"m 19 596 q 50 336 50 469 q 45 228 50 281 q 32 122 40 175 q 22 54 24 68 q 204 49 104 49 q 306 50 271 49 q 225 -17 263 18 q 186 -93 186 -51 q 224 -168 186 -136 q 304 -200 261 -200 q 489 -176 368 -200 q 486 -83 489 -107 q 471 -12 483 -58 q 418 -25 433 -25 q 392 -4 392 -25 q 411 29 392 10 q 454 60 431 49 q 465 168 465 99 q 443 276 465 231 q 292 217 376 217 q 186 232 236 217 q 196 267 186 244 q 251 251 232 251 q 322 271 297 251 q 325 326 325 313 q 306 397 325 371 q 207 382 246 382 q 203 421 203 397 q 344 443 293 443 q 444 413 400 443 q 464 517 464 474 q 429 615 464 575 q 197 606 300 606 q 101 613 151 606 q 43 619 50 619 q 19 596 19 619 m 3 17 q 15 118 7 60 q 28 223 24 176 q 33 325 33 269 q 3 582 33 453 q 54 636 3 636 q 114 629 64 636 q 208 622 164 622 q 451 633 296 622 q 503 506 503 588 q 471 356 503 439 q 414 394 436 383 q 356 404 392 404 q 348 403 353 404 q 339 403 343 403 q 364 315 364 369 q 360 246 364 308 l 351 238 q 394 256 374 243 q 427 278 415 268 q 463 311 439 288 q 504 157 504 235 q 489 29 504 64 q 436 -7 460 21 q 471 3 456 -6 q 485 8 474 4 q 500 14 497 13 q 505 -1 501 11 q 508 -17 508 -14 q 525 -92 522 -67 q 528 -187 528 -117 l 528 -211 q 493 -219 524 -212 q 409 -232 463 -225 q 315 -239 356 -239 q 216 -200 263 -239 q 169 -104 169 -161 q 236 10 169 -47 q 32 15 115 10 l 3 17 z "},"":{"ha":493,"x_min":3,"x_max":528,"o":"m 19 596 q 50 336 50 469 q 45 228 50 281 q 32 122 40 175 q 22 54 24 68 q 204 49 104 49 q 306 50 271 49 q 225 -17 263 18 q 186 -93 186 -51 q 224 -168 186 -136 q 304 -200 261 -200 q 489 -176 368 -200 q 486 -83 489 -107 q 471 -12 483 -58 q 418 -25 433 -25 q 392 -4 392 -25 q 411 29 392 10 q 454 60 431 49 q 465 168 465 99 q 443 276 465 231 q 292 217 376 217 q 186 232 236 217 q 196 267 186 244 q 251 251 232 251 q 322 271 297 251 q 325 326 325 313 q 306 397 325 371 q 207 382 246 382 q 203 421 203 397 q 344 443 293 443 q 444 413 400 443 q 464 517 464 474 q 429 615 464 575 q 197 606 300 606 q 101 613 151 606 q 43 619 50 619 q 19 596 19 619 m 3 17 q 15 118 7 60 q 28 223 24 176 q 33 325 33 269 q 3 582 33 453 q 54 636 3 636 q 114 629 64 636 q 208 622 164 622 q 451 633 296 622 q 503 506 503 588 q 471 356 503 439 q 414 394 436 383 q 356 404 392 404 q 348 403 353 404 q 339 403 343 403 q 364 315 364 369 q 360 246 364 308 l 351 238 q 394 256 374 243 q 427 278 415 268 q 463 311 439 288 q 504 157 504 235 q 489 29 504 64 q 436 -7 460 21 q 471 3 456 -6 q 485 8 474 4 q 500 14 497 13 q 505 -1 501 11 q 508 -17 508 -14 q 525 -92 522 -67 q 528 -187 528 -117 l 528 -211 q 493 -219 524 -212 q 409 -232 463 -225 q 315 -239 356 -239 q 216 -200 263 -239 q 169 -104 169 -161 q 236 10 169 -47 q 32 15 115 10 l 3 17 z "},"":{"ha":493,"x_min":-3,"x_max":506,"o":"m -3 600 q 43 643 -3 643 q 208 622 131 622 q 288 624 249 622 q 356 626 328 625 q 405 629 383 628 q 438 632 426 631 q 451 633 450 633 q 503 506 503 574 q 471 356 503 436 q 445 376 465 360 q 406 398 425 392 q 356 404 388 404 q 339 403 347 404 q 364 315 364 369 q 360 246 364 282 l 351 238 q 436 286 396 250 q 449 299 439 289 q 463 311 460 308 l 479 278 q 504 157 504 224 q 486 22 504 76 q 215 10 324 10 q 32 15 114 10 q 17 16 29 15 q 3 17 6 17 l 6 46 q 17 134 10 83 q 29 224 25 185 q 33 308 33 264 q -3 600 33 461 m 19 596 q 50 336 50 469 q 45 228 50 281 q 32 122 40 175 q 22 54 24 68 q 204 49 104 49 q 454 60 321 49 q 465 168 465 99 q 443 276 465 231 q 292 217 376 217 q 186 232 236 217 q 196 267 186 244 q 251 251 232 251 q 322 271 297 251 q 325 326 325 313 q 306 397 325 371 q 207 382 246 382 q 203 421 203 397 q 344 443 293 443 q 444 413 400 443 q 464 517 464 474 q 429 615 464 575 q 197 606 300 606 q 101 613 151 606 q 43 619 50 619 q 19 596 19 619 m 53 846 q 67 817 53 829 q 214 689 150 749 q 250 678 232 678 q 281 681 256 678 q 332 719 293 694 q 406 774 371 744 q 464 867 464 826 q 390 946 464 917 q 356 882 385 919 q 279 815 328 844 q 146 946 235 888 q 86 904 106 921 q 53 846 53 874 m 38 833 q 79 913 38 875 q 158 967 113 942 q 300 840 247 908 q 385 971 375 896 q 506 853 506 932 q 438 739 506 800 q 366 686 407 714 q 308 640 325 658 q 264 636 283 636 q 210 651 232 636 q 144 710 189 668 q 63 782 99 751 q 38 833 38 804 z "}}}
